<svg width="18" height="8" viewBox="0 0 18 8" fill="none" xmlns="http://www.w3.org/2000/svg">
<path fill-rule="evenodd" clip-rule="evenodd" d="M12.0391 0.336715C12.1049 0.285856 12.1831 0.245505 12.2691 0.217973C12.3552 0.190441 12.4474 0.17627 12.5406 0.17627C12.6338 0.17627 12.726 0.190441 12.8121 0.217973C12.8981 0.245505 12.9763 0.285856 13.0421 0.336715L17.2917 3.61348C17.3577 3.66421 17.41 3.72448 17.4457 3.79083C17.4815 3.85718 17.4998 3.92831 17.4998 4.00014C17.4998 4.07198 17.4815 4.14311 17.4457 4.20946C17.41 4.2758 17.3577 4.33607 17.2917 4.3868L13.0421 7.66357C12.9091 7.76612 12.7287 7.82373 12.5406 7.82373C12.3525 7.82373 12.1721 7.76612 12.0391 7.66357C11.9061 7.56102 11.8314 7.42194 11.8314 7.27691C11.8314 7.13189 11.9061 6.9928 12.0391 6.89025L15.7888 4.00014L12.0391 1.11003C11.9732 1.0593 11.9208 0.999036 11.8851 0.932687C11.8494 0.866338 11.8311 0.795209 11.8311 0.723374C11.8311 0.651539 11.8494 0.58041 11.8851 0.514061C11.9208 0.447711 11.9732 0.387445 12.0391 0.336715Z"/>
<path fill-rule="evenodd" clip-rule="evenodd" d="M0.5 4.00023C0.5 3.85539 0.574622 3.71648 0.707451 3.61406C0.840279 3.51164 1.02043 3.4541 1.20828 3.4541H16.0822C16.27 3.4541 16.4502 3.51164 16.583 3.61406C16.7158 3.71648 16.7905 3.85539 16.7905 4.00023C16.7905 4.14507 16.7158 4.28398 16.583 4.3864C16.4502 4.48882 16.27 4.54636 16.0822 4.54636H1.20828C1.02043 4.54636 0.840279 4.48882 0.707451 4.3864C0.574622 4.28398 0.5 4.14507 0.5 4.00023Z"/>
</svg>
