<svg width="11" height="11" viewBox="0 0 11 11" fill="none" xmlns="http://www.w3.org/2000/svg">
<circle cx="5" cy="5.5" r="4.5" stroke="#552F36"/>
<path d="M2.19654 4.07746C2.19654 4.07746 2.61243 3.72112 3.12329 3.85066C3.64608 3.98022 4.07381 4.30418 4.39463 4.62813C4.71544 4.95209 4.858 5.37322 4.858 5.37322C4.858 5.37322 6.5095 3.34317 7.82832 2.11218C9.0521 0.967601 10.264 0.244127 10.4066 0.146924C10.5491 0.0497583 10.7511 -0.0690192 10.8581 0.0497583C10.965 0.168542 11.06 0.276558 10.9531 0.395337C10.8461 0.51412 9.14707 2.28501 8.26796 3.34323C7.28182 4.53106 6.67589 5.66482 5.71348 6.9606C5.47579 7.29532 4.88173 8.05119 4.4065 7.99726C4.2758 7.98649 3.89564 6.88505 3.77679 6.66911C3.5154 6.19397 3.1233 5.50291 2.39854 4.83345C2.06586 4.55266 1.80447 4.40148 2.19656 4.07752L2.19654 4.07746Z" fill="#B3904E"/>
</svg>
