<svg width="29" height="24" viewBox="0 0 29 24" fill="none" xmlns="http://www.w3.org/2000/svg">
<path d="M29 15.4458C29 17.8941 27.5051 20.0705 25.2927 20.9773V23.2745C25.2927 23.5769 25.1134 23.8185 24.8443 23.9395C24.7547 23.9696 24.665 24 24.5753 24C24.396 24 24.2166 23.9395 24.0671 23.7883L21.7054 21.4005H18.2073C15.965 21.4005 13.9619 20.1612 12.9455 18.136C12.826 17.9243 12.9156 17.6524 13.1548 17.5315C13.3642 17.4107 13.6332 17.5014 13.7527 17.7432C14.6196 19.4663 16.3239 20.5241 18.2074 20.5241H21.8847C22.0042 20.5241 22.1239 20.5846 22.2136 20.6449L24.396 22.8514V20.6751C24.396 20.4938 24.5155 20.3124 24.695 20.2519C26.7279 19.5568 28.1033 17.6524 28.1033 15.4761C28.1033 13.0579 26.399 10.9723 24.0373 10.5189C23.7981 10.4584 23.6187 10.2469 23.6786 10.0051C23.7384 9.76326 23.9476 9.58193 24.1868 9.64244C26.9967 10.1261 29 12.5744 29 15.446L29 15.4458ZM0 7.67758C0 3.44595 3.40824 0 7.59381 0H14.0814C18.2669 0 21.6752 3.44584 21.6752 7.67758C21.6755 11.9092 18.2374 15.3552 14.0521 15.3552H9.38799L6.24898 18.529C6.09946 18.6802 5.89028 18.7709 5.68089 18.7709C5.23252 18.7709 4.87362 18.4082 4.87362 17.9547V14.8413C1.94378 13.723 0.000373506 10.8817 0.000373506 7.67761L0 7.67758ZM0.89696 7.67758C0.89696 10.5795 2.75051 13.1788 5.47118 14.0856C5.65053 14.1462 5.77024 14.3275 5.77024 14.5088V17.743L8.87941 14.5995C8.96908 14.5088 9.08879 14.4787 9.20828 14.4787H14.0515C17.7288 14.4787 20.7484 11.456 20.7484 7.70789C20.7484 3.95972 17.7587 0.937108 14.0515 0.937108H7.5639C3.88664 0.906958 0.896896 3.9296 0.896896 7.67766L0.89696 7.67758ZM5.83005 8.13089H15.7857C16.0249 8.13089 16.2341 7.9192 16.2341 7.67758C16.2341 7.43574 16.0247 7.22427 15.7857 7.22427L5.83005 7.22406C5.59085 7.22406 5.38169 7.43574 5.38169 7.67737C5.38148 7.91921 5.59086 8.13089 5.83005 8.13089ZM5.83005 5.56152H15.7857C16.0249 5.56152 16.2341 5.34983 16.2341 5.1082C16.2341 4.86636 16.0247 4.65489 15.7857 4.65489H5.83005C5.59085 4.65489 5.38169 4.86658 5.38169 5.1082C5.38148 5.35004 5.59086 5.56152 5.83005 5.56152ZM5.83005 10.6699H15.7857C16.0249 10.6699 16.2341 10.4582 16.2341 10.2166C16.2341 9.97473 16.0247 9.76325 15.7857 9.76325L5.83005 9.76304C5.59085 9.76304 5.38169 9.97473 5.38169 10.2164C5.38148 10.4584 5.59086 10.6699 5.83005 10.6699Z" fill="#fff"/>
</svg>
