<svg width="24" height="25" viewBox="0 0 24 25" fill="none" xmlns="http://www.w3.org/2000/svg">
<path d="M23.6202 9.00134C22.5215 4.78933 19.1335 1.40142 14.876 0.348154C10.6185 -0.705108 5.99418 0.668633 3.06409 3.96498C-0.552736 7.99386 -1.01056 14.0372 1.91953 18.6154C1.69061 20.2636 1.50748 21.9118 1.27857 23.56C1.18701 24.1551 1.91953 24.5672 2.42314 24.4298C4.02553 23.972 5.67371 23.56 7.2761 23.1021C11.6255 24.8877 16.6618 24.0636 20.1413 20.8588C23.3919 17.8829 24.7196 13.2133 23.6208 9.00134H23.6202ZM20.4155 17.8377C17.6685 21.8665 12.2661 23.3776 7.82549 21.3629H7.77971C7.59658 21.2714 7.36766 21.2256 7.09297 21.2714C5.81105 21.6376 4.52914 21.9581 3.24722 22.3244C3.38457 21.2256 3.52192 20.1726 3.65927 19.0738C3.70505 18.7075 3.79662 18.2955 3.61349 17.9292C3.47614 17.7003 3.29301 17.4714 3.15566 17.1967C2.83518 16.6473 2.56048 16.0521 2.33157 15.457C1.59905 13.351 1.55327 11.016 2.24001 8.91029C3.43036 5.2019 6.81827 2.40916 10.664 1.95133C14.6471 1.40194 18.6302 3.32481 20.6902 6.66694C22.7962 10.1006 22.6588 14.4955 20.4155 17.8379V17.8377Z" fill="#fff"/>
<path d="M18.3552 13.5338L16.295 11.9314C15.6541 11.4278 14.7842 11.5194 14.2348 12.0688L13.6396 12.664C13.1818 12.3893 12.7697 12.0688 12.3577 11.7025C11.9914 11.3363 11.671 10.8784 11.3963 10.4206L11.9914 9.82545C12.5408 9.27606 12.5866 8.40618 12.1288 7.76523L10.5264 5.65923C10.2059 5.2014 9.70231 4.9267 9.15292 4.9267C8.60352 4.88092 8.05413 5.10983 7.68787 5.4761L5.90235 7.26162C4.89513 8.26884 4.66622 9.82545 5.30717 11.1074C6.17704 12.7555 7.27583 14.2206 8.55774 15.5025C9.83966 16.7844 11.3505 17.8832 12.9529 18.7531C13.4565 19.0278 13.9601 19.1193 14.4637 19.1193C15.2878 19.1193 16.1577 18.7988 16.7528 18.1579L18.5384 16.3724C18.9046 16.0061 19.1335 15.4567 19.0878 14.9073C19.0878 14.3579 18.8131 13.8543 18.3552 13.5338ZM17.2564 15.0905L15.4709 16.876C15.0131 17.3338 14.3264 17.4254 13.777 17.1507C12.3119 16.3724 10.9842 15.4109 9.79387 14.2206C8.60352 13.0302 7.64209 11.7025 6.86378 10.2375C6.58909 9.6881 6.68065 9.00136 7.13848 8.54353L8.924 6.75801H8.96979C9.01557 6.75801 9.01557 6.75801 9.01557 6.80379L10.4806 8.72666L9.88544 9.27606C9.42761 9.73388 9.29026 10.4664 9.61074 11.0616C9.977 11.7941 10.4806 12.4351 11.03 12.9845C11.5794 13.5338 12.2204 14.0375 12.9529 14.4037C13.548 14.7242 14.2348 14.5868 14.6926 14.129L15.3336 13.4881L17.2107 14.9531C17.2107 14.9531 17.2564 14.9531 17.2564 14.9989V15.0905Z" fill="#fff"/>
</svg>
