<svg width="31" height="31" viewBox="0 0 31 31" fill="none" xmlns="http://www.w3.org/2000/svg">
<g clip-path="url(#clip0_588_19544)">
<path fill-rule="evenodd" clip-rule="evenodd" d="M10.7417 0H20.2583C28.9435 0 31 2.05646 31 10.7417V20.2583C31 28.9435 28.9435 31 20.2583 31H10.7417C2.05646 31 0 28.9435 0 20.2583V10.7417C0 2.05646 2.05646 0 10.7417 0Z" fill="#29A71A"/>
<path fill-rule="evenodd" clip-rule="evenodd" d="M16 24.375C20.8325 24.375 24.75 20.4575 24.75 15.625C24.75 10.7925 20.8325 6.875 16 6.875C11.1675 6.875 7.25 10.7925 7.25 15.625C7.25 17.1943 7.66312 18.6671 8.38655 19.9406L7.25 24.375L11.8218 23.3149C13.0634 23.9909 14.4868 24.375 16 24.375ZM16 23.0288C20.089 23.0288 23.4038 19.714 23.4038 15.625C23.4038 11.536 20.089 8.22115 16 8.22115C11.911 8.22115 8.59615 11.536 8.59615 15.625C8.59615 17.2038 9.09031 18.6672 9.9324 19.8689L9.26923 22.3558L11.8 21.7231C12.9934 22.5466 14.4404 23.0288 16 23.0288Z" fill="#BFC8D0"/>
<path d="M23.5 15C23.5 19.1421 20.1421 22.5 16 22.5C14.4201 22.5 12.9543 22.0115 11.7454 21.1773L9.18182 21.8182L9.8536 19.299C9.00058 18.0817 8.5 16.5993 8.5 15C8.5 10.8579 11.8579 7.5 16 7.5C20.1421 7.5 23.5 10.8579 23.5 15Z" fill="url(#paint0_linear_588_19544)"/>
<path fill-rule="evenodd" clip-rule="evenodd" d="M16 23.75C20.8325 23.75 24.75 19.8325 24.75 15C24.75 10.1675 20.8325 6.25 16 6.25C11.1675 6.25 7.25 10.1675 7.25 15C7.25 16.5693 7.66312 18.0421 8.38655 19.3156L7.25 23.75L11.8218 22.6899C13.0634 23.3659 14.4868 23.75 16 23.75ZM16 22.4038C20.089 22.4038 23.4038 19.089 23.4038 15C23.4038 10.911 20.089 7.59615 16 7.59615C11.911 7.59615 8.59615 10.911 8.59615 15C8.59615 16.5788 9.09031 18.0422 9.9324 19.2439L9.26923 21.7308L11.8 21.0981C12.9934 21.9216 14.4404 22.4038 16 22.4038Z" fill="white"/>
<path d="M13.8125 10.9374C13.6045 10.5195 13.2853 10.5565 12.9629 10.5565C12.3867 10.5565 11.4883 11.2467 11.4883 12.5312C11.4883 13.5839 11.9522 14.7362 13.5153 16.46C15.0238 18.1236 17.0059 18.9842 18.6514 18.9549C20.2969 18.9256 20.6354 17.5096 20.6354 17.0314C20.6354 16.8194 20.5039 16.7137 20.4133 16.685C19.8525 16.4158 18.8183 15.9144 18.583 15.8202C18.3477 15.726 18.2248 15.8534 18.1484 15.9227C17.935 16.1261 17.512 16.7254 17.3672 16.8602C17.2224 16.995 17.0064 16.9268 16.9166 16.8758C16.5859 16.7432 15.6893 16.3444 14.9747 15.6516C14.0908 14.7948 14.039 14.5 13.8724 14.2376C13.7392 14.0277 13.837 13.8989 13.8858 13.8426C14.0762 13.6229 14.3391 13.2837 14.457 13.1151C14.575 12.9465 14.4814 12.6906 14.4252 12.5312C14.1836 11.8456 13.9789 11.2717 13.8125 10.9374Z" fill="white"/>
</g>
<defs>
<linearGradient id="paint0_linear_588_19544" x1="22.5625" y1="9.375" x2="8.5" y2="22.5" gradientUnits="userSpaceOnUse">
<stop stop-color="#29A71A"/>
<stop offset="1" stop-color="#29A71A"/>
</linearGradient>
<clipPath id="clip0_588_19544">
<rect width="31" height="31" rx="15.5" fill="white"/>
</clipPath>
</defs>
</svg>
