<svg width="34" height="34" viewBox="0 0 34 34" fill="none" xmlns="http://www.w3.org/2000/svg">
<circle cx="17" cy="17" r="16" stroke="#4F4F4F" stroke-width="2"/>
<path d="M18.6594 8.05317C9.19866 2.965 11.1395 17.7152 7.75656 22.4371C7.41142 22.9189 7.35882 23.6206 7.78251 24.035C12.5821 28.7289 14.0017 26.6931 13.1266 14.8391C13.0723 14.1033 13.8026 13.5506 14.5193 13.7255C16.0002 14.0868 17.2993 14.0457 18.6434 13.5955C19.4328 13.3311 20.3294 13.9449 20.2208 14.7702C19.0104 23.9642 18.99 30.7249 25.3242 23.9853C25.7036 23.5817 25.6507 22.9457 25.3463 22.483C22.5665 18.2577 25.9049 7.25196 19.3789 8.17712C19.1398 8.21101 18.8721 8.16753 18.6594 8.05317Z" stroke="#4F4F4F" stroke-width="2"/>
</svg>
