<svg width="34" height="34" viewBox="0 0 34 34" fill="none" xmlns="http://www.w3.org/2000/svg">
<circle cx="17" cy="17" r="16" stroke="#4F4F4F" stroke-width="2"/>
<path d="M17.006 25.132C15.906 25.132 14.8573 24.956 13.86 24.604C12.8627 24.2373 12.0707 23.7533 11.484 23.152L12.254 21.898C12.738 22.4113 13.398 22.8367 14.234 23.174C15.0847 23.5113 16.0013 23.68 16.984 23.68C18.2893 23.68 19.2793 23.394 19.954 22.822C20.6433 22.2353 20.988 21.4727 20.988 20.534C20.988 19.874 20.8267 19.3093 20.504 18.84C20.196 18.356 19.668 17.982 18.92 17.718C18.172 17.454 17.1453 17.322 15.84 17.322H12.562L13.354 9.6H21.78V11.008H13.992L14.806 10.238L14.124 16.706L13.31 15.914H16.192C17.7467 15.914 18.9933 16.1047 19.932 16.486C20.8707 16.8673 21.5453 17.4027 21.956 18.092C22.3813 18.7667 22.594 19.5587 22.594 20.468C22.594 21.3333 22.3887 22.1253 21.978 22.844C21.5673 23.548 20.9513 24.1053 20.13 24.516C19.3087 24.9267 18.2673 25.132 17.006 25.132Z" fill="#4F4F4F"/>
</svg>
