<svg width="34" height="34" viewBox="0 0 34 34" fill="none" xmlns="http://www.w3.org/2000/svg">
<circle cx="17" cy="17" r="16" stroke="#4F4F4F" stroke-width="2"/>
<path d="M24.4044 20.722C24.2544 20.572 24.0294 20.422 23.8044 20.422H22.2294L22.5294 19.672C22.7544 19.597 22.9044 19.447 22.9794 19.222L23.6544 17.497C23.8044 17.122 23.7294 16.747 23.4294 16.447L21.4794 14.347L24.1794 6.32198C24.3294 5.87198 24.1044 5.42198 23.7294 5.27198L22.6044 5.04698C22.2294 4.89698 21.7794 5.12198 21.5544 5.49698L18.4044 13.297L15.5544 13.597C15.1794 13.597 14.8794 13.897 14.7294 14.272L14.1294 15.997C14.0544 16.222 14.0544 16.447 14.2044 16.597L12.7794 20.497H9.77942C9.55442 20.497 9.32942 20.572 9.17942 20.797C9.02942 20.947 8.95442 21.172 9.02942 21.397L9.62942 25.522C9.92942 27.547 11.8044 29.047 13.9794 29.047H19.6794C21.9294 29.047 23.8044 27.547 24.0294 25.522L24.6294 21.397C24.5544 21.097 24.4794 20.872 24.4044 20.722ZM15.1794 15.097L15.4044 14.572C15.4044 14.497 15.4794 14.422 15.6294 14.422L18.4794 14.122C18.7794 14.122 19.0044 13.897 19.1544 13.672L22.3044 5.79698C22.3044 5.79698 22.3044 5.72198 22.3794 5.72198L23.4294 6.09698V6.17198L20.7294 14.197C20.6544 14.497 20.7294 14.797 20.8794 14.947L22.8294 17.047C22.9044 17.122 22.9044 17.197 22.9044 17.272L22.6794 17.797L22.2294 18.922C22.2294 18.922 22.2294 18.922 22.1544 18.922L21.9294 18.847L14.9544 16.222L14.8044 16.297C14.8044 16.297 14.8044 16.297 14.8044 16.222L15.1794 15.097ZM14.7294 17.047L21.7044 19.672L21.4044 20.497H20.8794V20.422C20.9544 20.197 20.8794 20.047 20.6544 19.972C20.4294 19.897 20.2794 19.972 20.2044 20.197L20.0544 20.497H19.3044L19.5294 19.972C19.6044 19.747 19.5294 19.597 19.3044 19.522C19.0794 19.447 18.9294 19.522 18.8544 19.747L18.5544 20.572H17.8044L18.1794 19.522C18.2544 19.297 18.1794 19.147 17.9544 19.072C17.7294 18.997 17.5794 19.072 17.5044 19.297L16.9794 20.572H16.2294L16.8294 18.997C16.9044 18.772 16.8294 18.622 16.6044 18.547C16.3794 18.472 16.2294 18.547 16.1544 18.772L15.4794 20.572H14.7294L15.4794 18.547C15.5544 18.322 15.4794 18.172 15.2544 18.097C15.0294 18.022 14.8794 18.097 14.8044 18.322L13.9044 20.647H13.3794L14.7294 17.047ZM23.2794 25.372C23.0544 27.022 21.4794 28.222 19.6794 28.222H13.9794C12.1044 28.222 10.6044 27.022 10.3794 25.372L9.77942 21.247C9.77942 21.247 9.77942 21.247 9.85442 21.247H23.8044H23.8794L23.2794 25.372Z" fill="#4F4F4F" stroke="#4F4F4F" stroke-width="0.5"/>
<line x1="7.86824" y1="3.50386" x2="23.8682" y2="31.5039" stroke="#4F4F4F" stroke-width="2"/>
</svg>
