<svg width="34" height="34" viewBox="0 0 34 34" fill="none" xmlns="http://www.w3.org/2000/svg">
<circle cx="17" cy="17" r="16" stroke="#4F4F4F" stroke-width="2"/>
<path d="M16.7556 25.4558C17.1306 25.6808 17.5056 25.6058 17.8806 25.3058C19.6056 23.5808 20.2806 21.7058 19.7556 19.5308C19.4556 18.2558 18.5556 17.1308 17.5806 16.1558C16.2306 14.7308 15.7806 13.2308 16.2306 11.5058C16.4556 10.6058 16.9806 9.85582 17.7306 9.10582C17.8806 8.95582 17.9556 8.80583 17.9556 8.58083C17.9556 8.43083 17.8056 8.28083 17.6556 8.13083C17.2806 7.90583 16.8306 7.98082 16.5306 8.28082C15.1056 9.63082 14.4306 11.2058 14.5056 12.9308C14.5806 14.5058 15.3306 15.9308 16.6806 17.2058C17.8056 18.2558 18.4056 19.5308 18.4056 21.0308C18.4056 21.1058 18.4056 21.1808 18.4056 21.1808C18.4056 21.4058 18.3306 21.6308 18.2556 21.8558C18.0306 22.8308 17.5056 23.6558 16.6806 24.4808C16.5306 24.6308 16.4556 24.7808 16.4556 25.0058C16.4556 25.1558 16.6056 25.3058 16.7556 25.4558ZM24.2556 25.4558C24.6306 25.6808 25.0056 25.6058 25.3806 25.3058C27.1056 23.5808 27.7806 21.7058 27.2556 19.5308C26.9556 18.2558 26.0556 17.1308 25.0806 16.1558C23.7306 14.7308 23.2806 13.2308 23.7306 11.5058C23.9556 10.6058 24.4806 9.85582 25.2306 9.10582C25.3806 8.95582 25.4556 8.80583 25.4556 8.58083C25.4556 8.43083 25.3056 8.28083 25.1556 8.13083C24.7806 7.90583 24.3306 7.98082 24.0306 8.28082C22.6056 9.63082 21.9306 11.2058 22.0056 12.9308C22.0806 14.5058 22.8306 15.9308 24.1806 17.2058C25.3056 18.2558 25.9056 19.5308 25.9056 21.0308C25.9056 21.1058 25.9056 21.1808 25.9056 21.1808C25.9056 21.4058 25.8306 21.6308 25.7556 21.8558C25.5306 22.8308 25.0056 23.6558 24.1806 24.4808C24.0306 24.6308 23.9556 24.7808 23.9556 25.0058C23.9556 25.1558 24.1056 25.3058 24.2556 25.4558ZM9.25563 25.4558C9.63063 25.6808 10.0056 25.6058 10.3806 25.3058C12.1056 23.5808 12.7806 21.7058 12.2556 19.5308C11.9556 18.2558 11.0556 17.1308 10.0806 16.1558C8.73062 14.7308 8.28062 13.2308 8.73062 11.5058C8.95562 10.6058 9.48062 9.85582 10.2306 9.10582C10.3806 8.95582 10.4556 8.80583 10.4556 8.58083C10.4556 8.43083 10.3056 8.28083 10.1556 8.13083C9.78062 7.90583 9.33062 7.98082 9.03062 8.28082C7.60562 9.63082 6.93063 11.2058 7.00563 12.9308C7.08063 14.5058 7.83062 15.9308 9.18062 17.2058C10.3056 18.2558 10.9056 19.5308 10.9056 21.0308C10.9056 21.1058 10.9056 21.1808 10.9056 21.1808C10.9056 21.4058 10.8306 21.6308 10.7556 21.8558C10.5306 22.8308 10.0056 23.6558 9.18062 24.4808C9.03062 24.6308 8.95562 24.7808 8.95562 25.0058C8.95562 25.1558 9.10562 25.3058 9.25563 25.4558Z" fill="#4F4F4F"/>
<path d="M17.6556 8.13083C17.8056 8.28083 17.9556 8.43083 17.9556 8.58083C17.9556 8.80583 17.8806 8.95582 17.7306 9.10582C16.9806 9.85582 16.4556 10.6058 16.2306 11.5058C15.7806 13.2308 16.2306 14.7308 17.5806 16.1558C18.5556 17.1308 19.4556 18.2558 19.7556 19.5308C20.2806 21.7058 19.6056 23.5808 17.8806 25.3058C17.5056 25.6058 17.1306 25.6808 16.7556 25.4558C16.6056 25.3058 16.4556 25.1558 16.4556 25.0058C16.4556 24.7808 16.5306 24.6308 16.6806 24.4808C17.5056 23.6558 18.0306 22.8308 18.2556 21.8558C18.3306 21.6308 18.4056 21.4058 18.4056 21.1808C18.4056 21.1808 18.4056 21.1058 18.4056 21.0308C18.4056 19.5308 17.8056 18.2558 16.6806 17.2058C15.3306 15.9308 14.5806 14.5058 14.5056 12.9308C14.4306 11.2058 15.1056 9.63082 16.5306 8.28082C16.8306 7.98082 17.2806 7.90583 17.6556 8.13083ZM17.6556 8.13083L17.5806 8.20583M25.1556 8.13083C25.3056 8.28083 25.4556 8.43083 25.4556 8.58083C25.4556 8.80583 25.3806 8.95582 25.2306 9.10582C24.4806 9.85582 23.9556 10.6058 23.7306 11.5058C23.2806 13.2308 23.7306 14.7308 25.0806 16.1558C26.0556 17.1308 26.9556 18.2558 27.2556 19.5308C27.7806 21.7058 27.1056 23.5808 25.3806 25.3058C25.0056 25.6058 24.6306 25.6808 24.2556 25.4558C24.1056 25.3058 23.9556 25.1558 23.9556 25.0058C23.9556 24.7808 24.0306 24.6308 24.1806 24.4808C25.0056 23.6558 25.5306 22.8308 25.7556 21.8558C25.8306 21.6308 25.9056 21.4058 25.9056 21.1808C25.9056 21.1808 25.9056 21.1058 25.9056 21.0308C25.9056 19.5308 25.3056 18.2558 24.1806 17.2058C22.8306 15.9308 22.0806 14.5058 22.0056 12.9308C21.9306 11.2058 22.6056 9.63082 24.0306 8.28082C24.3306 7.98082 24.7806 7.90583 25.1556 8.13083ZM25.1556 8.13083L25.0806 8.20583M10.1556 8.13083C10.3056 8.28083 10.4556 8.43083 10.4556 8.58083C10.4556 8.80583 10.3806 8.95582 10.2306 9.10582C9.48062 9.85582 8.95562 10.6058 8.73062 11.5058C8.28062 13.2308 8.73062 14.7308 10.0806 16.1558C11.0556 17.1308 11.9556 18.2558 12.2556 19.5308C12.7806 21.7058 12.1056 23.5808 10.3806 25.3058C10.0056 25.6058 9.63062 25.6808 9.25562 25.4558C9.10562 25.3058 8.95562 25.1558 8.95562 25.0058C8.95562 24.7808 9.03062 24.6308 9.18062 24.4808C10.0056 23.6558 10.5306 22.8308 10.7556 21.8558C10.8306 21.6308 10.9056 21.4058 10.9056 21.1808C10.9056 21.1808 10.9056 21.1058 10.9056 21.0308C10.9056 19.5308 10.3056 18.2558 9.18062 17.2058C7.83062 15.9308 7.08063 14.5058 7.00563 12.9308C6.93063 11.2058 7.60562 9.63082 9.03062 8.28082C9.33062 7.98082 9.78062 7.90583 10.1556 8.13083ZM10.1556 8.13083L10.0806 8.20583" stroke="#4F4F4F" stroke-width="0.15"/>
<line x1="7.86824" y1="3.50386" x2="23.8682" y2="31.5039" stroke="#4F4F4F" stroke-width="2"/>
</svg>
