<svg width="34" height="34" viewBox="0 0 34 34" fill="none" xmlns="http://www.w3.org/2000/svg">
<circle cx="17" cy="17" r="16" stroke="#4F4F4F" stroke-width="2"/>
<path d="M6.32207 13.8174H10.243V15.1553H7.67949V16.4541H10.243V17.7676H7.67949V19.6572H10.243V21H6.32207V13.8174ZM18.9238 15.082L17.9668 15.9951C17.3158 15.3083 16.5833 14.9648 15.7695 14.9648C15.0827 14.9648 14.5033 15.1992 14.0312 15.668C13.5625 16.1367 13.3281 16.7145 13.3281 17.4014C13.3281 17.8799 13.4323 18.3047 13.6406 18.6758C13.849 19.0469 14.1436 19.3382 14.5244 19.5498C14.9053 19.7614 15.3285 19.8672 15.7939 19.8672C16.1911 19.8672 16.554 19.7939 16.8828 19.6475C17.2116 19.4977 17.5729 19.2275 17.9668 18.8369L18.8945 19.8037C18.3639 20.3213 17.8626 20.681 17.3906 20.8828C16.9186 21.0814 16.3799 21.1807 15.7744 21.1807C14.6579 21.1807 13.7432 20.8275 13.0303 20.1211C12.3206 19.4115 11.9658 18.5033 11.9658 17.3965C11.9658 16.6803 12.127 16.0439 12.4492 15.4873C12.7747 14.9307 13.2386 14.4831 13.8408 14.1445C14.4463 13.806 15.0973 13.6367 15.7939 13.6367C16.3864 13.6367 16.9561 13.762 17.5029 14.0127C18.0531 14.2633 18.5267 14.6198 18.9238 15.082ZM24.3186 13.6367C25.3342 13.6367 26.2066 14.0046 26.9357 14.7402C27.6682 15.4759 28.0344 16.3727 28.0344 17.4307C28.0344 18.4788 27.673 19.3659 26.9504 20.0918C26.231 20.8177 25.357 21.1807 24.3283 21.1807C23.2508 21.1807 22.3557 20.8079 21.6428 20.0625C20.9299 19.3171 20.5734 18.4316 20.5734 17.4062C20.5734 16.7194 20.7395 16.0879 21.0715 15.5117C21.4035 14.9355 21.8592 14.4798 22.4387 14.1445C23.0214 13.806 23.648 13.6367 24.3186 13.6367ZM24.3039 14.9746C23.6398 14.9746 23.0816 15.2057 22.6291 15.668C22.1766 16.1302 21.9504 16.7178 21.9504 17.4307C21.9504 18.2249 22.2352 18.8532 22.8049 19.3154C23.2476 19.6768 23.7554 19.8574 24.3283 19.8574C24.9761 19.8574 25.5279 19.623 25.9836 19.1543C26.4393 18.6855 26.6672 18.1077 26.6672 17.4209C26.6672 16.7373 26.4377 16.1595 25.9787 15.6875C25.5197 15.2122 24.9615 14.9746 24.3039 14.9746Z" fill="#4F4F4F"/>
</svg>
