<svg width="34" height="34" viewBox="0 0 34 34" fill="none" xmlns="http://www.w3.org/2000/svg">
<circle cx="17" cy="17" r="16" stroke="#4F4F4F" stroke-width="2"/>
<path d="M8.46484 8.6875H9.79297V9.22949C10.0957 8.97559 10.3691 8.7998 10.6133 8.70215C10.8607 8.60124 11.113 8.55078 11.3701 8.55078C11.8975 8.55078 12.3451 8.7347 12.7129 9.10254C13.0221 9.41504 13.1768 9.87728 13.1768 10.4893V14H11.8584V11.6709C11.8584 11.0361 11.8291 10.6146 11.7705 10.4062C11.7152 10.1979 11.6159 10.04 11.4727 9.93262C11.3327 9.82194 11.1585 9.7666 10.9502 9.7666C10.68 9.7666 10.4473 9.85775 10.252 10.04C10.0599 10.2191 9.92643 10.4681 9.85156 10.7871C9.8125 10.9531 9.79297 11.3128 9.79297 11.8662V14H8.46484V8.6875ZM16.9658 8.55078C17.4671 8.55078 17.9375 8.67611 18.377 8.92676C18.8197 9.17741 19.1647 9.51758 19.4121 9.94727C19.6595 10.377 19.7832 10.8408 19.7832 11.3389C19.7832 11.8402 19.6579 12.3089 19.4072 12.7451C19.1598 13.1813 18.8213 13.5231 18.3916 13.7705C17.9619 14.0146 17.4883 14.1367 16.9707 14.1367C16.209 14.1367 15.5579 13.8665 15.0176 13.3262C14.4805 12.7826 14.2119 12.1234 14.2119 11.3486C14.2119 10.5186 14.5163 9.82682 15.125 9.27344C15.6589 8.79167 16.2725 8.55078 16.9658 8.55078ZM16.9854 9.80566C16.5719 9.80566 16.2269 9.95052 15.9502 10.2402C15.6768 10.5267 15.54 10.8945 15.54 11.3438C15.54 11.806 15.6751 12.1803 15.9453 12.4668C16.2188 12.7533 16.5638 12.8965 16.9805 12.8965C17.3971 12.8965 17.7438 12.7516 18.0205 12.4619C18.2972 12.1722 18.4355 11.7995 18.4355 11.3438C18.4355 10.888 18.2988 10.5186 18.0254 10.2354C17.7552 9.94889 17.4085 9.80566 16.9854 9.80566ZM20.877 8.6875H22.2051V9.22949C22.5078 8.97559 22.7812 8.7998 23.0254 8.70215C23.2728 8.60124 23.5251 8.55078 23.7822 8.55078C24.3096 8.55078 24.7572 8.7347 25.125 9.10254C25.4342 9.41504 25.5889 9.87728 25.5889 10.4893V14H24.2705V11.6709C24.2705 11.0361 24.2412 10.6146 24.1826 10.4062C24.1273 10.1979 24.028 10.04 23.8848 9.93262C23.7448 9.82194 23.5706 9.7666 23.3623 9.7666C23.0921 9.7666 22.8594 9.85775 22.6641 10.04C22.472 10.2191 22.3385 10.4681 22.2637 10.7871C22.2246 10.9531 22.2051 11.3128 22.2051 11.8662V14H20.877V8.6875ZM5.92578 17.7295H7.25391V19.6875H8.04492V20.835H7.25391V25H5.92578V20.835H5.24219V19.6875H5.92578V17.7295ZM11.2578 19.5508C11.7591 19.5508 12.2295 19.6761 12.6689 19.9268C13.1117 20.1774 13.4567 20.5176 13.7041 20.9473C13.9515 21.377 14.0752 21.8408 14.0752 22.3389C14.0752 22.8402 13.9499 23.3089 13.6992 23.7451C13.4518 24.1813 13.1133 24.5231 12.6836 24.7705C12.2539 25.0146 11.7803 25.1367 11.2627 25.1367C10.501 25.1367 9.84993 24.8665 9.30957 24.3262C8.77246 23.7826 8.50391 23.1234 8.50391 22.3486C8.50391 21.5186 8.80827 20.8268 9.41699 20.2734C9.95085 19.7917 10.5645 19.5508 11.2578 19.5508ZM11.2773 20.8057C10.8639 20.8057 10.5189 20.9505 10.2422 21.2402C9.96875 21.5267 9.83203 21.8945 9.83203 22.3438C9.83203 22.806 9.96712 23.1803 10.2373 23.4668C10.5107 23.7533 10.8558 23.8965 11.2725 23.8965C11.6891 23.8965 12.0358 23.7516 12.3125 23.4619C12.5892 23.1722 12.7275 22.7995 12.7275 22.3438C12.7275 21.888 12.5908 21.5186 12.3174 21.2354C12.0472 20.9489 11.7005 20.8057 11.2773 20.8057ZM14.6904 19.6875H16.2383L17.2783 21.1377L18.333 19.6875H19.8662L18.0498 22.2021L20.0908 25H18.543L17.2783 23.2568L16.0283 25H14.5L16.5117 22.2021L14.6904 19.6875ZM21.2969 17.5C21.5312 17.5 21.7314 17.5846 21.8975 17.7539C22.0667 17.9232 22.1514 18.1283 22.1514 18.3691C22.1514 18.6068 22.0684 18.8102 21.9023 18.9795C21.7363 19.1455 21.5378 19.2285 21.3066 19.2285C21.069 19.2285 20.8656 19.1439 20.6963 18.9746C20.5303 18.8021 20.4473 18.5938 20.4473 18.3496C20.4473 18.1152 20.5303 17.915 20.6963 17.749C20.8623 17.583 21.0625 17.5 21.2969 17.5ZM20.6279 19.6875H21.9658V25H20.6279V19.6875ZM28.377 20.7617L27.2686 21.3721C27.0602 21.154 26.8535 21.0026 26.6484 20.918C26.4466 20.8333 26.209 20.791 25.9355 20.791C25.4375 20.791 25.0339 20.9408 24.7246 21.2402C24.4186 21.5365 24.2656 21.9173 24.2656 22.3828C24.2656 22.8353 24.4137 23.2048 24.71 23.4912C25.0062 23.7777 25.3952 23.9209 25.877 23.9209C26.4727 23.9209 26.9365 23.7174 27.2686 23.3105L28.3184 24.0283C27.7487 24.7673 26.9447 25.1367 25.9062 25.1367C24.972 25.1367 24.2396 24.86 23.709 24.3066C23.1816 23.7533 22.918 23.1055 22.918 22.3633C22.918 21.849 23.0465 21.3753 23.3037 20.9424C23.5609 20.5094 23.9189 20.1693 24.3779 19.9219C24.8402 19.6745 25.3561 19.5508 25.9258 19.5508C26.4531 19.5508 26.9268 19.6566 27.3467 19.8682C27.7666 20.0765 28.11 20.3743 28.377 20.7617Z" fill="#4F4F4F"/>
</svg>
