<svg width="34" height="34" viewBox="0 0 34 34" fill="none" xmlns="http://www.w3.org/2000/svg">
<circle cx="17" cy="17" r="16" stroke="#4F4F4F" stroke-width="2"/>
<path d="M20.901 9.25L23.4991 10.75C24.7981 11.5 24.1358 12.8387 22.2491 12.9151L21.4991 14.2141C22.0509 15.4082 22.4441 15.6628 22.2311 16.9462L16.7311 26.4724C16.2038 26.9916 15.859 27.2 14.4991 26.3385L11.901 24.8385M21.334 9.5L18.736 8C17.4369 7.25 16.6087 8.49291 17.486 10.1651L16.736 11.4641C15.4259 11.5833 15.0088 11.3701 14.0039 12.1962L8.50391 21.7224C8.31793 22.4387 8.30987 22.8415 9.73596 23.5885L12.334 25.0885" stroke="#4F4F4F" stroke-width="2"/>
</svg>
