<svg width="34" height="34" viewBox="0 0 34 34" fill="none" xmlns="http://www.w3.org/2000/svg">
<circle cx="17" cy="17" r="16" stroke="#4F4F4F" stroke-width="2"/>
<path d="M20.5259 6.01419C19.7594 6.10711 19.078 6.64914 18.8535 7.43889L16.2209 16.6686L12.9068 17.6288C12.6706 15.9485 11.2111 14.6245 9.4689 14.6245C7.56413 14.6245 6 16.1885 6 18.0934C6 19.9982 7.56413 21.5622 9.4689 21.5622C10.7465 21.5622 11.8731 20.8382 12.4732 19.7968L15.5704 18.9296L14.7032 22.0268C13.6618 22.6269 12.9378 23.7535 12.9378 25.0311C12.9378 26.9359 14.5019 28.5 16.4066 28.5C18.3115 28.5 19.8755 26.9359 19.8755 25.0311C19.8755 23.2889 18.5515 21.8294 16.8713 21.5932L21.3003 6.07614C21.037 6.00256 20.7815 5.98321 20.5259 6.01419ZM28.4239 13.1997L16.2209 16.6686L15.5704 18.9296L27.0611 15.6466C28.1141 15.3446 28.7258 14.2528 28.4239 13.1997ZM9.4689 16.6067C10.3013 16.6067 10.9556 17.261 10.9556 18.0934C10.9556 18.9257 10.3013 19.58 9.4689 19.58C8.63648 19.58 7.98225 18.9257 7.98225 18.0934C7.98225 17.261 8.63648 16.6067 9.4689 16.6067ZM16.4066 23.5445C17.2391 23.5445 17.8934 24.1988 17.8934 25.0311C17.8934 25.8635 17.2391 26.5178 16.4066 26.5178C15.5743 26.5178 14.92 25.8635 14.92 25.0311C14.92 24.1988 15.5743 23.5445 16.4066 23.5445Z" fill="#4F4F4F"/>
</svg>
