<svg width="162" height="133" viewBox="0 0 162 133" fill="none" xmlns="http://www.w3.org/2000/svg">
<line x1="4.37114e-08" y1="103.5" x2="161" y2="103.5" stroke="#B3904E"/>
<rect x="0.5" y="0.5" width="161" height="132" rx="9.5" stroke="#B3904E"/>
<path d="M24.7688 84.5574C30.3456 84.5573 40.7697 84.557 40.7698 84.557C40.7698 84.557 40.7698 84.557 40.7698 84.557C40.77 84.557 50.6538 84.557 56.3217 84.557M24.7688 84.5574C23.9109 84.5574 23.1677 84.5574 22.5949 84.5574C22.1219 84.5574 21.8545 85.1215 22.0828 85.5294C24.0558 89.0541 21.1603 93.0243 29.9196 100.47C30.0424 100.574 30.1187 100.73 30.1187 100.889V101.455C30.1187 101.756 30.3665 102 30.6723 102L50.8674 102C51.1732 102 51.421 101.756 51.421 101.455V100.889C51.421 100.729 51.4973 100.574 51.6201 100.469C60.3794 93.0239 57.4839 89.0537 59.4569 85.529C59.6852 85.1211 59.4178 84.557 58.9448 84.557C58.2741 84.557 57.37 84.557 56.3217 84.557M24.7688 84.5574C24.7688 84.5574 27.259 74.2004 36.6698 77.7434C49.0595 80.6269 44.7655 76.5286 42.7377 74.903C42.4608 74.681 42.5881 74.2169 42.9416 74.1851C49.6154 73.5848 54.4521 74.9303 56.3217 84.557" stroke="#B3904E" stroke-width="1.3"/>
<path d="M69.2736 94.4038L54.4625 69.4445C54.4163 69.3666 54.3429 69.3071 54.2575 69.2768C49.6931 67.6595 47.2866 66.1307 44.1383 61.1335C44.019 60.9441 44.0868 60.692 44.2852 60.5883L55.6355 54.6552C55.8486 54.5438 56.1107 54.6524 56.1821 54.882C57.5828 59.3811 58.2955 62.105 57.4398 67.8321C57.4288 67.9054 57.4387 67.9818 57.469 68.0494L69.2736 94.4038Z" stroke="#B3904E" stroke-width="1.3"/>
<line x1="40.5306" y1="52.7471" x2="44.1919" y2="59.782" stroke="#B3904E" stroke-width="0.698413" stroke-linecap="round"/>
<line x1="41.5085" y1="52.238" x2="45.1698" y2="59.2729" stroke="#B3904E" stroke-width="0.698413" stroke-linecap="round"/>
<line x1="42.4864" y1="51.7292" x2="46.1477" y2="58.7641" stroke="#B3904E" stroke-width="0.698413" stroke-linecap="round"/>
<line x1="43.4642" y1="51.2202" x2="47.1256" y2="58.2552" stroke="#B3904E" stroke-width="0.698413" stroke-linecap="round"/>
<line x1="44.4422" y1="50.7113" x2="48.1035" y2="57.7462" stroke="#B3904E" stroke-width="0.698413" stroke-linecap="round"/>
<line x1="45.4201" y1="50.2023" x2="49.0814" y2="57.2372" stroke="#B3904E" stroke-width="0.698413" stroke-linecap="round"/>
<line x1="46.398" y1="49.6933" x2="50.0593" y2="56.7282" stroke="#B3904E" stroke-width="0.698413" stroke-linecap="round"/>
<line x1="47.3759" y1="49.1843" x2="51.0372" y2="56.2192" stroke="#B3904E" stroke-width="0.698413" stroke-linecap="round"/>
<line x1="48.3538" y1="48.6753" x2="52.0151" y2="55.7103" stroke="#B3904E" stroke-width="0.698413" stroke-linecap="round"/>
<line x1="49.3317" y1="48.1664" x2="52.993" y2="55.2013" stroke="#B3904E" stroke-width="0.698413" stroke-linecap="round"/>
<line x1="50.3096" y1="47.6574" x2="53.9709" y2="54.6923" stroke="#B3904E" stroke-width="0.698413" stroke-linecap="round"/>
<line x1="51.2875" y1="47.1486" x2="54.9488" y2="54.1836" stroke="#B3904E" stroke-width="0.698413" stroke-linecap="round"/>
<path d="M117.65 46.275H139.35V100.777C139.35 101.093 139.093 101.35 138.777 101.35H118.223C117.907 101.35 117.65 101.093 117.65 100.777V46.275ZM139.35 44.975H117.65V21.2231C117.65 20.9066 117.907 20.65 118.223 20.65H138.777C139.093 20.65 139.35 20.9066 139.35 21.2231V44.975Z" fill="white" stroke="#B3904E" stroke-width="1.3"/>
<path d="M136 94.841L132.752 94.848L135.44 96.458L135.44 96.864L132.794 98.474L136 98.474L136 99.342L131.1 99.342L131.1 98.593L134.348 96.647L131.1 94.736L131.1 93.987L136 93.98L136 94.841ZM132.22 91.3125C132.22 90.7618 132.353 90.3418 132.619 90.0525C132.88 89.7585 133.277 89.6115 133.809 89.6115L136 89.6115L136 90.4375L135.545 90.4375C135.708 90.5448 135.834 90.6988 135.923 90.8995C136.007 91.0955 136.049 91.3335 136.049 91.6135C136.049 91.8935 136.002 92.1385 135.909 92.3485C135.811 92.5585 135.678 92.7218 135.51 92.8385C135.337 92.9505 135.144 93.0065 134.929 93.0065C134.593 93.0065 134.325 92.8828 134.124 92.6355C133.919 92.3835 133.816 91.9891 133.816 91.4525L133.816 90.4865L133.76 90.4865C133.499 90.4865 133.298 90.5658 133.158 90.7245C133.018 90.8785 132.948 91.1095 132.948 91.4175C132.948 91.6275 132.981 91.8351 133.046 92.0405C133.111 92.2411 133.202 92.4115 133.319 92.5515L132.682 92.8945C132.533 92.6985 132.418 92.4628 132.339 92.1875C132.26 91.9121 132.22 91.6205 132.22 91.3125ZM135.412 91.4315C135.412 91.2121 135.363 91.0185 135.265 90.8505C135.162 90.6778 135.018 90.5565 134.831 90.4865L134.397 90.4865L134.397 91.3895C134.397 91.8935 134.563 92.1455 134.894 92.1455C135.053 92.1455 135.179 92.0825 135.272 91.9565C135.365 91.8305 135.412 91.6555 135.412 91.4315ZM136.049 87.3335C136.049 87.6368 136.009 87.9332 135.93 88.2225C135.851 88.5118 135.75 88.7428 135.629 88.9155L134.964 88.5795C135.076 88.4115 135.167 88.2108 135.237 87.9775C135.302 87.7395 135.335 87.5062 135.335 87.2775C135.335 86.7548 135.197 86.4935 134.922 86.4935C134.791 86.4935 134.7 86.5612 134.649 86.6965C134.598 86.8272 134.549 87.0395 134.502 87.3335C134.455 87.6415 134.402 87.8935 134.341 88.0895C134.28 88.2808 134.175 88.4488 134.026 88.5935C133.872 88.7335 133.66 88.8035 133.389 88.8035C133.034 88.8035 132.752 88.6565 132.542 88.3625C132.327 88.0638 132.22 87.6625 132.22 87.1585C132.22 86.9018 132.25 86.6452 132.311 86.3885C132.367 86.1318 132.444 85.9218 132.542 85.7585L133.207 86.0945C133.02 86.4118 132.927 86.7688 132.927 87.1655C132.927 87.4222 132.967 87.6182 133.046 87.7535C133.121 87.8842 133.221 87.9495 133.347 87.9495C133.487 87.9495 133.587 87.8795 133.648 87.7395C133.704 87.5948 133.758 87.3732 133.809 87.0745C133.856 86.7758 133.909 86.5308 133.97 86.3395C134.031 86.1482 134.133 85.9848 134.278 85.8495C134.423 85.7095 134.628 85.6395 134.894 85.6395C135.244 85.6395 135.524 85.7912 135.734 86.0945C135.944 86.3978 136.049 86.8108 136.049 87.3335ZM136.049 83.171C136.049 83.5583 135.967 83.906 135.804 84.214C135.641 84.522 135.414 84.7623 135.125 84.935C134.831 85.1076 134.5 85.194 134.131 85.194C133.762 85.194 133.433 85.1076 133.144 84.935C132.855 84.7623 132.628 84.5243 132.465 84.221C132.302 83.913 132.22 83.563 132.22 83.171C132.22 82.8023 132.295 82.4803 132.444 82.205C132.593 81.925 132.808 81.715 133.088 81.575L133.48 82.247C133.307 82.3543 133.179 82.4896 133.095 82.653C133.006 82.8116 132.962 82.9866 132.962 83.178C132.962 83.5046 133.069 83.7753 133.284 83.99C133.494 84.2046 133.776 84.312 134.131 84.312C134.486 84.312 134.77 84.207 134.985 83.997C135.195 83.7823 135.3 83.5093 135.3 83.178C135.3 82.9866 135.258 82.8116 135.174 82.653C135.085 82.4896 134.955 82.3543 134.782 82.247L135.174 81.575C135.454 81.7196 135.671 81.932 135.825 82.212C135.974 82.4873 136.049 82.807 136.049 83.171ZM132.22 79.3906C132.22 78.8399 132.353 78.4199 132.619 78.1306C132.88 77.8366 133.277 77.6896 133.809 77.6896L136 77.6896L136 78.5156L135.545 78.5156C135.708 78.6229 135.834 78.7769 135.923 78.9776C136.007 79.1736 136.049 79.4116 136.049 79.6916C136.049 79.9716 136.002 80.2166 135.909 80.4266C135.811 80.6366 135.678 80.7999 135.51 80.9166C135.337 81.0286 135.144 81.0846 134.929 81.0846C134.593 81.0846 134.325 80.9609 134.124 80.7136C133.919 80.4616 133.816 80.0672 133.816 79.5306L133.816 78.5646L133.76 78.5646C133.499 78.5646 133.298 78.6439 133.158 78.8026C133.018 78.9566 132.948 79.1876 132.948 79.4956C132.948 79.7056 132.981 79.9132 133.046 80.1186C133.111 80.3192 133.202 80.4896 133.319 80.6296L132.682 80.9726C132.533 80.7766 132.418 80.5409 132.339 80.2656C132.26 79.9902 132.22 79.6986 132.22 79.3906ZM135.412 79.5096C135.412 79.2902 135.363 79.0966 135.265 78.9286C135.162 78.7559 135.018 78.6346 134.831 78.5646L134.397 78.5646L134.397 79.4676C134.397 79.9716 134.563 80.2236 134.894 80.2236C135.053 80.2236 135.179 80.1606 135.272 80.0346C135.365 79.9086 135.412 79.7336 135.412 79.5096ZM132.808 75.7336C132.416 75.4816 132.22 75.0383 132.22 74.4036L133.053 74.4036C133.039 74.4783 133.032 74.546 133.032 74.6066C133.032 74.9473 133.132 75.2133 133.333 75.4046C133.529 75.596 133.814 75.6916 134.187 75.6916L136 75.6916L136 76.5666L132.262 76.5666L132.262 75.7336L132.808 75.7336ZM132.262 73.6614L132.262 72.7864L136 72.7864L136 73.6614L132.262 73.6614ZM131.646 73.2204C131.646 73.379 131.597 73.512 131.499 73.6194C131.396 73.7267 131.27 73.7804 131.121 73.7804C130.972 73.7804 130.848 73.7267 130.75 73.6194C130.647 73.512 130.596 73.379 130.596 73.2204C130.596 73.0617 130.645 72.9287 130.743 72.8214C130.836 72.714 130.955 72.6604 131.1 72.6604C131.254 72.6604 131.385 72.714 131.492 72.8214C131.595 72.924 131.646 73.057 131.646 73.2204ZM130.806 71.6379L130.806 70.7629L136 70.7629L136 71.6379L130.806 71.6379ZM130.806 69.6145L130.806 68.7395L136 68.7395L136 69.6145L130.806 69.6145ZM132.22 66.163C132.22 65.6124 132.353 65.1924 132.619 64.903C132.88 64.609 133.277 64.462 133.809 64.462L136 64.462L136 65.288L135.545 65.288C135.708 65.3954 135.834 65.5494 135.923 65.75C136.007 65.946 136.049 66.184 136.049 66.464C136.049 66.744 136.002 66.989 135.909 67.199C135.811 67.409 135.678 67.5724 135.51 67.689C135.337 67.801 135.144 67.857 134.929 67.857C134.593 67.857 134.325 67.7334 134.124 67.486C133.919 67.234 133.816 66.8397 133.816 66.303L133.816 65.337L133.76 65.337C133.499 65.337 133.298 65.4164 133.158 65.575C133.018 65.729 132.948 65.96 132.948 66.268C132.948 66.478 132.981 66.6857 133.046 66.891C133.111 67.0917 133.202 67.262 133.319 67.402L132.682 67.745C132.533 67.549 132.418 67.3134 132.339 67.038C132.26 66.7627 132.22 66.471 132.22 66.163ZM135.412 66.282C135.412 66.0627 135.363 65.869 135.265 65.701C135.162 65.5284 135.018 65.407 134.831 65.337L134.397 65.337L134.397 66.24C134.397 66.744 134.563 66.996 134.894 66.996C135.053 66.996 135.179 66.933 135.272 66.807C135.365 66.681 135.412 66.506 135.412 66.282Z" fill="#B3904E"/>
<path d="M95.9781 70.9905C99.165 68.9753 98.9737 66 95.9781 66H90.9854H89.9868H84.9942C81.9985 66 81.8072 68.9753 84.9942 70.9905V73.9848C82.8474 75.4984 81.9132 75.5462 81 77.9772V99.9355C81.3936 101.359 81.7818 102.064 84.9942 101.932H89.9868H90.9854H95.9781C99.1904 102.064 99.5786 101.359 99.9722 99.9355V77.9772C99.059 75.5462 98.1248 75.4984 95.9781 73.9848V70.9905Z" fill="white"/>
<path d="M89.9868 66H95.9781C98.9737 66 99.165 68.9753 95.9781 70.9905V73.9848C98.1248 75.4984 99.059 75.5462 99.9722 77.9772V99.9355C99.5786 101.359 99.1904 102.064 95.9781 101.932H89.9868M90.9854 66H84.9942C81.9985 66 81.8072 68.9753 84.9942 70.9905V73.9848C82.8474 75.4984 81.9132 75.5462 81 77.9772V99.9355C81.3936 101.359 81.7818 102.064 84.9942 101.932H90.9854" stroke="#B3904E" stroke-width="1.3"/>
<path d="M82.6551 84.0837H83.5638V88.2077H86.122V88.9766H82.6551V84.0837ZM89.8248 86.8796H88.5876V88.1028H87.8397V86.8796H86.6026V86.1807H87.8397V84.9574H88.5876V86.1807H89.8248V86.8796ZM94.3951 86.4323C94.6653 86.5208 94.8797 86.6699 95.0381 86.8796C95.1965 87.0847 95.2758 87.341 95.2758 87.6485C95.2758 88.0726 95.1127 88.4011 94.7865 88.6341C94.4603 88.8624 93.985 88.9766 93.3606 88.9766H90.9281V84.0837H93.2208C93.7986 84.0837 94.2436 84.1979 94.5558 84.4262C94.868 84.6499 95.0241 84.9598 95.0241 85.3559C95.0241 85.5982 94.9682 85.8125 94.8564 85.9989C94.7445 86.1853 94.5908 86.3298 94.3951 86.4323ZM91.8368 84.7967V86.1457H93.1229C93.4398 86.1457 93.6821 86.0898 93.8498 85.978C94.0223 85.8615 94.1085 85.6937 94.1085 85.4747C94.1085 85.251 94.0223 85.0833 93.8498 84.9714C93.6821 84.8549 93.4398 84.7967 93.1229 84.7967H91.8368ZM93.3046 88.2636C94.0083 88.2636 94.3601 88.0283 94.3601 87.5576C94.3601 87.087 94.0083 86.8517 93.3046 86.8517H91.8368V88.2636H93.3046ZM98.2726 86.1946V86.6909H95.896V86.2995L97.1472 85.2091C97.2917 85.0786 97.3895 84.9738 97.4408 84.8945C97.4967 84.8107 97.5247 84.7268 97.5247 84.6429C97.5247 84.5311 97.4734 84.4402 97.3709 84.3703C97.273 84.3004 97.1239 84.2655 96.9235 84.2655C96.7651 84.2655 96.623 84.2911 96.4972 84.3423C96.3714 84.3936 96.2712 84.4705 96.1966 84.573L95.7563 84.2585C95.8774 84.0954 96.0405 83.9696 96.2455 83.881C96.4506 83.7878 96.6929 83.7412 96.9725 83.7412C97.3406 83.7412 97.6295 83.8204 97.8392 83.9789C98.0489 84.1373 98.1537 84.3447 98.1537 84.601C98.1537 84.7501 98.1165 84.8899 98.0419 85.0204C97.972 85.1508 97.8299 85.3093 97.6155 85.4957L96.8187 86.1946H98.2726Z" fill="#B3904E"/>
</svg>
