<svg width="162" height="133" viewBox="0 0 162 133" fill="none" xmlns="http://www.w3.org/2000/svg">
<line x1="4.37114e-08" y1="103.5" x2="161" y2="103.5" stroke="#B3904E"/>
<path d="M101.174 84.7343C103.125 83.5 103.008 81.6777 101.174 81.6777H98.1157H97.5041H94.4463C92.6116 81.6777 92.4944 83.5 94.4463 84.7343V86.5682C93.1315 87.4952 92.5593 87.5244 92 89.0134V102.462C92.2411 103.334 92.4788 103.766 94.4463 103.685H97.5041H98.1157H101.174C103.141 103.766 103.379 103.334 103.62 102.462V89.0134C103.061 87.5244 102.488 87.4952 101.174 86.5682V84.7343Z" fill="white"/>
<path d="M97.5041 81.6777H101.174C103.008 81.6777 103.125 83.5 101.174 84.7343V86.5682C102.488 87.4952 103.061 87.5244 103.62 89.0134V102.462C103.379 103.334 103.141 103.766 101.174 103.685H97.5041M98.1157 81.6777H94.4463C92.6116 81.6777 92.4944 83.5 94.4463 84.7343V86.5682C93.1315 87.4952 92.5593 87.5244 92 89.0134V102.462C92.2411 103.334 92.4788 103.766 94.4463 103.685H98.1157" stroke="#B3904E" stroke-width="1.3"/>
<path d="M93.014 92.4661H93.5705V94.9919L95.1374 94.9919V95.4628H93.014V92.4661ZM97.4052 94.1785H96.6475V94.9277H96.1894V94.1785H95.4317V93.7504H96.1894V93.0012H96.6475V93.7504H97.4052V94.1785ZM100.204 93.9045C100.37 93.9587 100.501 94.0501 100.598 94.1785C100.695 94.3041 100.744 94.461 100.744 94.6494C100.744 94.9091 100.644 95.1103 100.444 95.253C100.244 95.3929 99.9532 95.4628 99.5707 95.4628H98.0809L98.0809 92.4661H99.4851C99.839 92.4661 100.112 92.536 100.303 92.6759C100.494 92.8129 100.59 93.0027 100.59 93.2452C100.59 93.3937 100.555 93.5249 100.487 93.6391C100.418 93.7533 100.324 93.8417 100.204 93.9045ZM98.6375 92.9028V93.729H99.4252C99.6192 93.729 99.7677 93.6947 99.8704 93.6263C99.976 93.5549 100.029 93.4522 100.029 93.318C100.029 93.181 99.976 93.0783 99.8704 93.0098C99.7677 92.9384 99.6192 92.9028 99.4252 92.9028H98.6375ZM99.5365 95.0261C99.9674 95.0261 100.183 94.882 100.183 94.5938C100.183 94.3055 99.9674 94.1614 99.5365 94.1614H98.6375V95.0261H99.5365ZM102.579 93.759V94.0629H101.124V93.8232L101.89 93.1553C101.978 93.0754 102.038 93.0112 102.07 92.9627C102.104 92.9113 102.121 92.86 102.121 92.8086C102.121 92.7401 102.09 92.6844 102.027 92.6416C101.967 92.5988 101.876 92.5774 101.753 92.5774C101.656 92.5774 101.569 92.5931 101.492 92.6245C101.415 92.6559 101.353 92.703 101.308 92.7658L101.038 92.5731C101.112 92.4732 101.212 92.3962 101.338 92.342C101.463 92.2849 101.612 92.2563 101.783 92.2563C102.008 92.2563 102.185 92.3049 102.314 92.4019C102.442 92.4989 102.506 92.6259 102.506 92.7829C102.506 92.8742 102.484 92.9598 102.438 93.0398C102.395 93.1197 102.308 93.2167 102.177 93.3309L101.689 93.759H102.579Z" fill="#B3904E"/>
<rect x="0.5" y="0.5" width="161" height="132" rx="9.5" stroke="#B3904E"/>
<path d="M66.6 31.0165V101.777C66.6 102.093 66.3434 102.35 66.0269 102.35H49.2231C48.9066 102.35 48.65 102.093 48.65 101.777V31.0165C48.65 30.7 48.9066 30.4434 49.2231 30.4434H50.7144C51.7489 30.4434 52.5875 29.6048 52.5875 28.5702V24.6198C52.5875 24.3033 52.8441 24.0467 53.1606 24.0467H53.7769C54.8114 24.0467 55.65 23.2081 55.65 22.1736V20.0072C55.65 19.165 54.9672 18.4822 54.125 18.4822C54.0007 18.4822 53.9 18.3815 53.9 18.2572V18.185C53.9 18.0348 54.0112 17.9095 54.1567 17.8905C55.2437 17.7484 56.0743 17.6618 57.6164 17.6501C62.2087 17.807 64.6077 18.2619 67.8106 19.6619C67.936 19.7167 67.9958 19.879 67.9122 20.0149C67.854 20.1093 67.7423 20.1564 67.6341 20.132L61.1392 18.6665C60.3503 18.4885 59.6 19.0884 59.6 19.8972V22.1736C59.6 23.2081 60.4386 24.0467 61.4731 24.0467H61.6519C61.9684 24.0467 62.225 24.3033 62.225 24.6198V28.5702C62.225 29.6048 63.0636 30.4434 64.0981 30.4434H66.0269C66.3434 30.4434 66.6 30.7 66.6 31.0165Z" fill="white" stroke="#B3904E" stroke-width="1.3"/>
<path d="M63.0856 96.3372C63.0856 96.7996 63.02 97.2476 62.8887 97.6815C62.7574 98.1096 62.5833 98.4492 62.3664 98.7003L61.5017 98.315C61.6957 98.0696 61.8555 97.7699 61.9811 97.416C62.101 97.0564 62.1609 96.6968 62.1609 96.3372C62.1609 95.892 62.0896 95.5609 61.9469 95.344C61.8042 95.1214 61.6158 95.0101 61.3818 95.0101C61.2105 95.0101 61.0707 95.0729 60.9622 95.1985C60.8481 95.3183 60.7596 95.4725 60.6968 95.6608C60.634 95.8492 60.5627 96.106 60.4828 96.4314C60.3743 96.888 60.2659 97.2591 60.1574 97.5445C60.049 97.8242 59.8806 98.0667 59.6523 98.2722C59.4182 98.472 59.1043 98.5719 58.7104 98.5719C58.3794 98.5719 58.0797 98.4834 57.8114 98.3065C57.5375 98.1238 57.3206 97.8527 57.1607 97.4931C57.0009 97.1278 56.921 96.6826 56.921 96.1574C56.921 95.7921 56.9667 95.4325 57.058 95.0786C57.1493 94.7247 57.2806 94.4193 57.4518 94.1625L58.3166 94.5135C58.1625 94.7761 58.0455 95.0501 57.9656 95.3355C57.8856 95.6209 57.8457 95.8977 57.8457 96.166C57.8457 96.6055 57.9199 96.9337 58.0683 97.1506C58.2167 97.3618 58.4136 97.4674 58.6591 97.4674C58.8303 97.4674 58.9702 97.4075 59.0786 97.2876C59.1871 97.162 59.2727 97.0051 59.3355 96.8167C59.3983 96.6283 59.4696 96.3715 59.5495 96.0461C59.6523 95.6009 59.7607 95.2356 59.8749 94.9502C59.9833 94.6648 60.1517 94.4222 60.38 94.2224C60.6084 94.0169 60.9166 93.9142 61.3047 93.9142C61.6358 93.9142 61.9355 94.0055 62.2037 94.1882C62.472 94.3651 62.6861 94.6362 62.8459 95.0016C63.0057 95.3669 63.0856 95.8121 63.0856 96.3372ZM58.3765 90.319C58.3765 89.7424 58.5449 89.2801 58.8817 88.9319C59.2185 88.5837 59.7179 88.4096 60.38 88.4096L63 88.4096L63 89.4799L60.517 89.4799C60.1175 89.4799 59.8178 89.5741 59.618 89.7624C59.4125 89.9508 59.3098 90.2191 59.3098 90.5672C59.3098 90.9611 59.4297 91.2722 59.6694 91.5005C59.9034 91.7288 60.243 91.843 60.6883 91.843L63 91.843L63 92.9132L56.647 92.9132L56.647 91.843L58.9587 91.843C58.7704 91.666 58.6277 91.4491 58.5306 91.1923C58.4279 90.9297 58.3765 90.6386 58.3765 90.319ZM58.3765 85.3053C58.3765 84.6318 58.5392 84.118 58.8646 83.7642C59.1842 83.4045 59.6694 83.2247 60.3201 83.2247L63 83.2247L63 84.2351L62.4435 84.2351C62.6433 84.3663 62.7974 84.5547 62.9058 84.8002C63.0086 85.0399 63.0599 85.331 63.0599 85.6735C63.0599 86.016 63.0029 86.3156 62.8887 86.5725C62.7688 86.8293 62.6061 87.0291 62.4007 87.1718C62.1895 87.3088 61.9526 87.3773 61.69 87.3773C61.279 87.3773 60.9508 87.226 60.7054 86.9235C60.4542 86.6153 60.3287 86.133 60.3287 85.4765L60.3287 84.295L60.2602 84.295C59.9405 84.295 59.6951 84.392 59.5238 84.5861C59.3526 84.7745 59.267 85.057 59.267 85.4337C59.267 85.6906 59.3069 85.9446 59.3868 86.1958C59.4668 86.4412 59.5781 86.6495 59.7208 86.8208L58.9416 87.2403C58.759 87.0006 58.6191 86.7123 58.5221 86.3756C58.425 86.0388 58.3765 85.682 58.3765 85.3053ZM62.2808 85.4509C62.2808 85.1826 62.2209 84.9457 62.101 84.7402C61.9754 84.529 61.7985 84.3806 61.5701 84.295L61.0393 84.295L61.0393 85.3995C61.0393 86.016 61.2419 86.3242 61.6472 86.3242C61.8413 86.3242 61.9954 86.2471 62.1096 86.093C62.2237 85.9389 62.2808 85.7248 62.2808 85.4509ZM58.3765 76.0804C58.3765 75.5039 58.5449 75.0473 58.8817 74.7105C59.2127 74.3738 59.7122 74.2054 60.38 74.2054L63 74.2054L63 75.2756L60.517 75.2756C60.1175 75.2756 59.8178 75.3641 59.618 75.541C59.4125 75.718 59.3098 75.972 59.3098 76.3031C59.3098 76.6627 59.4297 76.9509 59.6694 77.1678C59.9034 77.3847 60.2402 77.4932 60.6797 77.4932L63 77.4932L63 78.5634L60.517 78.5634C60.1175 78.5634 59.8178 78.6519 59.618 78.8288C59.4125 79.0058 59.3098 79.2598 59.3098 79.5909C59.3098 79.9562 59.4268 80.2473 59.6608 80.4642C59.8949 80.6754 60.2345 80.781 60.6797 80.781L63 80.781L63 81.8512L58.4279 81.8512L58.4279 80.8323L59.0101 80.8323C58.8046 80.6611 58.6477 80.4471 58.5392 80.1902C58.4308 79.9333 58.3765 79.6479 58.3765 79.334C58.3765 78.9915 58.4422 78.689 58.5735 78.4264C58.699 78.1581 58.8874 77.947 59.1385 77.7928C58.8988 77.6045 58.7133 77.3619 58.582 77.0651C58.445 76.7683 58.3765 76.44 58.3765 76.0804ZM58.3765 70.3034C58.3765 69.8582 58.4736 69.4614 58.6676 69.1133C58.8617 68.7594 59.1357 68.4825 59.4896 68.2827C59.8435 68.083 60.2516 67.9831 60.7139 67.9831C61.1763 67.9831 61.5873 68.083 61.9469 68.2827C62.3008 68.4825 62.5748 68.7594 62.7688 69.1133C62.9629 69.4614 63.0599 69.8582 63.0599 70.3034C63.0599 70.9198 62.8544 71.4079 62.4435 71.7675L64.661 71.7675L64.661 72.8377L58.4279 72.8377L58.4279 71.8188L59.0272 71.8188C58.8103 71.6419 58.6477 71.425 58.5392 71.1681C58.4308 70.9056 58.3765 70.6173 58.3765 70.3034ZM62.1438 70.4232C62.1438 70.0294 62.0125 69.7069 61.7499 69.4557C61.4874 69.1989 61.142 69.0705 60.7139 69.0705C60.2858 69.0705 59.9405 69.1989 59.6779 69.4557C59.4154 69.7069 59.2841 70.0294 59.2841 70.4232C59.2841 70.6801 59.344 70.9113 59.4639 71.1168C59.5781 71.3223 59.7436 71.4849 59.9605 71.6048C60.1774 71.7247 60.4285 71.7846 60.7139 71.7846C60.9993 71.7846 61.2505 71.7247 61.4674 71.6048C61.6843 71.4849 61.8527 71.3223 61.9726 71.1168C62.0867 70.9113 62.1438 70.6801 62.1438 70.4232ZM63.0599 64.9132C63.0599 65.3756 62.96 65.7922 62.7603 66.1633C62.5605 66.5343 62.2836 66.8254 61.9298 67.0366C61.5701 67.2421 61.1649 67.3448 60.7139 67.3448C60.263 67.3448 59.8606 67.2421 59.5067 67.0366C59.1528 66.8254 58.876 66.5343 58.6762 66.1633C58.4764 65.7922 58.3765 65.3756 58.3765 64.9132C58.3765 64.4452 58.4764 64.0256 58.6762 63.6546C58.876 63.2836 59.1528 62.9953 59.5067 62.7898C59.8606 62.5786 60.263 62.473 60.7139 62.473C61.1649 62.473 61.5701 62.5786 61.9298 62.7898C62.2836 62.9953 62.5605 63.2836 62.7603 63.6546C62.96 64.0256 63.0599 64.4452 63.0599 64.9132ZM62.1438 64.9132C62.1438 64.5194 62.0125 64.194 61.7499 63.9371C61.4874 63.6803 61.142 63.5519 60.7139 63.5519C60.2858 63.5519 59.9405 63.6803 59.6779 63.9371C59.4154 64.194 59.2841 64.5194 59.2841 64.9132C59.2841 65.3071 59.4154 65.6324 59.6779 65.8893C59.9405 66.1404 60.2858 66.266 60.7139 66.266C61.142 66.266 61.4874 66.1404 61.7499 65.8893C62.0125 65.6324 62.1438 65.3071 62.1438 64.9132ZM63.0599 59.3947C63.0599 59.8571 62.96 60.2738 62.7603 60.6448C62.5605 61.0158 62.2836 61.3069 61.9298 61.5181C61.5701 61.7236 61.1649 61.8263 60.7139 61.8263C60.263 61.8263 59.8606 61.7236 59.5067 61.5181C59.1528 61.3069 58.876 61.0158 58.6762 60.6448C58.4764 60.2738 58.3765 59.8571 58.3765 59.3947C58.3765 58.9267 58.4764 58.5071 58.6762 58.1361C58.876 57.7651 59.1528 57.4769 59.5067 57.2714C59.8606 57.0602 60.263 56.9546 60.7139 56.9546C61.1649 56.9546 61.5701 57.0602 61.9298 57.2714C62.2836 57.4769 62.5605 57.7651 62.7603 58.1361C62.96 58.5071 63.0599 58.9267 63.0599 59.3947ZM62.1438 59.3947C62.1438 59.0009 62.0125 58.6755 61.7499 58.4187C61.4874 58.1618 61.142 58.0334 60.7139 58.0334C60.2858 58.0334 59.9405 58.1618 59.6779 58.4187C59.4154 58.6755 59.2841 59.0009 59.2841 59.3947C59.2841 59.7886 59.4154 60.1139 59.6779 60.3708C59.9405 60.622 60.2858 60.7475 60.7139 60.7475C61.142 60.7475 61.4874 60.622 61.7499 60.3708C62.0125 60.1139 62.1438 59.7886 62.1438 59.3947Z" fill="#B3904E"/>
<path d="M38.6 31.0165V101.777C38.6 102.093 38.3434 102.35 38.0269 102.35H21.2231C20.9066 102.35 20.65 102.093 20.65 101.777V31.0165C20.65 30.7 20.9066 30.4434 21.2231 30.4434H22.7144C23.7489 30.4434 24.5875 29.6048 24.5875 28.5702V24.6198C24.5875 24.3033 24.8441 24.0467 25.1606 24.0467H25.7769C26.8114 24.0467 27.65 23.2081 27.65 22.1736V20.0072C27.65 19.165 26.9672 18.4822 26.125 18.4822C26.0007 18.4822 25.9 18.3815 25.9 18.2572V18.185C25.9 18.0348 26.0112 17.9095 26.1567 17.8905C27.2437 17.7484 28.0743 17.6618 29.6164 17.6501C34.2087 17.807 36.6077 18.2619 39.8106 19.6619C39.936 19.7167 39.9958 19.879 39.9122 20.0149C39.854 20.1093 39.7423 20.1564 39.6341 20.132L33.1392 18.6665C32.3503 18.4885 31.6 19.0884 31.6 19.8972V22.1736C31.6 23.2081 32.4386 24.0467 33.4731 24.0467H33.6519C33.9684 24.0467 34.225 24.3033 34.225 24.6198V28.5702C34.225 29.6048 35.0636 30.4434 36.0981 30.4434H38.0269C38.3434 30.4434 38.6 30.7 38.6 31.0165Z" fill="white" stroke="#B3904E" stroke-width="1.3"/>
<path d="M33.613 94.308L33.613 97.3047L35 97.8955L35 99.0428L29.0066 96.3458L29.0066 95.2499L35 92.5443L35 93.7087L33.613 94.308ZM32.7396 94.6762L30.1197 95.8064L32.7396 96.928L32.7396 94.6762ZM35.0599 89.8289C35.0599 90.3027 34.96 90.7279 34.7603 91.1046C34.5605 91.4814 34.2836 91.7753 33.9298 91.9865C33.5701 92.1977 33.1649 92.3033 32.714 92.3033C32.263 92.3033 31.8606 92.1977 31.5067 91.9865C31.1528 91.7753 30.876 91.4842 30.6762 91.1132C30.4764 90.7365 30.3765 90.3084 30.3765 89.8289C30.3765 89.378 30.4679 88.9841 30.6505 88.6474C30.8332 88.3049 31.0957 88.048 31.4382 87.8768L31.9177 88.6987C31.7065 88.83 31.5495 88.9955 31.4468 89.1953C31.3383 89.3894 31.2841 89.6034 31.2841 89.8375C31.2841 90.237 31.4154 90.5681 31.678 90.8307C31.9348 91.0932 32.2801 91.2245 32.714 91.2245C33.1478 91.2245 33.4959 91.0961 33.7585 90.8392C34.0154 90.5767 34.1438 90.2427 34.1438 89.8375C34.1438 89.6034 34.0924 89.3894 33.9897 89.1953C33.8812 88.9955 33.7214 88.83 33.5102 88.6987L33.9897 87.8768C34.3322 88.0537 34.5976 88.3134 34.7859 88.6559C34.9686 88.9927 35.0599 89.3837 35.0599 89.8289ZM34.7517 84.1447C34.8544 84.2703 34.9315 84.4244 34.9829 84.607C35.0342 84.784 35.0599 84.9723 35.0599 85.1721C35.0599 85.6744 34.9286 86.0626 34.6661 86.3366C34.4035 86.6105 34.0211 86.7475 33.5188 86.7475L31.3183 86.7475L31.3183 87.501L30.4621 87.501L30.4621 86.7475L29.4176 86.7475L29.4176 85.6773L30.4621 85.6773L30.4621 84.4529L31.3183 84.4529L31.3183 85.6773L33.4931 85.6773C33.7157 85.6773 33.8869 85.6231 34.0068 85.5146C34.121 85.4062 34.178 85.2492 34.178 85.0437C34.178 84.804 34.1153 84.6042 33.9897 84.4444L34.7517 84.1447ZM30.4279 83.2643L30.4279 82.194L35 82.194L35 83.2643L30.4279 83.2643ZM29.6744 82.7249C29.6744 82.9189 29.6145 83.0816 29.4946 83.2129C29.3691 83.3442 29.215 83.4098 29.0323 83.4098C28.8496 83.4098 28.6984 83.3442 28.5785 83.2129C28.4529 83.0816 28.3901 82.9189 28.3901 82.7249C28.3901 82.5308 28.4501 82.3681 28.5699 82.2368C28.6841 82.1056 28.8297 82.0399 29.0066 82.0399C29.195 82.0399 29.3548 82.1056 29.4861 82.2368C29.6117 82.3624 29.6744 82.5251 29.6744 82.7249ZM30.4279 76.5083L35 78.469L35 79.5735L30.4279 81.5342L30.4279 80.4212L33.8184 78.9999L30.4279 77.5358L30.4279 76.5083ZM30.3765 74.2349C30.3765 73.5614 30.5392 73.0477 30.8646 72.6938C31.1842 72.3342 31.6694 72.1544 32.3201 72.1544L35 72.1544L35 73.1647L34.4435 73.1647C34.6432 73.296 34.7974 73.4843 34.9058 73.7298C35.0086 73.9695 35.0599 74.2606 35.0599 74.6031C35.0599 74.9456 35.0029 75.2452 34.8887 75.5021C34.7688 75.759 34.6061 75.9587 34.4007 76.1014C34.1895 76.2384 33.9526 76.3069 33.69 76.3069C33.279 76.3069 32.9508 76.1557 32.7054 75.8531C32.4542 75.5449 32.3287 75.0626 32.3287 74.4062L32.3287 73.2246L32.2602 73.2246C31.9405 73.2246 31.6951 73.3217 31.5238 73.5157C31.3526 73.7041 31.267 73.9866 31.267 74.3634C31.267 74.6202 31.3069 74.8742 31.3868 75.1254C31.4668 75.3708 31.5781 75.5792 31.7208 75.7504L30.9416 76.1699C30.759 75.9302 30.6191 75.642 30.5221 75.3052C30.425 74.9684 30.3765 74.6117 30.3765 74.2349ZM34.2808 74.3805C34.2808 74.1122 34.2209 73.8753 34.101 73.6698C33.9754 73.4586 33.7985 73.3102 33.5701 73.2246L33.0393 73.2246L33.0393 74.3291C33.0393 74.9456 33.2419 75.2538 33.6472 75.2538C33.8413 75.2538 33.9954 75.1767 34.1096 75.0226C34.2237 74.8685 34.2808 74.6545 34.2808 74.3805ZM34.7517 68.0324C34.8544 68.158 34.9315 68.3121 34.9829 68.4948C35.0342 68.6717 35.0599 68.8601 35.0599 69.0599C35.0599 69.5622 34.9286 69.9503 34.6661 70.2243C34.4035 70.4983 34.0211 70.6353 33.5188 70.6353L31.3183 70.6353L31.3183 71.3887L30.4621 71.3887L30.4621 70.6353L29.4176 70.6353L29.4176 69.565L30.4621 69.565L30.4621 68.3407L31.3183 68.3407L31.3183 69.565L33.4931 69.565C33.7157 69.565 33.8869 69.5108 34.0068 69.4024C34.121 69.2939 34.178 69.1369 34.178 68.9315C34.178 68.6917 34.1153 68.4919 33.9897 68.3321L34.7517 68.0324ZM35.0599 65.2477C35.0599 65.71 34.96 66.1267 34.7603 66.4977C34.5605 66.8687 34.2836 67.1598 33.9298 67.371C33.5701 67.5765 33.1649 67.6793 32.7139 67.6793C32.263 67.6793 31.8606 67.5765 31.5067 67.371C31.1528 67.1598 30.876 66.8687 30.6762 66.4977C30.4764 66.1267 30.3765 65.71 30.3765 65.2477C30.3765 64.7796 30.4764 64.3601 30.6762 63.989C30.876 63.618 31.1528 63.3298 31.5067 63.1243C31.8606 62.9131 32.263 62.8075 32.7139 62.8075C33.1649 62.8075 33.5701 62.9131 33.9298 63.1243C34.2836 63.3298 34.5605 63.618 34.7603 63.989C34.96 64.3601 35.0599 64.7796 35.0599 65.2477ZM34.1438 65.2477C34.1438 64.8538 34.0125 64.5285 33.7499 64.2716C33.4874 64.0147 33.142 63.8863 32.7139 63.8863C32.2858 63.8863 31.9405 64.0147 31.6779 64.2716C31.4154 64.5285 31.2841 64.8538 31.2841 65.2477C31.2841 65.6415 31.4154 65.9669 31.6779 66.2237C31.9405 66.4749 32.2858 66.6005 32.7139 66.6005C33.142 66.6005 33.4874 66.4749 33.7499 66.2237C34.0125 65.9669 34.1438 65.6415 34.1438 65.2477ZM31.0957 60.7652C30.6163 60.457 30.3765 59.9147 30.3765 59.1384L31.3954 59.1384C31.3783 59.2297 31.3697 59.3125 31.3697 59.3867C31.3697 59.8034 31.4924 60.1288 31.7379 60.3628C31.9776 60.5968 32.3258 60.7138 32.7824 60.7138L35 60.7138L35 61.7841L30.4279 61.7841L30.4279 60.7652L31.0957 60.7652Z" fill="#B3904E"/>
<path d="M117.65 47.275H139.35V101.777C139.35 102.093 139.093 102.35 138.777 102.35H118.223C117.907 102.35 117.65 102.093 117.65 101.777V47.275ZM139.35 45.975H117.65V22.2231C117.65 21.9066 117.907 21.65 118.223 21.65H138.777C139.093 21.65 139.35 21.9066 139.35 22.2231V45.975Z" fill="white" stroke="#B3904E" stroke-width="1.3"/>
<path d="M136 95.841L132.752 95.848L135.44 97.458L135.44 97.864L132.794 99.474L136 99.474L136 100.342L131.1 100.342L131.1 99.593L134.348 97.647L131.1 95.736L131.1 94.987L136 94.98L136 95.841ZM132.22 92.3125C132.22 91.7618 132.353 91.3418 132.619 91.0525C132.88 90.7585 133.277 90.6115 133.809 90.6115L136 90.6115L136 91.4375L135.545 91.4375C135.708 91.5448 135.834 91.6988 135.923 91.8995C136.007 92.0955 136.049 92.3335 136.049 92.6135C136.049 92.8935 136.002 93.1385 135.909 93.3485C135.811 93.5585 135.678 93.7218 135.51 93.8385C135.337 93.9505 135.144 94.0065 134.929 94.0065C134.593 94.0065 134.325 93.8828 134.124 93.6355C133.919 93.3835 133.816 92.9891 133.816 92.4525L133.816 91.4865L133.76 91.4865C133.499 91.4865 133.298 91.5658 133.158 91.7245C133.018 91.8785 132.948 92.1095 132.948 92.4175C132.948 92.6275 132.981 92.8351 133.046 93.0405C133.111 93.2411 133.202 93.4115 133.319 93.5515L132.682 93.8945C132.533 93.6985 132.418 93.4628 132.339 93.1875C132.26 92.9121 132.22 92.6205 132.22 92.3125ZM135.412 92.4315C135.412 92.2121 135.363 92.0185 135.265 91.8505C135.162 91.6778 135.018 91.5565 134.831 91.4865L134.397 91.4865L134.397 92.3895C134.397 92.8935 134.563 93.1455 134.894 93.1455C135.053 93.1455 135.179 93.0825 135.272 92.9565C135.365 92.8305 135.412 92.6555 135.412 92.4315ZM136.049 88.3335C136.049 88.6368 136.009 88.9332 135.93 89.2225C135.851 89.5118 135.75 89.7428 135.629 89.9155L134.964 89.5795C135.076 89.4115 135.167 89.2108 135.237 88.9775C135.302 88.7395 135.335 88.5062 135.335 88.2775C135.335 87.7548 135.197 87.4935 134.922 87.4935C134.791 87.4935 134.7 87.5612 134.649 87.6965C134.598 87.8272 134.549 88.0395 134.502 88.3335C134.455 88.6415 134.402 88.8935 134.341 89.0895C134.28 89.2808 134.175 89.4488 134.026 89.5935C133.872 89.7335 133.66 89.8035 133.389 89.8035C133.034 89.8035 132.752 89.6565 132.542 89.3625C132.327 89.0638 132.22 88.6625 132.22 88.1585C132.22 87.9018 132.25 87.6452 132.311 87.3885C132.367 87.1318 132.444 86.9218 132.542 86.7585L133.207 87.0945C133.02 87.4118 132.927 87.7688 132.927 88.1655C132.927 88.4222 132.967 88.6182 133.046 88.7535C133.121 88.8842 133.221 88.9495 133.347 88.9495C133.487 88.9495 133.587 88.8795 133.648 88.7395C133.704 88.5948 133.758 88.3732 133.809 88.0745C133.856 87.7758 133.909 87.5308 133.97 87.3395C134.031 87.1482 134.133 86.9848 134.278 86.8495C134.423 86.7095 134.628 86.6395 134.894 86.6395C135.244 86.6395 135.524 86.7912 135.734 87.0945C135.944 87.3978 136.049 87.8108 136.049 88.3335ZM136.049 84.171C136.049 84.5583 135.967 84.906 135.804 85.214C135.641 85.522 135.414 85.7623 135.125 85.935C134.831 86.1076 134.5 86.194 134.131 86.194C133.762 86.194 133.433 86.1076 133.144 85.935C132.855 85.7623 132.628 85.5243 132.465 85.221C132.302 84.913 132.22 84.563 132.22 84.171C132.22 83.8023 132.295 83.4803 132.444 83.205C132.593 82.925 132.808 82.715 133.088 82.575L133.48 83.247C133.307 83.3543 133.179 83.4896 133.095 83.653C133.006 83.8116 132.962 83.9866 132.962 84.178C132.962 84.5046 133.069 84.7753 133.284 84.99C133.494 85.2046 133.776 85.312 134.131 85.312C134.486 85.312 134.77 85.207 134.985 84.997C135.195 84.7823 135.3 84.5093 135.3 84.178C135.3 83.9866 135.258 83.8116 135.174 83.653C135.085 83.4896 134.955 83.3543 134.782 83.247L135.174 82.575C135.454 82.7196 135.671 82.932 135.825 83.212C135.974 83.4873 136.049 83.807 136.049 84.171ZM132.22 80.3906C132.22 79.8399 132.353 79.4199 132.619 79.1306C132.88 78.8366 133.277 78.6896 133.809 78.6896L136 78.6896L136 79.5156L135.545 79.5156C135.708 79.6229 135.834 79.7769 135.923 79.9776C136.007 80.1736 136.049 80.4116 136.049 80.6916C136.049 80.9716 136.002 81.2166 135.909 81.4266C135.811 81.6366 135.678 81.7999 135.51 81.9166C135.337 82.0286 135.144 82.0846 134.929 82.0846C134.593 82.0846 134.325 81.9609 134.124 81.7136C133.919 81.4616 133.816 81.0672 133.816 80.5306L133.816 79.5646L133.76 79.5646C133.499 79.5646 133.298 79.6439 133.158 79.8026C133.018 79.9566 132.948 80.1876 132.948 80.4956C132.948 80.7056 132.981 80.9132 133.046 81.1186C133.111 81.3192 133.202 81.4896 133.319 81.6296L132.682 81.9726C132.533 81.7766 132.418 81.5409 132.339 81.2656C132.26 80.9902 132.22 80.6986 132.22 80.3906ZM135.412 80.5096C135.412 80.2902 135.363 80.0966 135.265 79.9286C135.162 79.7559 135.018 79.6346 134.831 79.5646L134.397 79.5646L134.397 80.4676C134.397 80.9716 134.563 81.2236 134.894 81.2236C135.053 81.2236 135.179 81.1606 135.272 81.0346C135.365 80.9086 135.412 80.7336 135.412 80.5096ZM132.808 76.7336C132.416 76.4816 132.22 76.0383 132.22 75.4036L133.053 75.4036C133.039 75.4783 133.032 75.546 133.032 75.6066C133.032 75.9473 133.132 76.2133 133.333 76.4046C133.529 76.596 133.814 76.6916 134.187 76.6916L136 76.6916L136 77.5666L132.262 77.5666L132.262 76.7336L132.808 76.7336ZM132.262 74.6614L132.262 73.7864L136 73.7864L136 74.6614L132.262 74.6614ZM131.646 74.2204C131.646 74.379 131.597 74.512 131.499 74.6194C131.396 74.7267 131.27 74.7804 131.121 74.7804C130.972 74.7804 130.848 74.7267 130.75 74.6194C130.647 74.512 130.596 74.379 130.596 74.2204C130.596 74.0617 130.645 73.9287 130.743 73.8214C130.836 73.714 130.955 73.6604 131.1 73.6604C131.254 73.6604 131.385 73.714 131.492 73.8214C131.595 73.924 131.646 74.057 131.646 74.2204ZM130.806 72.6379L130.806 71.7629L136 71.7629L136 72.6379L130.806 72.6379ZM130.806 70.6145L130.806 69.7395L136 69.7395L136 70.6145L130.806 70.6145ZM132.22 67.163C132.22 66.6124 132.353 66.1924 132.619 65.903C132.88 65.609 133.277 65.462 133.809 65.462L136 65.462L136 66.288L135.545 66.288C135.708 66.3954 135.834 66.5494 135.923 66.75C136.007 66.946 136.049 67.184 136.049 67.464C136.049 67.744 136.002 67.989 135.909 68.199C135.811 68.409 135.678 68.5724 135.51 68.689C135.337 68.801 135.144 68.857 134.929 68.857C134.593 68.857 134.325 68.7334 134.124 68.486C133.919 68.234 133.816 67.8397 133.816 67.303L133.816 66.337L133.76 66.337C133.499 66.337 133.298 66.4164 133.158 66.575C133.018 66.729 132.948 66.96 132.948 67.268C132.948 67.478 132.981 67.6857 133.046 67.891C133.111 68.0917 133.202 68.262 133.319 68.402L132.682 68.745C132.533 68.549 132.418 68.3134 132.339 68.038C132.26 67.7627 132.22 67.471 132.22 67.163ZM135.412 67.282C135.412 67.0627 135.363 66.869 135.265 66.701C135.162 66.5284 135.018 66.407 134.831 66.337L134.397 66.337L134.397 67.24C134.397 67.744 134.563 67.996 134.894 67.996C135.053 67.996 135.179 67.933 135.272 67.807C135.365 67.681 135.412 67.506 135.412 67.282Z" fill="#B3904E"/>
</svg>
