<svg width="162" height="133" viewBox="0 0 162 133" fill="none" xmlns="http://www.w3.org/2000/svg">
<path d="M65.9358 44.48C67.0575 48.0799 69.9809 48.6652 70.7563 45.7717L72.0485 40.9491L72.3069 39.9846L73.5991 35.162C74.3744 32.2685 71.55 31.3136 68.7786 33.8704L65.8864 33.0954C64.98 30.63 65.1756 29.7153 63.0638 28.204L41.8537 22.5208C40.3764 22.5325 39.5956 22.7252 38.8918 25.8622L37.5996 30.6848L37.3411 31.6493L36.0489 36.4719C35.09 39.5405 35.6698 40.0978 36.9434 40.8466L58.1534 46.5298C60.738 46.2769 61.0259 45.3869 63.0435 43.705L65.9358 44.48Z" fill="white"/>
<path d="M72.3069 39.9846L70.7563 45.7717C69.9809 48.6652 67.0575 48.0799 65.9358 44.48L63.0435 43.705C61.0259 45.3869 60.738 46.2769 58.1534 46.5298L36.9434 40.8466C35.6698 40.0978 35.09 39.5405 36.0489 36.4719L37.5996 30.6848M72.0485 40.9491L73.5991 35.162C74.3744 32.2685 71.55 31.3136 68.7786 33.8704L65.8864 33.0954C64.98 30.63 65.1756 29.7153 63.0638 28.204L41.8537 22.5208C40.3764 22.5325 39.5956 22.7252 38.8918 25.8622L37.3411 31.6493" stroke="#B3904E" stroke-width="1.3"/>
<path d="M56.7367 28.2227L56.5015 29.1004L52.5181 28.033L51.856 30.5041L51.1133 30.3051L52.0106 26.9563L56.7367 28.2227ZM52.1804 34.4245L52.5006 33.2295L51.3191 32.9129L51.5127 32.1904L52.6942 32.507L53.0144 31.312L53.6896 31.4929L53.3694 32.6879L54.5509 33.0045L54.3573 33.7269L53.1758 33.4104L52.8556 34.6054L52.1804 34.4245ZM51.4297 38.9548C51.2742 39.1929 51.0747 39.3614 50.8311 39.4601C50.5921 39.5601 50.324 39.5703 50.0269 39.4907C49.6173 39.3809 49.3422 39.1384 49.2016 38.763C49.0655 38.3888 49.0782 37.9002 49.2398 37.297L49.8694 34.9475L54.5955 36.2138L54.0021 38.4283C53.8526 38.9865 53.6271 39.3868 53.3258 39.6292C53.0289 39.8729 52.6892 39.9435 52.3066 39.841C52.0725 39.7783 51.88 39.6688 51.7289 39.5125C51.5778 39.3563 51.478 39.1703 51.4297 38.9548ZM53.6717 36.907L52.3686 36.5578L52.0357 37.8001C51.9537 38.1062 51.945 38.3547 52.0096 38.5457C52.0775 38.7424 52.2172 38.8691 52.4288 38.9258C52.6448 38.9837 52.8292 38.9438 52.9818 38.8062C53.1378 38.6743 53.2568 38.4554 53.3388 38.1493L53.6717 36.907ZM49.943 37.4275C49.7608 38.1072 49.8971 38.5079 50.3517 38.6297C50.8063 38.7515 51.1247 38.4726 51.3068 37.793L51.6867 36.3751L50.3229 36.0097L49.943 37.4275ZM50.6556 42.7617L50.1763 42.6332L50.7914 40.3377L51.1695 40.439L51.8989 41.9297C51.9875 42.103 52.0635 42.2247 52.1267 42.2947C52.1933 42.3704 52.267 42.4191 52.3481 42.4409C52.4561 42.4698 52.5571 42.4438 52.6512 42.3629C52.744 42.2864 52.8164 42.1515 52.8682 41.9579C52.9092 41.8049 52.9213 41.661 52.9043 41.5262C52.8874 41.3914 52.839 41.2747 52.7593 41.1761L53.1771 40.8322C53.3033 40.9914 53.3826 41.1815 53.415 41.4025C53.452 41.6247 53.4343 41.8708 53.3619 42.1408C53.2667 42.4964 53.1154 42.755 52.9081 42.9165C52.7007 43.0781 52.4733 43.1257 52.2258 43.0593C52.0817 43.0208 51.9563 42.9486 51.8496 42.8428C51.7417 42.7415 51.6254 42.5632 51.5008 42.3079L51.0319 41.3573L50.6556 42.7617Z" fill="#B3904E"/>
<path d="M57.7688 86.0574C63.3456 86.0573 73.7697 86.057 73.7698 86.057C73.7698 86.057 73.7698 86.057 73.7698 86.057C73.77 86.057 83.6538 86.057 89.3217 86.057M57.7688 86.0574C56.9109 86.0574 56.1677 86.0574 55.5949 86.0574C55.1219 86.0574 54.8545 86.6215 55.0828 87.0294C57.0558 90.5541 54.1603 94.5243 62.9196 101.97C63.0424 102.074 63.1187 102.23 63.1187 102.389V102.955C63.1187 103.256 63.3665 103.5 63.6723 103.5L83.8674 103.5C84.1732 103.5 84.421 103.256 84.421 102.955V102.389C84.421 102.229 84.4973 102.074 84.6201 101.969C93.3794 94.5239 90.4839 90.5537 92.4569 87.029C92.6852 86.6211 92.4178 86.057 91.9448 86.057C91.2741 86.057 90.37 86.057 89.3217 86.057M57.7688 86.0574C57.7688 86.0574 60.259 75.7004 69.6698 79.2434C82.0595 82.1269 77.7655 78.0286 75.7377 76.403C75.4608 76.181 75.5881 75.7169 75.9416 75.6851C82.6154 75.0848 87.4521 76.4303 89.3217 86.057" stroke="#B3904E" stroke-width="1.3"/>
<line x1="4.37114e-08" y1="103.5" x2="161" y2="103.5" stroke="#B3904E"/>
<path d="M68.3822 61.5C66.8247 58.7744 70.422 52.7133 72.0901 50.1647C72.4674 49.5882 73.2868 49.5945 73.6552 50.1767C75.2712 52.7298 78.7483 58.7678 77.3822 61.5C75.6249 65.0147 70.3822 65 68.3822 61.5Z" stroke="#B3904E" stroke-width="1.3"/>
<rect x="0.5" y="0.5" width="161" height="132" rx="9.5" stroke="#B3904E"/>
<path d="M110.65 46.275H132.35V100.777C132.35 101.093 132.093 101.35 131.777 101.35H111.223C110.907 101.35 110.65 101.093 110.65 100.777V46.275ZM132.35 44.975H110.65V21.2231C110.65 20.9066 110.907 20.65 111.223 20.65H131.777C132.093 20.65 132.35 20.9066 132.35 21.2231V44.975Z" fill="white" stroke="#B3904E" stroke-width="1.3"/>
<path d="M129 94.841L125.752 94.848L128.44 96.458L128.44 96.864L125.794 98.474L129 98.474L129 99.342L124.1 99.342L124.1 98.593L127.348 96.647L124.1 94.736L124.1 93.987L129 93.98L129 94.841ZM125.22 91.3125C125.22 90.7618 125.353 90.3418 125.619 90.0525C125.88 89.7585 126.277 89.6115 126.809 89.6115L129 89.6115L129 90.4375L128.545 90.4375C128.708 90.5448 128.834 90.6988 128.923 90.8995C129.007 91.0955 129.049 91.3335 129.049 91.6135C129.049 91.8935 129.002 92.1385 128.909 92.3485C128.811 92.5585 128.678 92.7218 128.51 92.8385C128.337 92.9505 128.144 93.0065 127.929 93.0065C127.593 93.0065 127.325 92.8828 127.124 92.6355C126.919 92.3835 126.816 91.9891 126.816 91.4525L126.816 90.4865L126.76 90.4865C126.499 90.4865 126.298 90.5658 126.158 90.7245C126.018 90.8785 125.948 91.1095 125.948 91.4175C125.948 91.6275 125.981 91.8351 126.046 92.0405C126.111 92.2411 126.202 92.4115 126.319 92.5515L125.682 92.8945C125.533 92.6985 125.418 92.4628 125.339 92.1875C125.26 91.9121 125.22 91.6205 125.22 91.3125ZM128.412 91.4315C128.412 91.2121 128.363 91.0185 128.265 90.8505C128.162 90.6778 128.018 90.5565 127.831 90.4865L127.397 90.4865L127.397 91.3895C127.397 91.8935 127.563 92.1455 127.894 92.1455C128.053 92.1455 128.179 92.0825 128.272 91.9565C128.365 91.8305 128.412 91.6555 128.412 91.4315ZM129.049 87.3335C129.049 87.6368 129.009 87.9332 128.93 88.2225C128.851 88.5118 128.75 88.7428 128.629 88.9155L127.964 88.5795C128.076 88.4115 128.167 88.2108 128.237 87.9775C128.302 87.7395 128.335 87.5062 128.335 87.2775C128.335 86.7548 128.197 86.4935 127.922 86.4935C127.791 86.4935 127.7 86.5612 127.649 86.6965C127.598 86.8272 127.549 87.0395 127.502 87.3335C127.455 87.6415 127.402 87.8935 127.341 88.0895C127.28 88.2808 127.175 88.4488 127.026 88.5935C126.872 88.7335 126.66 88.8035 126.389 88.8035C126.034 88.8035 125.752 88.6565 125.542 88.3625C125.327 88.0638 125.22 87.6625 125.22 87.1585C125.22 86.9018 125.25 86.6452 125.311 86.3885C125.367 86.1318 125.444 85.9218 125.542 85.7585L126.207 86.0945C126.02 86.4118 125.927 86.7688 125.927 87.1655C125.927 87.4222 125.967 87.6182 126.046 87.7535C126.121 87.8842 126.221 87.9495 126.347 87.9495C126.487 87.9495 126.587 87.8795 126.648 87.7395C126.704 87.5948 126.758 87.3732 126.809 87.0745C126.856 86.7758 126.909 86.5308 126.97 86.3395C127.031 86.1482 127.133 85.9848 127.278 85.8495C127.423 85.7095 127.628 85.6395 127.894 85.6395C128.244 85.6395 128.524 85.7912 128.734 86.0945C128.944 86.3978 129.049 86.8108 129.049 87.3335ZM129.049 83.171C129.049 83.5583 128.967 83.906 128.804 84.214C128.641 84.522 128.414 84.7623 128.125 84.935C127.831 85.1076 127.5 85.194 127.131 85.194C126.762 85.194 126.433 85.1076 126.144 84.935C125.855 84.7623 125.628 84.5243 125.465 84.221C125.302 83.913 125.22 83.563 125.22 83.171C125.22 82.8023 125.295 82.4803 125.444 82.205C125.593 81.925 125.808 81.715 126.088 81.575L126.48 82.247C126.307 82.3543 126.179 82.4896 126.095 82.653C126.006 82.8116 125.962 82.9866 125.962 83.178C125.962 83.5046 126.069 83.7753 126.284 83.99C126.494 84.2046 126.776 84.312 127.131 84.312C127.486 84.312 127.77 84.207 127.985 83.997C128.195 83.7823 128.3 83.5093 128.3 83.178C128.3 82.9866 128.258 82.8116 128.174 82.653C128.085 82.4896 127.955 82.3543 127.782 82.247L128.174 81.575C128.454 81.7196 128.671 81.932 128.825 82.212C128.974 82.4873 129.049 82.807 129.049 83.171ZM125.22 79.3906C125.22 78.8399 125.353 78.4199 125.619 78.1306C125.88 77.8366 126.277 77.6896 126.809 77.6896L129 77.6896L129 78.5156L128.545 78.5156C128.708 78.6229 128.834 78.7769 128.923 78.9776C129.007 79.1736 129.049 79.4116 129.049 79.6916C129.049 79.9716 129.002 80.2166 128.909 80.4266C128.811 80.6366 128.678 80.7999 128.51 80.9166C128.337 81.0286 128.144 81.0846 127.929 81.0846C127.593 81.0846 127.325 80.9609 127.124 80.7136C126.919 80.4616 126.816 80.0672 126.816 79.5306L126.816 78.5646L126.76 78.5646C126.499 78.5646 126.298 78.6439 126.158 78.8026C126.018 78.9566 125.948 79.1876 125.948 79.4956C125.948 79.7056 125.981 79.9132 126.046 80.1186C126.111 80.3192 126.202 80.4896 126.319 80.6296L125.682 80.9726C125.533 80.7766 125.418 80.5409 125.339 80.2656C125.26 79.9902 125.22 79.6986 125.22 79.3906ZM128.412 79.5096C128.412 79.2902 128.363 79.0966 128.265 78.9286C128.162 78.7559 128.018 78.6346 127.831 78.5646L127.397 78.5646L127.397 79.4676C127.397 79.9716 127.563 80.2236 127.894 80.2236C128.053 80.2236 128.179 80.1606 128.272 80.0346C128.365 79.9086 128.412 79.7336 128.412 79.5096ZM125.808 75.7336C125.416 75.4816 125.22 75.0383 125.22 74.4036L126.053 74.4036C126.039 74.4783 126.032 74.546 126.032 74.6066C126.032 74.9473 126.132 75.2133 126.333 75.4046C126.529 75.596 126.814 75.6916 127.187 75.6916L129 75.6916L129 76.5666L125.262 76.5666L125.262 75.7336L125.808 75.7336ZM125.262 73.6614L125.262 72.7864L129 72.7864L129 73.6614L125.262 73.6614ZM124.646 73.2204C124.646 73.379 124.597 73.512 124.499 73.6194C124.396 73.7267 124.27 73.7804 124.121 73.7804C123.972 73.7804 123.848 73.7267 123.75 73.6194C123.647 73.512 123.596 73.379 123.596 73.2204C123.596 73.0617 123.645 72.9287 123.743 72.8214C123.836 72.714 123.955 72.6604 124.1 72.6604C124.254 72.6604 124.385 72.714 124.492 72.8214C124.595 72.924 124.646 73.057 124.646 73.2204ZM123.806 71.6379L123.806 70.7629L129 70.7629L129 71.6379L123.806 71.6379ZM123.806 69.6145L123.806 68.7395L129 68.7395L129 69.6145L123.806 69.6145ZM125.22 66.163C125.22 65.6124 125.353 65.1924 125.619 64.903C125.88 64.609 126.277 64.462 126.809 64.462L129 64.462L129 65.288L128.545 65.288C128.708 65.3954 128.834 65.5494 128.923 65.75C129.007 65.946 129.049 66.184 129.049 66.464C129.049 66.744 129.002 66.989 128.909 67.199C128.811 67.409 128.678 67.5724 128.51 67.689C128.337 67.801 128.144 67.857 127.929 67.857C127.593 67.857 127.325 67.7334 127.124 67.486C126.919 67.234 126.816 66.8397 126.816 66.303L126.816 65.337L126.76 65.337C126.499 65.337 126.298 65.4164 126.158 65.575C126.018 65.729 125.948 65.96 125.948 66.268C125.948 66.478 125.981 66.6857 126.046 66.891C126.111 67.0917 126.202 67.262 126.319 67.402L125.682 67.745C125.533 67.549 125.418 67.3134 125.339 67.038C125.26 66.7627 125.22 66.471 125.22 66.163ZM128.412 66.282C128.412 66.0627 128.363 65.869 128.265 65.701C128.162 65.5284 128.018 65.407 127.831 65.337L127.397 65.337L127.397 66.24C127.397 66.744 127.563 66.996 127.894 66.996C128.053 66.996 128.179 66.933 128.272 66.807C128.365 66.681 128.412 66.506 128.412 66.282Z" fill="#B3904E"/>
</svg>
