<svg width="162" height="133" viewBox="0 0 162 133" fill="none" xmlns="http://www.w3.org/2000/svg">
<path d="M43.9781 71.9905C47.165 69.9753 46.9737 67 43.9781 67H38.9854H37.9868H32.9942C29.9985 67 29.8072 69.9753 32.9942 71.9905V74.9848C30.8474 76.4984 29.9132 76.5462 29 78.9772L29 100.935C29.3936 102.359 29.7818 103.064 32.9942 102.932H37.9868H38.9854H43.9781C47.1904 103.064 47.5786 102.359 47.9722 100.935V78.9772C47.059 76.5462 46.1248 76.4984 43.9781 74.9848V71.9905Z" fill="white"/>
<path d="M37.9868 67H43.9781C46.9737 67 47.165 69.9753 43.9781 71.9905V74.9848C46.1248 76.4984 47.059 76.5462 47.9722 78.9772V100.935C47.5786 102.359 47.1904 103.064 43.9781 102.932H37.9868M38.9854 67H32.9942C29.9985 67 29.8072 69.9753 32.9942 71.9905V74.9848C30.8474 76.4984 29.9132 76.5462 29 78.9772L29 100.935C29.3936 102.359 29.7818 103.064 32.9942 102.932H38.9854" stroke="#B3904E" stroke-width="1.3"/>
<path d="M30.6556 85.0838H31.5642V89.2078H34.1225V89.9767H30.6556V85.0838ZM37.8253 87.8798H36.5881V89.103H35.8402V87.8798H34.603V87.1808H35.8402V85.9576H36.5881V87.1808H37.8253V87.8798ZM42.3955 87.4324C42.6658 87.5209 42.8802 87.6701 43.0386 87.8798C43.197 88.0848 43.2762 88.3411 43.2762 88.6486C43.2762 89.0727 43.1132 89.4012 42.787 89.6342C42.4608 89.8625 41.9855 89.9767 41.3611 89.9767H38.9286V85.0838H41.2213C41.7991 85.0838 42.2441 85.198 42.5563 85.4263C42.8685 85.65 43.0246 85.9599 43.0246 86.356C43.0246 86.5983 42.9687 86.8127 42.8569 86.999C42.745 87.1854 42.5913 87.3299 42.3955 87.4324ZM39.8373 85.7968V87.1458H41.1234C41.4403 87.1458 41.6826 87.0899 41.8503 86.9781C42.0228 86.8616 42.109 86.6938 42.109 86.4748C42.109 86.2511 42.0228 86.0834 41.8503 85.9715C41.6826 85.8551 41.4403 85.7968 41.1234 85.7968H39.8373ZM41.3051 89.2637C42.0088 89.2637 42.3606 89.0284 42.3606 88.5578C42.3606 88.0871 42.0088 87.8518 41.3051 87.8518H39.8373V89.2637H41.3051ZM46.2731 87.1948V87.691H43.8965V87.2996L45.1477 86.2092C45.2922 86.0787 45.39 85.9739 45.4413 85.8947C45.4972 85.8108 45.5252 85.7269 45.5252 85.643C45.5252 85.5312 45.4739 85.4403 45.3714 85.3704C45.2735 85.3005 45.1244 85.2656 44.924 85.2656C44.7656 85.2656 44.6235 85.2912 44.4977 85.3425C44.3718 85.3937 44.2717 85.4706 44.1971 85.5731L43.7567 85.2586C43.8779 85.0955 44.041 84.9697 44.246 84.8811C44.4511 84.7879 44.6934 84.7414 44.973 84.7414C45.3411 84.7414 45.63 84.8206 45.8397 84.979C46.0494 85.1374 46.1542 85.3448 46.1542 85.6011C46.1542 85.7502 46.117 85.89 46.0424 86.0205C45.9725 86.151 45.8304 86.3094 45.616 86.4958L44.8192 87.1948H46.2731Z" fill="#B3904E"/>
<path d="M80.7688 85.5574C86.3456 85.5573 96.7697 85.557 96.7698 85.557C96.7698 85.557 96.7698 85.557 96.7698 85.557C96.77 85.557 106.654 85.557 112.322 85.557M80.7688 85.5574C79.9109 85.5574 79.1677 85.5574 78.5949 85.5574C78.1219 85.5574 77.8545 86.1215 78.0828 86.5294C80.0558 90.0541 77.1603 94.0243 85.9196 101.47C86.0424 101.574 86.1187 101.73 86.1187 101.889V102.455C86.1187 102.756 86.3665 103 86.6723 103L106.867 103C107.173 103 107.421 102.756 107.421 102.455V101.889C107.421 101.729 107.497 101.574 107.62 101.469C116.379 94.0239 113.484 90.0537 115.457 86.529C115.685 86.1211 115.418 85.557 114.945 85.557C114.274 85.557 113.37 85.557 112.322 85.557M80.7688 85.5574C80.7688 85.5574 83.259 75.2004 92.6698 78.7434C105.059 81.6269 100.766 77.5286 98.7377 75.903C98.4608 75.681 98.5881 75.2169 98.9416 75.1851C105.615 74.5848 110.452 75.9303 112.322 85.557" stroke="#B3904E" stroke-width="1.3"/>
<path d="M125.273 95.4038L110.462 70.4445C110.416 70.3666 110.343 70.3071 110.257 70.2768C105.693 68.6595 103.286 67.1307 100.138 62.1335C100.019 61.9441 100.087 61.692 100.285 61.5883L111.635 55.6552C111.848 55.5438 112.11 55.6524 112.182 55.882C113.583 60.3811 114.295 63.105 113.44 68.8321C113.429 68.9054 113.438 68.9818 113.469 69.0494L125.273 95.4038Z" stroke="#B3904E" stroke-width="1.3"/>
<line x1="96.5303" y1="53.7471" x2="100.192" y2="60.782" stroke="#B3904E" stroke-width="0.698413" stroke-linecap="round"/>
<line x1="97.5082" y1="53.238" x2="101.17" y2="60.2729" stroke="#B3904E" stroke-width="0.698413" stroke-linecap="round"/>
<line x1="98.4861" y1="52.7292" x2="102.147" y2="59.7641" stroke="#B3904E" stroke-width="0.698413" stroke-linecap="round"/>
<line x1="99.464" y1="52.2202" x2="103.125" y2="59.2552" stroke="#B3904E" stroke-width="0.698413" stroke-linecap="round"/>
<line x1="100.442" y1="51.7113" x2="104.103" y2="58.7462" stroke="#B3904E" stroke-width="0.698413" stroke-linecap="round"/>
<line x1="101.42" y1="51.2023" x2="105.081" y2="58.2372" stroke="#B3904E" stroke-width="0.698413" stroke-linecap="round"/>
<line x1="102.398" y1="50.6933" x2="106.059" y2="57.7282" stroke="#B3904E" stroke-width="0.698413" stroke-linecap="round"/>
<line x1="103.376" y1="50.1843" x2="107.037" y2="57.2192" stroke="#B3904E" stroke-width="0.698413" stroke-linecap="round"/>
<line x1="104.354" y1="49.6753" x2="108.015" y2="56.7103" stroke="#B3904E" stroke-width="0.698413" stroke-linecap="round"/>
<line x1="105.331" y1="49.1664" x2="108.993" y2="56.2013" stroke="#B3904E" stroke-width="0.698413" stroke-linecap="round"/>
<line x1="106.309" y1="48.6574" x2="109.971" y2="55.6923" stroke="#B3904E" stroke-width="0.698413" stroke-linecap="round"/>
<line x1="107.287" y1="48.1486" x2="110.949" y2="55.1836" stroke="#B3904E" stroke-width="0.698413" stroke-linecap="round"/>
<line x1="4.37114e-08" y1="103.5" x2="161" y2="103.5" stroke="#B3904E"/>
<path d="M14.22 21.1C13.5067 21.1 12.8633 20.9467 12.29 20.64C11.7167 20.3267 11.2667 19.8967 10.94 19.35C10.6133 18.7967 10.45 18.18 10.45 17.5C10.45 16.82 10.6133 16.2067 10.94 15.66C11.2667 15.1067 11.7167 14.6767 12.29 14.37C12.8633 14.0567 13.5067 13.9 14.22 13.9C14.9333 13.9 15.5767 14.0567 16.15 14.37C16.7233 14.6767 17.1733 15.1033 17.5 15.65C17.8267 16.1967 17.99 16.8133 17.99 17.5C17.99 18.1867 17.8267 18.8033 17.5 19.35C17.1733 19.8967 16.7233 20.3267 16.15 20.64C15.5767 20.9467 14.9333 21.1 14.22 21.1ZM14.22 19.96C14.6867 19.96 15.1067 19.8567 15.48 19.65C15.8533 19.4367 16.1467 19.1433 16.36 18.77C16.5733 18.39 16.68 17.9667 16.68 17.5C16.68 17.0333 16.5733 16.6133 16.36 16.24C16.1467 15.86 15.8533 15.5667 15.48 15.36C15.1067 15.1467 14.6867 15.04 14.22 15.04C13.7533 15.04 13.3333 15.1467 12.96 15.36C12.5867 15.5667 12.2933 15.86 12.08 16.24C11.8667 16.6133 11.76 17.0333 11.76 17.5C11.76 17.9667 11.8667 18.39 12.08 18.77C12.2933 19.1433 12.5867 19.4367 12.96 19.65C13.3333 19.8567 13.7533 19.96 14.22 19.96ZM21.7173 21.07C21.1639 21.07 20.6673 20.9533 20.2273 20.72C19.7873 20.4867 19.4439 20.1633 19.1973 19.75C18.9506 19.33 18.8273 18.8567 18.8273 18.33C18.8273 17.8033 18.9506 17.3333 19.1973 16.92C19.4439 16.5067 19.7839 16.1833 20.2173 15.95C20.6573 15.7167 21.1573 15.6 21.7173 15.6C22.2439 15.6 22.7039 15.7067 23.0973 15.92C23.4973 16.1333 23.7973 16.44 23.9973 16.84L23.0373 17.4C22.8839 17.1533 22.6906 16.97 22.4573 16.85C22.2306 16.7233 21.9806 16.66 21.7073 16.66C21.2406 16.66 20.8539 16.8133 20.5473 17.12C20.2406 17.42 20.0873 17.8233 20.0873 18.33C20.0873 18.8367 20.2373 19.2433 20.5373 19.55C20.8439 19.85 21.2339 20 21.7073 20C21.9806 20 22.2306 19.94 22.4573 19.82C22.6906 19.6933 22.8839 19.5067 23.0373 19.26L23.9973 19.82C23.7906 20.22 23.4873 20.53 23.0873 20.75C22.6939 20.9633 22.2373 21.07 21.7173 21.07ZM28.9678 18.22C29.6278 18.42 29.9578 18.8467 29.9578 19.5C29.9578 19.98 29.7778 20.35 29.4178 20.61C29.0578 20.87 28.5245 21 27.8178 21L25.0978 21V15.66H27.7078C28.3611 15.66 28.8711 15.78 29.2378 16.02C29.6045 16.26 29.7878 16.6 29.7878 17.04C29.7878 17.3133 29.7145 17.55 29.5678 17.75C29.4278 17.95 29.2278 18.1067 28.9678 18.22ZM26.2878 17.89H27.5978C28.2445 17.89 28.5678 17.6667 28.5678 17.22C28.5678 16.7867 28.2445 16.57 27.5978 16.57H26.2878V17.89ZM27.7178 20.09C28.4045 20.09 28.7478 19.8667 28.7478 19.42C28.7478 19.1867 28.6678 19.0133 28.5078 18.9C28.3478 18.78 28.0978 18.72 27.7578 18.72L26.2878 18.72V20.09L27.7178 20.09ZM36.2892 18.36C36.2892 18.4467 36.2826 18.57 36.2692 18.73H32.0792C32.1526 19.1233 32.3426 19.4367 32.6492 19.67C32.9626 19.8967 33.3492 20.01 33.8092 20.01C34.3959 20.01 34.8792 19.8167 35.2592 19.43L35.9292 20.2C35.6892 20.4867 35.3859 20.7033 35.0192 20.85C34.6526 20.9967 34.2392 21.07 33.7792 21.07C33.1926 21.07 32.6759 20.9533 32.2292 20.72C31.7826 20.4867 31.4359 20.1633 31.1892 19.75C30.9492 19.33 30.8292 18.8567 30.8292 18.33C30.8292 17.81 30.9459 17.3433 31.1792 16.93C31.4192 16.51 31.7492 16.1833 32.1692 15.95C32.5892 15.7167 33.0626 15.6 33.5892 15.6C34.1092 15.6 34.5726 15.7167 34.9792 15.95C35.3926 16.1767 35.7126 16.5 35.9392 16.92C36.1726 17.3333 36.2892 17.8133 36.2892 18.36ZM33.5892 16.6C33.1892 16.6 32.8492 16.72 32.5692 16.96C32.2959 17.1933 32.1292 17.5067 32.0692 17.9H35.0992C35.0459 17.5133 34.8826 17.2 34.6092 16.96C34.3359 16.72 33.9959 16.6 33.5892 16.6ZM41.6911 16.72L39.8211 16.72V21H38.5711V16.72H36.6911V15.66L41.6911 15.66V16.72ZM47.0765 15.66V21H45.8265V16.72H43.8265L43.7765 17.78C43.7432 18.4867 43.6765 19.08 43.5765 19.56C43.4832 20.0333 43.3198 20.41 43.0865 20.69C42.8598 20.9633 42.5465 21.1 42.1465 21.1C41.9598 21.1 41.7298 21.0633 41.4565 20.99L41.5165 19.94C41.6098 19.96 41.6898 19.97 41.7565 19.97C42.0098 19.97 42.1998 19.87 42.3265 19.67C42.4532 19.4633 42.5332 19.22 42.5665 18.94C42.6065 18.6533 42.6398 18.2467 42.6665 17.72L42.7565 15.66L47.0765 15.66ZM53.7599 18.36C53.7599 18.4467 53.7533 18.57 53.7399 18.73H49.5499C49.6233 19.1233 49.8133 19.4367 50.1199 19.67C50.4333 19.8967 50.8199 20.01 51.2799 20.01C51.8666 20.01 52.3499 19.8167 52.7299 19.43L53.3999 20.2C53.1599 20.4867 52.8566 20.7033 52.4899 20.85C52.1233 20.9967 51.7099 21.07 51.2499 21.07C50.6633 21.07 50.1466 20.9533 49.6999 20.72C49.2533 20.4867 48.9066 20.1633 48.6599 19.75C48.4199 19.33 48.2999 18.8567 48.2999 18.33C48.2999 17.81 48.4166 17.3433 48.6499 16.93C48.8899 16.51 49.2199 16.1833 49.6399 15.95C50.0599 15.7167 50.5333 15.6 51.0599 15.6C51.5799 15.6 52.0433 15.7167 52.4499 15.95C52.8633 16.1767 53.1833 16.5 53.4099 16.92C53.6433 17.3333 53.7599 17.8133 53.7599 18.36ZM51.0599 16.6C50.6599 16.6 50.3199 16.72 50.0399 16.96C49.7666 17.1933 49.5999 17.5067 49.5399 17.9H52.5699C52.5166 17.5133 52.3533 17.2 52.0799 16.96C51.8066 16.72 51.4666 16.6 51.0599 16.6ZM55.1271 15.66H56.3771V17.83H59.0671V15.66H60.3171V21H59.0671V18.89H56.3771V21H55.1271V15.66ZM61.9923 15.66L63.2423 15.66V19.18L66.1923 15.66H67.3323V21H66.0823V17.48L63.1423 21H61.9923V15.66ZM74.0138 18.36C74.0138 18.4467 74.0072 18.57 73.9938 18.73L69.8038 18.73C69.8772 19.1233 70.0672 19.4367 70.3738 19.67C70.6872 19.8967 71.0738 20.01 71.5338 20.01C72.1205 20.01 72.6038 19.8167 72.9838 19.43L73.6538 20.2C73.4138 20.4867 73.1105 20.7033 72.7438 20.85C72.3772 20.9967 71.9638 21.07 71.5038 21.07C70.9172 21.07 70.4005 20.9533 69.9538 20.72C69.5072 20.4867 69.1605 20.1633 68.9138 19.75C68.6738 19.33 68.5538 18.8567 68.5538 18.33C68.5538 17.81 68.6705 17.3433 68.9038 16.93C69.1438 16.51 69.4738 16.1833 69.8938 15.95C70.3138 15.7167 70.7872 15.6 71.3138 15.6C71.8338 15.6 72.2972 15.7167 72.7038 15.95C73.1172 16.1767 73.4372 16.5 73.6638 16.92C73.8972 17.3333 74.0138 17.8133 74.0138 18.36ZM71.3138 16.6C70.9138 16.6 70.5738 16.72 70.2938 16.96C70.0205 17.1933 69.8538 17.5067 69.7938 17.9H72.8238C72.7705 17.5133 72.6072 17.2 72.3338 16.96C72.0605 16.72 71.7205 16.6 71.3138 16.6ZM77.541 12.58H78.661L75.361 22H74.241L77.541 12.58ZM13.22 35.07C12.68 35.07 12.1933 34.9533 11.76 34.72C11.3267 34.4867 10.9867 34.1633 10.74 33.75C10.5 33.33 10.38 32.8567 10.38 32.33C10.38 31.8033 10.5 31.3333 10.74 30.92C10.9867 30.5067 11.3267 30.1833 11.76 29.95C12.1933 29.7167 12.68 29.6 13.22 29.6C13.7667 29.6 14.2567 29.7167 14.69 29.95C15.1233 30.1833 15.46 30.5067 15.7 30.92C15.9467 31.3333 16.07 31.8033 16.07 32.33C16.07 32.8567 15.9467 33.33 15.7 33.75C15.46 34.1633 15.1233 34.4867 14.69 34.72C14.2567 34.9533 13.7667 35.07 13.22 35.07ZM13.22 34C13.68 34 14.06 33.8467 14.36 33.54C14.66 33.2333 14.81 32.83 14.81 32.33C14.81 31.83 14.66 31.4267 14.36 31.12C14.06 30.8133 13.68 30.66 13.22 30.66C12.76 30.66 12.38 30.8133 12.08 31.12C11.7867 31.4267 11.64 31.83 11.64 32.33C11.64 32.83 11.7867 33.2333 12.08 33.54C12.38 33.8467 12.76 34 13.22 34ZM20.1948 29.92C20.7015 29.92 21.1482 30.03 21.5348 30.25C21.9215 30.4633 22.2215 30.7633 22.4348 31.15C22.6548 31.5367 22.7648 31.98 22.7648 32.48C22.7648 32.9933 22.6448 33.45 22.4048 33.85C22.1648 34.2433 21.8282 34.55 21.3948 34.77C20.9615 34.99 20.4682 35.1 19.9148 35.1C18.9882 35.1 18.2715 34.7933 17.7648 34.18C17.2582 33.5667 17.0048 32.6833 17.0048 31.53C17.0048 30.4567 17.2348 29.6067 17.6948 28.98C18.1548 28.3533 18.8582 27.94 19.8048 27.74L22.2848 27.21L22.4648 28.33L20.2148 28.79C19.5682 28.9233 19.0848 29.15 18.7648 29.47C18.4448 29.79 18.2582 30.24 18.2048 30.82C18.4448 30.5333 18.7348 30.3133 19.0748 30.16C19.4148 30 19.7882 29.92 20.1948 29.92ZM19.9448 34.09C20.4048 34.09 20.7748 33.9433 21.0548 33.65C21.3415 33.35 21.4848 32.97 21.4848 32.51C21.4848 32.05 21.3415 31.68 21.0548 31.4C20.7748 31.12 20.4048 30.98 19.9448 30.98C19.4782 30.98 19.1015 31.12 18.8148 31.4C18.5282 31.68 18.3848 32.05 18.3848 32.51C18.3848 32.9767 18.5282 33.3567 18.8148 33.65C19.1082 33.9433 19.4848 34.09 19.9448 34.09ZM28.9748 32.36C28.9748 32.4467 28.9681 32.57 28.9548 32.73H24.7648C24.8381 33.1233 25.0281 33.4367 25.3348 33.67C25.6481 33.8967 26.0348 34.01 26.4948 34.01C27.0814 34.01 27.5648 33.8167 27.9448 33.43L28.6148 34.2C28.3748 34.4867 28.0714 34.7033 27.7048 34.85C27.3381 34.9967 26.9248 35.07 26.4648 35.07C25.8781 35.07 25.3614 34.9533 24.9148 34.72C24.4681 34.4867 24.1214 34.1633 23.8748 33.75C23.6348 33.33 23.5148 32.8567 23.5148 32.33C23.5148 31.81 23.6314 31.3433 23.8648 30.93C24.1048 30.51 24.4348 30.1833 24.8548 29.95C25.2748 29.7167 25.7481 29.6 26.2748 29.6C26.7948 29.6 27.2581 29.7167 27.6648 29.95C28.0781 30.1767 28.3981 30.5 28.6248 30.92C28.8581 31.3333 28.9748 31.8133 28.9748 32.36ZM26.2748 30.6C25.8748 30.6 25.5348 30.72 25.2548 30.96C24.9814 31.1933 24.8148 31.5067 24.7548 31.9H27.7848C27.7314 31.5133 27.5681 31.2 27.2948 30.96C27.0214 30.72 26.6814 30.6 26.2748 30.6ZM32.772 35.07C32.2186 35.07 31.722 34.9533 31.282 34.72C30.842 34.4867 30.4986 34.1633 30.252 33.75C30.0053 33.33 29.882 32.8567 29.882 32.33C29.882 31.8033 30.0053 31.3333 30.252 30.92C30.4986 30.5067 30.8386 30.1833 31.272 29.95C31.712 29.7167 32.212 29.6 32.772 29.6C33.2986 29.6 33.7586 29.7067 34.152 29.92C34.552 30.1333 34.852 30.44 35.052 30.84L34.092 31.4C33.9386 31.1533 33.7453 30.97 33.512 30.85C33.2853 30.7233 33.0353 30.66 32.762 30.66C32.2953 30.66 31.9086 30.8133 31.602 31.12C31.2953 31.42 31.142 31.8233 31.142 32.33C31.142 32.8367 31.292 33.2433 31.592 33.55C31.8986 33.85 32.2886 34 32.762 34C33.0353 34 33.2853 33.94 33.512 33.82C33.7453 33.6933 33.9386 33.5067 34.092 33.26L35.052 33.82C34.8453 34.22 34.542 34.53 34.142 34.75C33.7486 34.9633 33.292 35.07 32.772 35.07ZM42.0125 33.94V36.23H40.8425V35H36.1525V29.66H37.4025V33.94H39.9525V29.66H41.2025V33.94H42.0125ZM46.9952 32.22C47.6552 32.42 47.9852 32.8467 47.9852 33.5C47.9852 33.98 47.8052 34.35 47.4452 34.61C47.0852 34.87 46.5518 35 45.8452 35L43.1252 35L43.1252 29.66L45.7352 29.66C46.3885 29.66 46.8985 29.78 47.2652 30.02C47.6318 30.26 47.8152 30.6 47.8152 31.04C47.8152 31.3133 47.7418 31.55 47.5952 31.75C47.4552 31.95 47.2552 32.1067 46.9952 32.22ZM44.3152 31.89H45.6252C46.2718 31.89 46.5952 31.6667 46.5952 31.22C46.5952 30.7867 46.2718 30.57 45.6252 30.57H44.3152V31.89ZM45.7452 34.09C46.4318 34.09 46.7752 33.8667 46.7752 33.42C46.7752 33.1867 46.6952 33.0133 46.5352 32.9C46.3752 32.78 46.1252 32.72 45.7852 32.72H44.3152V34.09H45.7452ZM54.3166 32.36C54.3166 32.4467 54.3099 32.57 54.2966 32.73H50.1066C50.1799 33.1233 50.3699 33.4367 50.6766 33.67C50.9899 33.8967 51.3766 34.01 51.8366 34.01C52.4232 34.01 52.9066 33.8167 53.2866 33.43L53.9566 34.2C53.7166 34.4867 53.4132 34.7033 53.0466 34.85C52.6799 34.9967 52.2666 35.07 51.8066 35.07C51.2199 35.07 50.7032 34.9533 50.2566 34.72C49.8099 34.4867 49.4632 34.1633 49.2166 33.75C48.9766 33.33 48.8566 32.8567 48.8566 32.33C48.8566 31.81 48.9732 31.3433 49.2066 30.93C49.4466 30.51 49.7766 30.1833 50.1966 29.95C50.6166 29.7167 51.0899 29.6 51.6166 29.6C52.1366 29.6 52.5999 29.7167 53.0066 29.95C53.4199 30.1767 53.7399 30.5 53.9666 30.92C54.1999 31.3333 54.3166 31.8133 54.3166 32.36ZM51.6166 30.6C51.2166 30.6 50.8766 30.72 50.5966 30.96C50.3232 31.1933 50.1566 31.5067 50.0966 31.9H53.1266C53.0732 31.5133 52.9099 31.2 52.6366 30.96C52.3632 30.72 52.0232 30.6 51.6166 30.6ZM60.2138 29.66L60.2138 35H58.9638V32.93C58.4504 33.1767 57.9138 33.3 57.3538 33.3C56.6671 33.3 56.1404 33.1433 55.7738 32.83C55.4071 32.51 55.2238 32.0233 55.2238 31.37V29.66H56.4738V31.29C56.4738 31.63 56.5738 31.8833 56.7738 32.05C56.9738 32.2167 57.2571 32.3 57.6238 32.3C58.0904 32.3 58.5371 32.2 58.9638 32V29.66H60.2138ZM61.8947 29.66H63.1447L63.1447 33.18L66.0947 29.66H67.2347V35H65.9847V31.48L63.0447 35H61.8947L61.8947 29.66ZM72.7862 32.22C73.4462 32.42 73.7762 32.8467 73.7762 33.5C73.7762 33.98 73.5962 34.35 73.2362 34.61C72.8762 34.87 72.3428 35 71.6362 35H68.9162V29.66H71.5262C72.1795 29.66 72.6895 29.78 73.0562 30.02C73.4228 30.26 73.6062 30.6 73.6062 31.04C73.6062 31.3133 73.5328 31.55 73.3862 31.75C73.2462 31.95 73.0462 32.1067 72.7862 32.22ZM70.1062 31.89H71.4162C72.0628 31.89 72.3862 31.6667 72.3862 31.22C72.3862 30.7867 72.0628 30.57 71.4162 30.57H70.1062V31.89ZM71.5362 34.09C72.2228 34.09 72.5662 33.8667 72.5662 33.42C72.5662 33.1867 72.4862 33.0133 72.3262 32.9C72.1662 32.78 71.9162 32.72 71.5762 32.72H70.1062V34.09H71.5362ZM77.0976 29.6C77.8842 29.6 78.4842 29.79 78.8976 30.17C79.3176 30.5433 79.5276 31.11 79.5276 31.87V35H78.3476V34.35C78.1942 34.5833 77.9742 34.7633 77.6876 34.89C77.4076 35.01 77.0676 35.07 76.6676 35.07C76.2676 35.07 75.9176 35.0033 75.6176 34.87C75.3176 34.73 75.0842 34.54 74.9176 34.3C74.7576 34.0533 74.6776 33.7767 74.6776 33.47C74.6776 32.99 74.8542 32.6067 75.2076 32.32C75.5676 32.0267 76.1309 31.88 76.8976 31.88H78.2776V31.8C78.2776 31.4267 78.1642 31.14 77.9376 30.94C77.7176 30.74 77.3876 30.64 76.9476 30.64C76.6476 30.64 76.3509 30.6867 76.0576 30.78C75.7709 30.8733 75.5276 31.0033 75.3276 31.17L74.8376 30.26C75.1176 30.0467 75.4542 29.8833 75.8476 29.77C76.2409 29.6567 76.6576 29.6 77.0976 29.6ZM76.9276 34.16C77.2409 34.16 77.5176 34.09 77.7576 33.95C78.0042 33.8033 78.1776 33.5967 78.2776 33.33V32.71H76.9876C76.2676 32.71 75.9076 32.9467 75.9076 33.42C75.9076 33.6467 75.9976 33.8267 76.1776 33.96C76.3576 34.0933 76.6076 34.16 76.9276 34.16ZM81.0744 29.66H82.3244V31.83H85.0144V29.66H86.2644V35H85.0144V32.89H82.3244V35H81.0744V29.66ZM87.9396 29.66H89.1896V33.18L92.1396 29.66H93.2796V35H92.0296V31.48L89.0896 35H87.9396V29.66ZM99.9611 32.36C99.9611 32.4467 99.9544 32.57 99.9411 32.73H95.7511C95.8244 33.1233 96.0144 33.4367 96.3211 33.67C96.6344 33.8967 97.0211 34.01 97.4811 34.01C98.0678 34.01 98.5511 33.8167 98.9311 33.43L99.6011 34.2C99.3611 34.4867 99.0578 34.7033 98.6911 34.85C98.3244 34.9967 97.9111 35.07 97.4511 35.07C96.8644 35.07 96.3478 34.9533 95.9011 34.72C95.4544 34.4867 95.1078 34.1633 94.8611 33.75C94.6211 33.33 94.5011 32.8567 94.5011 32.33C94.5011 31.81 94.6178 31.3433 94.8511 30.93C95.0911 30.51 95.4211 30.1833 95.8411 29.95C96.2611 29.7167 96.7344 29.6 97.2611 29.6C97.7811 29.6 98.2444 29.7167 98.6511 29.95C99.0644 30.1767 99.3844 30.5 99.6111 30.92C99.8444 31.3333 99.9611 31.8133 99.9611 32.36ZM97.2611 30.6C96.8611 30.6 96.5211 30.72 96.2411 30.96C95.9678 31.1933 95.8011 31.5067 95.7411 31.9H98.7711C98.7178 31.5133 98.5544 31.2 98.2811 30.96C98.0078 30.72 97.6678 30.6 97.2611 30.6Z" fill="#B3904E"/>
<path d="M18.5 41C18.5 40.7239 18.2761 40.5 18 40.5C17.7239 40.5 17.5 40.7239 17.5 41L18.5 41ZM17.6464 85.3536C17.8417 85.5488 18.1583 85.5488 18.3535 85.3536L21.5355 82.1716C21.7308 81.9763 21.7308 81.6597 21.5355 81.4645C21.3403 81.2692 21.0237 81.2692 20.8284 81.4645L18 84.2929L15.1716 81.4645C14.9763 81.2692 14.6597 81.2692 14.4645 81.4645C14.2692 81.6597 14.2692 81.9763 14.4645 82.1716L17.6464 85.3536ZM17.5 41L17.5 85L18.5 85L18.5 41L17.5 41Z" fill="#B3904E"/>
<path d="M54 84.5C53.7239 84.5 53.5 84.7239 53.5 85C53.5 85.2761 53.7239 85.5 54 85.5V84.5ZM72.3536 85.3536C72.5488 85.1583 72.5488 84.8417 72.3536 84.6464L69.1716 81.4645C68.9763 81.2692 68.6597 81.2692 68.4645 81.4645C68.2692 81.6597 68.2692 81.9763 68.4645 82.1716L71.2929 85L68.4645 87.8284C68.2692 88.0237 68.2692 88.3403 68.4645 88.5355C68.6597 88.7308 68.9763 88.7308 69.1716 88.5355L72.3536 85.3536ZM54 85.5H72V84.5H54V85.5Z" fill="#B3904E"/>
<rect x="0.5" y="0.5" width="161" height="132" rx="9.5" stroke="#B3904E"/>
<path d="M130.65 47.275H152.35V101.777C152.35 102.093 152.093 102.35 151.777 102.35H131.223C130.907 102.35 130.65 102.093 130.65 101.777V47.275ZM152.35 45.975H130.65V22.2231C130.65 21.9066 130.907 21.65 131.223 21.65H151.777C152.093 21.65 152.35 21.9066 152.35 22.2231V45.975Z" fill="white" stroke="#B3904E" stroke-width="1.3"/>
<path d="M149 95.841L145.752 95.848L148.44 97.458L148.44 97.864L145.794 99.474L149 99.474L149 100.342L144.1 100.342L144.1 99.593L147.348 97.647L144.1 95.736L144.1 94.987L149 94.98L149 95.841ZM145.22 92.3125C145.22 91.7618 145.353 91.3418 145.619 91.0525C145.88 90.7585 146.277 90.6115 146.809 90.6115L149 90.6115L149 91.4375L148.545 91.4375C148.708 91.5448 148.834 91.6988 148.923 91.8995C149.007 92.0955 149.049 92.3335 149.049 92.6135C149.049 92.8935 149.002 93.1385 148.909 93.3485C148.811 93.5585 148.678 93.7218 148.51 93.8385C148.337 93.9505 148.144 94.0065 147.929 94.0065C147.593 94.0065 147.325 93.8828 147.124 93.6355C146.919 93.3835 146.816 92.9891 146.816 92.4525L146.816 91.4865L146.76 91.4865C146.499 91.4865 146.298 91.5658 146.158 91.7245C146.018 91.8785 145.948 92.1095 145.948 92.4175C145.948 92.6275 145.981 92.8351 146.046 93.0405C146.111 93.2411 146.202 93.4115 146.319 93.5515L145.682 93.8945C145.533 93.6985 145.418 93.4628 145.339 93.1875C145.26 92.9121 145.22 92.6205 145.22 92.3125ZM148.412 92.4315C148.412 92.2121 148.363 92.0185 148.265 91.8505C148.162 91.6778 148.018 91.5565 147.831 91.4865L147.397 91.4865L147.397 92.3895C147.397 92.8935 147.563 93.1455 147.894 93.1455C148.053 93.1455 148.179 93.0825 148.272 92.9565C148.365 92.8305 148.412 92.6555 148.412 92.4315ZM149.049 88.3335C149.049 88.6368 149.009 88.9332 148.93 89.2225C148.851 89.5118 148.75 89.7428 148.629 89.9155L147.964 89.5795C148.076 89.4115 148.167 89.2108 148.237 88.9775C148.302 88.7395 148.335 88.5062 148.335 88.2775C148.335 87.7548 148.197 87.4935 147.922 87.4935C147.791 87.4935 147.7 87.5612 147.649 87.6965C147.598 87.8272 147.549 88.0395 147.502 88.3335C147.455 88.6415 147.402 88.8935 147.341 89.0895C147.28 89.2808 147.175 89.4488 147.026 89.5935C146.872 89.7335 146.66 89.8035 146.389 89.8035C146.034 89.8035 145.752 89.6565 145.542 89.3625C145.327 89.0638 145.22 88.6625 145.22 88.1585C145.22 87.9018 145.25 87.6452 145.311 87.3885C145.367 87.1318 145.444 86.9218 145.542 86.7585L146.207 87.0945C146.02 87.4118 145.927 87.7688 145.927 88.1655C145.927 88.4222 145.967 88.6182 146.046 88.7535C146.121 88.8842 146.221 88.9495 146.347 88.9495C146.487 88.9495 146.587 88.8795 146.648 88.7395C146.704 88.5948 146.758 88.3732 146.809 88.0745C146.856 87.7758 146.909 87.5308 146.97 87.3395C147.031 87.1482 147.133 86.9848 147.278 86.8495C147.423 86.7095 147.628 86.6395 147.894 86.6395C148.244 86.6395 148.524 86.7912 148.734 87.0945C148.944 87.3978 149.049 87.8108 149.049 88.3335ZM149.049 84.171C149.049 84.5583 148.967 84.906 148.804 85.214C148.641 85.522 148.414 85.7623 148.125 85.935C147.831 86.1076 147.5 86.194 147.131 86.194C146.762 86.194 146.433 86.1076 146.144 85.935C145.855 85.7623 145.628 85.5243 145.465 85.221C145.302 84.913 145.22 84.563 145.22 84.171C145.22 83.8023 145.295 83.4803 145.444 83.205C145.593 82.925 145.808 82.715 146.088 82.575L146.48 83.247C146.307 83.3543 146.179 83.4896 146.095 83.653C146.006 83.8116 145.962 83.9866 145.962 84.178C145.962 84.5046 146.069 84.7753 146.284 84.99C146.494 85.2046 146.776 85.312 147.131 85.312C147.486 85.312 147.77 85.207 147.985 84.997C148.195 84.7823 148.3 84.5093 148.3 84.178C148.3 83.9866 148.258 83.8116 148.174 83.653C148.085 83.4896 147.955 83.3543 147.782 83.247L148.174 82.575C148.454 82.7196 148.671 82.932 148.825 83.212C148.974 83.4873 149.049 83.807 149.049 84.171ZM145.22 80.3906C145.22 79.8399 145.353 79.4199 145.619 79.1306C145.88 78.8366 146.277 78.6896 146.809 78.6896L149 78.6896L149 79.5156L148.545 79.5156C148.708 79.6229 148.834 79.7769 148.923 79.9776C149.007 80.1736 149.049 80.4116 149.049 80.6916C149.049 80.9716 149.002 81.2166 148.909 81.4266C148.811 81.6366 148.678 81.7999 148.51 81.9166C148.337 82.0286 148.144 82.0846 147.929 82.0846C147.593 82.0846 147.325 81.9609 147.124 81.7136C146.919 81.4616 146.816 81.0672 146.816 80.5306L146.816 79.5646L146.76 79.5646C146.499 79.5646 146.298 79.6439 146.158 79.8026C146.018 79.9566 145.948 80.1876 145.948 80.4956C145.948 80.7056 145.981 80.9132 146.046 81.1186C146.111 81.3192 146.202 81.4896 146.319 81.6296L145.682 81.9726C145.533 81.7766 145.418 81.5409 145.339 81.2656C145.26 80.9902 145.22 80.6986 145.22 80.3906ZM148.412 80.5096C148.412 80.2902 148.363 80.0966 148.265 79.9286C148.162 79.7559 148.018 79.6346 147.831 79.5646L147.397 79.5646L147.397 80.4676C147.397 80.9716 147.563 81.2236 147.894 81.2236C148.053 81.2236 148.179 81.1606 148.272 81.0346C148.365 80.9086 148.412 80.7336 148.412 80.5096ZM145.808 76.7336C145.416 76.4816 145.22 76.0383 145.22 75.4036L146.053 75.4036C146.039 75.4783 146.032 75.546 146.032 75.6066C146.032 75.9473 146.132 76.2133 146.333 76.4046C146.529 76.596 146.814 76.6916 147.187 76.6916L149 76.6916L149 77.5666L145.262 77.5666L145.262 76.7336L145.808 76.7336ZM145.262 74.6614L145.262 73.7864L149 73.7864L149 74.6614L145.262 74.6614ZM144.646 74.2204C144.646 74.379 144.597 74.512 144.499 74.6194C144.396 74.7267 144.27 74.7804 144.121 74.7804C143.972 74.7804 143.848 74.7267 143.75 74.6194C143.647 74.512 143.596 74.379 143.596 74.2204C143.596 74.0617 143.645 73.9287 143.743 73.8214C143.836 73.714 143.955 73.6604 144.1 73.6604C144.254 73.6604 144.385 73.714 144.492 73.8214C144.595 73.924 144.646 74.057 144.646 74.2204ZM143.806 72.6379L143.806 71.7629L149 71.7629L149 72.6379L143.806 72.6379ZM143.806 70.6145L143.806 69.7395L149 69.7395L149 70.6145L143.806 70.6145ZM145.22 67.163C145.22 66.6124 145.353 66.1924 145.619 65.903C145.88 65.609 146.277 65.462 146.809 65.462L149 65.462L149 66.288L148.545 66.288C148.708 66.3954 148.834 66.5494 148.923 66.75C149.007 66.946 149.049 67.184 149.049 67.464C149.049 67.744 149.002 67.989 148.909 68.199C148.811 68.409 148.678 68.5724 148.51 68.689C148.337 68.801 148.144 68.857 147.929 68.857C147.593 68.857 147.325 68.7334 147.124 68.486C146.919 68.234 146.816 67.8397 146.816 67.303L146.816 66.337L146.76 66.337C146.499 66.337 146.298 66.4164 146.158 66.575C146.018 66.729 145.948 66.96 145.948 67.268C145.948 67.478 145.981 67.6857 146.046 67.891C146.111 68.0917 146.202 68.262 146.319 68.402L145.682 68.745C145.533 68.549 145.418 68.3134 145.339 68.038C145.26 67.7627 145.22 67.471 145.22 67.163ZM148.412 67.282C148.412 67.0627 148.363 66.869 148.265 66.701C148.162 66.5284 148.018 66.407 147.831 66.337L147.397 66.337L147.397 67.24C147.397 67.744 147.563 67.996 147.894 67.996C148.053 67.996 148.179 67.933 148.272 67.807C148.365 67.681 148.412 67.506 148.412 67.282Z" fill="#B3904E"/>
</svg>
