<svg width="162" height="133" viewBox="0 0 162 133" fill="none" xmlns="http://www.w3.org/2000/svg">
<line x1="4.37114e-08" y1="103.5" x2="161" y2="103.5" stroke="#B3904E"/>
<rect x="0.5" y="0.5" width="161" height="132" rx="9.5" stroke="#B3904E"/>
<path d="M83.4211 85.9043C88.807 85.9042 98.8744 85.9039 98.8745 85.9039C98.8745 85.9039 98.8745 85.9039 98.8745 85.9039C98.8747 85.9039 108.42 85.9039 113.894 85.9039M83.4211 85.9043C82.5926 85.9043 81.8748 85.9043 81.3216 85.9043C80.8648 85.9043 80.6066 86.4491 80.8271 86.843C82.7325 90.2471 79.9361 94.0814 88.3956 101.272C88.5142 101.373 88.5879 101.523 88.5879 101.677V102.223C88.5879 102.514 88.8273 102.75 89.1225 102.75L108.627 102.75C108.922 102.75 109.161 102.514 109.161 102.223V101.677C109.161 101.523 109.235 101.372 109.353 101.272C117.813 94.081 115.017 90.2467 116.922 86.8426C117.142 86.4487 116.884 85.9039 116.427 85.9039C115.78 85.9039 114.907 85.9039 113.894 85.9039M83.4211 85.9043C83.4211 85.9043 85.8261 75.9018 94.9148 79.3236C106.88 82.1083 102.733 78.1503 100.775 76.5803C100.508 76.3659 100.631 75.9177 100.972 75.887C107.417 75.3072 112.089 76.6067 113.894 85.9039" stroke="#B3904E" stroke-width="1.3"/>
<path d="M126.403 94.7814L112.098 70.6762C112.054 70.601 111.983 70.5435 111.9 70.5143C107.492 68.9523 105.168 67.4759 102.128 62.6497C102.012 62.4668 102.078 62.2233 102.269 62.1231L113.231 56.3931C113.437 56.2855 113.69 56.3904 113.759 56.6122C115.112 60.9573 115.8 63.5879 114.974 69.119C114.963 69.1898 114.973 69.2636 115.002 69.3289L126.403 94.7814Z" stroke="#B3904E" stroke-width="1.3"/>
<line x1="98.6605" y1="54.5559" x2="102.185" y2="61.3274" stroke="#B3904E" stroke-width="0.7" stroke-linecap="round"/>
<line x1="99.605" y1="54.0642" x2="103.129" y2="60.8358" stroke="#B3904E" stroke-width="0.7" stroke-linecap="round"/>
<line x1="100.549" y1="53.5729" x2="104.074" y2="60.3444" stroke="#B3904E" stroke-width="0.7" stroke-linecap="round"/>
<line x1="101.494" y1="53.0813" x2="105.018" y2="59.8529" stroke="#B3904E" stroke-width="0.7" stroke-linecap="round"/>
<line x1="102.438" y1="52.5898" x2="105.963" y2="59.3613" stroke="#B3904E" stroke-width="0.7" stroke-linecap="round"/>
<line x1="103.383" y1="52.0982" x2="106.907" y2="58.8698" stroke="#B3904E" stroke-width="0.7" stroke-linecap="round"/>
<line x1="104.327" y1="51.6066" x2="107.851" y2="58.3782" stroke="#B3904E" stroke-width="0.7" stroke-linecap="round"/>
<line x1="105.272" y1="51.1151" x2="108.796" y2="57.8867" stroke="#B3904E" stroke-width="0.7" stroke-linecap="round"/>
<line x1="106.216" y1="50.6236" x2="109.74" y2="57.3951" stroke="#B3904E" stroke-width="0.7" stroke-linecap="round"/>
<line x1="107.16" y1="50.132" x2="110.685" y2="56.9036" stroke="#B3904E" stroke-width="0.7" stroke-linecap="round"/>
<line x1="108.105" y1="49.6404" x2="111.629" y2="56.412" stroke="#B3904E" stroke-width="0.7" stroke-linecap="round"/>
<line x1="109.049" y1="49.1491" x2="112.574" y2="55.9206" stroke="#B3904E" stroke-width="0.7" stroke-linecap="round"/>
<path d="M67.5 65.5C67.2239 65.5 67 65.7239 67 66C67 66.2761 67.2239 66.5 67.5 66.5V65.5ZM85.8536 66.3536C86.0488 66.1583 86.0488 65.8417 85.8536 65.6464L82.6716 62.4645C82.4763 62.2692 82.1597 62.2692 81.9645 62.4645C81.7692 62.6597 81.7692 62.9763 81.9645 63.1716L84.7929 66L81.9645 68.8284C81.7692 69.0237 81.7692 69.3403 81.9645 69.5355C82.1597 69.7308 82.4763 69.7308 82.6716 69.5355L85.8536 66.3536ZM67.5 66.5H85.5V65.5H67.5V66.5Z" fill="#B3904E"/>
<path d="M130.65 47.275H152.35V101.777C152.35 102.093 152.093 102.35 151.777 102.35H131.223C130.907 102.35 130.65 102.093 130.65 101.777V47.275ZM152.35 45.975H130.65V22.2231C130.65 21.9066 130.907 21.65 131.223 21.65H151.777C152.093 21.65 152.35 21.9066 152.35 22.2231V45.975Z" fill="white" stroke="#B3904E" stroke-width="1.3"/>
<path d="M149 95.841L145.752 95.848L148.44 97.458L148.44 97.864L145.794 99.474L149 99.474L149 100.342L144.1 100.342L144.1 99.593L147.348 97.647L144.1 95.736L144.1 94.987L149 94.98L149 95.841ZM145.22 92.3125C145.22 91.7618 145.353 91.3418 145.619 91.0525C145.88 90.7585 146.277 90.6115 146.809 90.6115L149 90.6115L149 91.4375L148.545 91.4375C148.708 91.5448 148.834 91.6988 148.923 91.8995C149.007 92.0955 149.049 92.3335 149.049 92.6135C149.049 92.8935 149.002 93.1385 148.909 93.3485C148.811 93.5585 148.678 93.7218 148.51 93.8385C148.337 93.9505 148.144 94.0065 147.929 94.0065C147.593 94.0065 147.325 93.8828 147.124 93.6355C146.919 93.3835 146.816 92.9891 146.816 92.4525L146.816 91.4865L146.76 91.4865C146.499 91.4865 146.298 91.5658 146.158 91.7245C146.018 91.8785 145.948 92.1095 145.948 92.4175C145.948 92.6275 145.981 92.8351 146.046 93.0405C146.111 93.2411 146.202 93.4115 146.319 93.5515L145.682 93.8945C145.533 93.6985 145.418 93.4628 145.339 93.1875C145.26 92.9121 145.22 92.6205 145.22 92.3125ZM148.412 92.4315C148.412 92.2121 148.363 92.0185 148.265 91.8505C148.162 91.6778 148.018 91.5565 147.831 91.4865L147.397 91.4865L147.397 92.3895C147.397 92.8935 147.563 93.1455 147.894 93.1455C148.053 93.1455 148.179 93.0825 148.272 92.9565C148.365 92.8305 148.412 92.6555 148.412 92.4315ZM149.049 88.3335C149.049 88.6368 149.009 88.9332 148.93 89.2225C148.851 89.5118 148.75 89.7428 148.629 89.9155L147.964 89.5795C148.076 89.4115 148.167 89.2108 148.237 88.9775C148.302 88.7395 148.335 88.5062 148.335 88.2775C148.335 87.7548 148.197 87.4935 147.922 87.4935C147.791 87.4935 147.7 87.5612 147.649 87.6965C147.598 87.8272 147.549 88.0395 147.502 88.3335C147.455 88.6415 147.402 88.8935 147.341 89.0895C147.28 89.2808 147.175 89.4488 147.026 89.5935C146.872 89.7335 146.66 89.8035 146.389 89.8035C146.034 89.8035 145.752 89.6565 145.542 89.3625C145.327 89.0638 145.22 88.6625 145.22 88.1585C145.22 87.9018 145.25 87.6452 145.311 87.3885C145.367 87.1318 145.444 86.9218 145.542 86.7585L146.207 87.0945C146.02 87.4118 145.927 87.7688 145.927 88.1655C145.927 88.4222 145.967 88.6182 146.046 88.7535C146.121 88.8842 146.221 88.9495 146.347 88.9495C146.487 88.9495 146.587 88.8795 146.648 88.7395C146.704 88.5948 146.758 88.3732 146.809 88.0745C146.856 87.7758 146.909 87.5308 146.97 87.3395C147.031 87.1482 147.133 86.9848 147.278 86.8495C147.423 86.7095 147.628 86.6395 147.894 86.6395C148.244 86.6395 148.524 86.7912 148.734 87.0945C148.944 87.3978 149.049 87.8108 149.049 88.3335ZM149.049 84.171C149.049 84.5583 148.967 84.906 148.804 85.214C148.641 85.522 148.414 85.7623 148.125 85.935C147.831 86.1076 147.5 86.194 147.131 86.194C146.762 86.194 146.433 86.1076 146.144 85.935C145.855 85.7623 145.628 85.5243 145.465 85.221C145.302 84.913 145.22 84.563 145.22 84.171C145.22 83.8023 145.295 83.4803 145.444 83.205C145.593 82.925 145.808 82.715 146.088 82.575L146.48 83.247C146.307 83.3543 146.179 83.4896 146.095 83.653C146.006 83.8116 145.962 83.9866 145.962 84.178C145.962 84.5046 146.069 84.7753 146.284 84.99C146.494 85.2046 146.776 85.312 147.131 85.312C147.486 85.312 147.77 85.207 147.985 84.997C148.195 84.7823 148.3 84.5093 148.3 84.178C148.3 83.9866 148.258 83.8116 148.174 83.653C148.085 83.4896 147.955 83.3543 147.782 83.247L148.174 82.575C148.454 82.7196 148.671 82.932 148.825 83.212C148.974 83.4873 149.049 83.807 149.049 84.171ZM145.22 80.3906C145.22 79.8399 145.353 79.4199 145.619 79.1306C145.88 78.8366 146.277 78.6896 146.809 78.6896L149 78.6896L149 79.5156L148.545 79.5156C148.708 79.6229 148.834 79.7769 148.923 79.9776C149.007 80.1736 149.049 80.4116 149.049 80.6916C149.049 80.9716 149.002 81.2166 148.909 81.4266C148.811 81.6366 148.678 81.7999 148.51 81.9166C148.337 82.0286 148.144 82.0846 147.929 82.0846C147.593 82.0846 147.325 81.9609 147.124 81.7136C146.919 81.4616 146.816 81.0672 146.816 80.5306L146.816 79.5646L146.76 79.5646C146.499 79.5646 146.298 79.6439 146.158 79.8026C146.018 79.9566 145.948 80.1876 145.948 80.4956C145.948 80.7056 145.981 80.9132 146.046 81.1186C146.111 81.3192 146.202 81.4896 146.319 81.6296L145.682 81.9726C145.533 81.7766 145.418 81.5409 145.339 81.2656C145.26 80.9902 145.22 80.6986 145.22 80.3906ZM148.412 80.5096C148.412 80.2902 148.363 80.0966 148.265 79.9286C148.162 79.7559 148.018 79.6346 147.831 79.5646L147.397 79.5646L147.397 80.4676C147.397 80.9716 147.563 81.2236 147.894 81.2236C148.053 81.2236 148.179 81.1606 148.272 81.0346C148.365 80.9086 148.412 80.7336 148.412 80.5096ZM145.808 76.7336C145.416 76.4816 145.22 76.0383 145.22 75.4036L146.053 75.4036C146.039 75.4783 146.032 75.546 146.032 75.6066C146.032 75.9473 146.132 76.2133 146.333 76.4046C146.529 76.596 146.814 76.6916 147.187 76.6916L149 76.6916L149 77.5666L145.262 77.5666L145.262 76.7336L145.808 76.7336ZM145.262 74.6614L145.262 73.7864L149 73.7864L149 74.6614L145.262 74.6614ZM144.646 74.2204C144.646 74.379 144.597 74.512 144.499 74.6194C144.396 74.7267 144.27 74.7804 144.121 74.7804C143.972 74.7804 143.848 74.7267 143.75 74.6194C143.647 74.512 143.596 74.379 143.596 74.2204C143.596 74.0617 143.645 73.9287 143.743 73.8214C143.836 73.714 143.955 73.6604 144.1 73.6604C144.254 73.6604 144.385 73.714 144.492 73.8214C144.595 73.924 144.646 74.057 144.646 74.2204ZM143.806 72.6379L143.806 71.7629L149 71.7629L149 72.6379L143.806 72.6379ZM143.806 70.6145L143.806 69.7395L149 69.7395L149 70.6145L143.806 70.6145ZM145.22 67.163C145.22 66.6124 145.353 66.1924 145.619 65.903C145.88 65.609 146.277 65.462 146.809 65.462L149 65.462L149 66.288L148.545 66.288C148.708 66.3954 148.834 66.5494 148.923 66.75C149.007 66.946 149.049 67.184 149.049 67.464C149.049 67.744 149.002 67.989 148.909 68.199C148.811 68.409 148.678 68.5724 148.51 68.689C148.337 68.801 148.144 68.857 147.929 68.857C147.593 68.857 147.325 68.7334 147.124 68.486C146.919 68.234 146.816 67.8397 146.816 67.303L146.816 66.337L146.76 66.337C146.499 66.337 146.298 66.4164 146.158 66.575C146.018 66.729 145.948 66.96 145.948 67.268C145.948 67.478 145.981 67.6857 146.046 67.891C146.111 68.0917 146.202 68.262 146.319 68.402L145.682 68.745C145.533 68.549 145.418 68.3134 145.339 68.038C145.26 67.7627 145.22 67.471 145.22 67.163ZM148.412 67.282C148.412 67.0627 148.363 66.869 148.265 66.701C148.162 66.5284 148.018 66.407 147.831 66.337L147.397 66.337L147.397 67.24C147.397 67.744 147.563 67.996 147.894 67.996C148.053 67.996 148.179 67.933 148.272 67.807C148.365 67.681 148.412 67.506 148.412 67.282Z" fill="#B3904E"/>
<path d="M54.6 31.0165V101.777C54.6 102.093 54.3434 102.35 54.0269 102.35H37.2231C36.9066 102.35 36.65 102.093 36.65 101.777V31.0165C36.65 30.7 36.9066 30.4434 37.2231 30.4434H38.7144C39.7489 30.4434 40.5875 29.6048 40.5875 28.5702V24.6198C40.5875 24.3033 40.8441 24.0467 41.1606 24.0467H41.7769C42.8114 24.0467 43.65 23.2081 43.65 22.1736V20.0072C43.65 19.165 42.9672 18.4822 42.125 18.4822C42.0007 18.4822 41.9 18.3815 41.9 18.2572V18.185C41.9 18.0348 42.0112 17.9095 42.1567 17.8905C43.2437 17.7484 44.0743 17.6618 45.6164 17.6501C50.2087 17.807 52.6077 18.2619 55.8106 19.6619C55.936 19.7167 55.9958 19.879 55.9122 20.0149C55.854 20.1093 55.7423 20.1564 55.6341 20.132L49.1392 18.6665C48.3503 18.4885 47.6 19.0884 47.6 19.8972V22.1736C47.6 23.2081 48.4386 24.0467 49.4731 24.0467H49.6519C49.9684 24.0467 50.225 24.3033 50.225 24.6198V28.5702C50.225 29.6048 51.0636 30.4434 52.0981 30.4434H54.0269C54.3434 30.4434 54.6 30.7 54.6 31.0165Z" fill="white" stroke="#B3904E" stroke-width="1.3"/>
<path d="M51.0856 96.3372C51.0856 96.7996 51.02 97.2476 50.8887 97.6815C50.7574 98.1096 50.5833 98.4492 50.3664 98.7003L49.5017 98.315C49.6957 98.0696 49.8555 97.7699 49.9811 97.416C50.101 97.0564 50.1609 96.6968 50.1609 96.3372C50.1609 95.892 50.0896 95.5609 49.9469 95.344C49.8042 95.1214 49.6158 95.0101 49.3818 95.0101C49.2105 95.0101 49.0707 95.0729 48.9622 95.1985C48.8481 95.3183 48.7596 95.4725 48.6968 95.6608C48.634 95.8492 48.5627 96.106 48.4828 96.4314C48.3743 96.888 48.2659 97.2591 48.1574 97.5445C48.049 97.8242 47.8806 98.0667 47.6523 98.2722C47.4182 98.472 47.1043 98.5719 46.7104 98.5719C46.3794 98.5719 46.0797 98.4834 45.8114 98.3065C45.5375 98.1238 45.3206 97.8527 45.1607 97.4931C45.0009 97.1278 44.921 96.6826 44.921 96.1574C44.921 95.7921 44.9667 95.4325 45.058 95.0786C45.1493 94.7247 45.2806 94.4193 45.4518 94.1625L46.3166 94.5135C46.1625 94.7761 46.0455 95.0501 45.9656 95.3355C45.8856 95.6209 45.8457 95.8977 45.8457 96.166C45.8457 96.6055 45.9199 96.9337 46.0683 97.1506C46.2167 97.3618 46.4136 97.4674 46.6591 97.4674C46.8303 97.4674 46.9702 97.4075 47.0786 97.2876C47.1871 97.162 47.2727 97.0051 47.3355 96.8167C47.3983 96.6283 47.4696 96.3715 47.5495 96.0461C47.6523 95.6009 47.7607 95.2356 47.8749 94.9502C47.9833 94.6648 48.1517 94.4222 48.38 94.2224C48.6084 94.0169 48.9166 93.9142 49.3047 93.9142C49.6358 93.9142 49.9355 94.0055 50.2037 94.1882C50.472 94.3651 50.6861 94.6362 50.8459 95.0016C51.0057 95.3669 51.0856 95.8121 51.0856 96.3372ZM46.3765 90.319C46.3765 89.7424 46.5449 89.2801 46.8817 88.9319C47.2185 88.5837 47.7179 88.4096 48.38 88.4096L51 88.4096L51 89.4799L48.517 89.4799C48.1175 89.4799 47.8178 89.5741 47.618 89.7624C47.4125 89.9508 47.3098 90.2191 47.3098 90.5672C47.3098 90.9611 47.4297 91.2722 47.6694 91.5005C47.9034 91.7288 48.243 91.843 48.6883 91.843L51 91.843L51 92.9132L44.647 92.9132L44.647 91.843L46.9587 91.843C46.7704 91.666 46.6277 91.4491 46.5306 91.1923C46.4279 90.9297 46.3765 90.6386 46.3765 90.319ZM46.3765 85.3053C46.3765 84.6318 46.5392 84.118 46.8646 83.7642C47.1842 83.4045 47.6694 83.2247 48.3201 83.2247L51 83.2247L51 84.2351L50.4435 84.2351C50.6433 84.3663 50.7974 84.5547 50.9058 84.8002C51.0086 85.0399 51.0599 85.331 51.0599 85.6735C51.0599 86.016 51.0029 86.3156 50.8887 86.5725C50.7688 86.8293 50.6061 87.0291 50.4007 87.1718C50.1895 87.3088 49.9526 87.3773 49.69 87.3773C49.279 87.3773 48.9508 87.226 48.7054 86.9235C48.4542 86.6153 48.3287 86.133 48.3287 85.4765L48.3287 84.295L48.2602 84.295C47.9405 84.295 47.6951 84.392 47.5238 84.5861C47.3526 84.7745 47.267 85.057 47.267 85.4337C47.267 85.6906 47.3069 85.9446 47.3868 86.1958C47.4668 86.4412 47.5781 86.6495 47.7208 86.8208L46.9416 87.2403C46.759 87.0006 46.6191 86.7123 46.5221 86.3756C46.425 86.0388 46.3765 85.682 46.3765 85.3053ZM50.2808 85.4509C50.2808 85.1826 50.2209 84.9457 50.101 84.7402C49.9754 84.529 49.7985 84.3806 49.5701 84.295L49.0393 84.295L49.0393 85.3995C49.0393 86.016 49.2419 86.3242 49.6472 86.3242C49.8413 86.3242 49.9954 86.2471 50.1096 86.093C50.2237 85.9389 50.2808 85.7248 50.2808 85.4509ZM46.3765 76.0804C46.3765 75.5039 46.5449 75.0473 46.8817 74.7105C47.2127 74.3738 47.7122 74.2054 48.38 74.2054L51 74.2054L51 75.2756L48.517 75.2756C48.1175 75.2756 47.8178 75.3641 47.618 75.541C47.4125 75.718 47.3098 75.972 47.3098 76.3031C47.3098 76.6627 47.4297 76.9509 47.6694 77.1678C47.9034 77.3847 48.2402 77.4932 48.6797 77.4932L51 77.4932L51 78.5634L48.517 78.5634C48.1175 78.5634 47.8178 78.6519 47.618 78.8288C47.4125 79.0058 47.3098 79.2598 47.3098 79.5909C47.3098 79.9562 47.4268 80.2473 47.6608 80.4642C47.8949 80.6754 48.2345 80.781 48.6797 80.781L51 80.781L51 81.8512L46.4279 81.8512L46.4279 80.8323L47.0101 80.8323C46.8046 80.6611 46.6477 80.4471 46.5392 80.1902C46.4308 79.9333 46.3765 79.6479 46.3765 79.334C46.3765 78.9915 46.4422 78.689 46.5735 78.4264C46.699 78.1581 46.8874 77.947 47.1385 77.7928C46.8988 77.6045 46.7133 77.3619 46.582 77.0651C46.445 76.7683 46.3765 76.44 46.3765 76.0804ZM46.3765 70.3034C46.3765 69.8582 46.4736 69.4614 46.6676 69.1133C46.8617 68.7594 47.1357 68.4825 47.4896 68.2827C47.8435 68.083 48.2516 67.9831 48.7139 67.9831C49.1763 67.9831 49.5873 68.083 49.9469 68.2827C50.3008 68.4825 50.5748 68.7594 50.7688 69.1133C50.9629 69.4614 51.0599 69.8582 51.0599 70.3034C51.0599 70.9198 50.8544 71.4079 50.4435 71.7675L52.661 71.7675L52.661 72.8377L46.4279 72.8377L46.4279 71.8188L47.0272 71.8188C46.8103 71.6419 46.6477 71.425 46.5392 71.1681C46.4308 70.9056 46.3765 70.6173 46.3765 70.3034ZM50.1438 70.4232C50.1438 70.0294 50.0125 69.7069 49.7499 69.4557C49.4874 69.1989 49.142 69.0705 48.7139 69.0705C48.2858 69.0705 47.9405 69.1989 47.6779 69.4557C47.4154 69.7069 47.2841 70.0294 47.2841 70.4232C47.2841 70.6801 47.344 70.9113 47.4639 71.1168C47.5781 71.3223 47.7436 71.4849 47.9605 71.6048C48.1774 71.7247 48.4285 71.7846 48.7139 71.7846C48.9993 71.7846 49.2505 71.7247 49.4674 71.6048C49.6843 71.4849 49.8527 71.3223 49.9726 71.1168C50.0867 70.9113 50.1438 70.6801 50.1438 70.4232ZM51.0599 64.9132C51.0599 65.3756 50.96 65.7922 50.7603 66.1633C50.5605 66.5343 50.2836 66.8254 49.9298 67.0366C49.5701 67.2421 49.1649 67.3448 48.7139 67.3448C48.263 67.3448 47.8606 67.2421 47.5067 67.0366C47.1528 66.8254 46.876 66.5343 46.6762 66.1633C46.4764 65.7922 46.3765 65.3756 46.3765 64.9132C46.3765 64.4452 46.4764 64.0256 46.6762 63.6546C46.876 63.2836 47.1528 62.9953 47.5067 62.7898C47.8606 62.5786 48.263 62.473 48.7139 62.473C49.1649 62.473 49.5701 62.5786 49.9298 62.7898C50.2836 62.9953 50.5605 63.2836 50.7603 63.6546C50.96 64.0256 51.0599 64.4452 51.0599 64.9132ZM50.1438 64.9132C50.1438 64.5194 50.0125 64.194 49.7499 63.9371C49.4874 63.6803 49.142 63.5519 48.7139 63.5519C48.2858 63.5519 47.9405 63.6803 47.6779 63.9371C47.4154 64.194 47.2841 64.5194 47.2841 64.9132C47.2841 65.3071 47.4154 65.6324 47.6779 65.8893C47.9405 66.1404 48.2858 66.266 48.7139 66.266C49.142 66.266 49.4874 66.1404 49.7499 65.8893C50.0125 65.6324 50.1438 65.3071 50.1438 64.9132ZM51.0599 59.3947C51.0599 59.8571 50.96 60.2738 50.7603 60.6448C50.5605 61.0158 50.2836 61.3069 49.9298 61.5181C49.5701 61.7236 49.1649 61.8263 48.7139 61.8263C48.263 61.8263 47.8606 61.7236 47.5067 61.5181C47.1528 61.3069 46.876 61.0158 46.6762 60.6448C46.4764 60.2738 46.3765 59.8571 46.3765 59.3947C46.3765 58.9267 46.4764 58.5071 46.6762 58.1361C46.876 57.7651 47.1528 57.4769 47.5067 57.2714C47.8606 57.0602 48.263 56.9546 48.7139 56.9546C49.1649 56.9546 49.5701 57.0602 49.9298 57.2714C50.2836 57.4769 50.5605 57.7651 50.7603 58.1361C50.96 58.5071 51.0599 58.9267 51.0599 59.3947ZM50.1438 59.3947C50.1438 59.0009 50.0125 58.6755 49.7499 58.4187C49.4874 58.1618 49.142 58.0334 48.7139 58.0334C48.2858 58.0334 47.9405 58.1618 47.6779 58.4187C47.4154 58.6755 47.2841 59.0009 47.2841 59.3947C47.2841 59.7886 47.4154 60.1139 47.6779 60.3708C47.9405 60.622 48.2858 60.7475 48.7139 60.7475C49.142 60.7475 49.4874 60.622 49.7499 60.3708C50.0125 60.1139 50.1438 59.7886 50.1438 59.3947Z" fill="#B3904E"/>
<path d="M26.6 31.0165V101.777C26.6 102.093 26.3434 102.35 26.0269 102.35H9.22314C8.9066 102.35 8.65 102.093 8.65 101.777V31.0165C8.65 30.7 8.9066 30.4434 9.22314 30.4434H10.7144C11.7489 30.4434 12.5875 29.6048 12.5875 28.5702V24.6198C12.5875 24.3033 12.8441 24.0467 13.1606 24.0467H13.7769C14.8114 24.0467 15.65 23.2081 15.65 22.1736V20.0072C15.65 19.165 14.9672 18.4822 14.125 18.4822C14.0007 18.4822 13.9 18.3815 13.9 18.2572V18.185C13.9 18.0348 14.0112 17.9095 14.1567 17.8905C15.2437 17.7484 16.0743 17.6618 17.6164 17.6501C22.2087 17.807 24.6077 18.2619 27.8106 19.6619C27.936 19.7167 27.9958 19.879 27.9122 20.0149C27.854 20.1093 27.7423 20.1564 27.6341 20.132L21.1392 18.6665C20.3503 18.4885 19.6 19.0884 19.6 19.8972V22.1736C19.6 23.2081 20.4386 24.0467 21.4731 24.0467H21.6519C21.9684 24.0467 22.225 24.3033 22.225 24.6198V28.5702C22.225 29.6048 23.0636 30.4434 24.0981 30.4434H26.0269C26.3434 30.4434 26.6 30.7 26.6 31.0165Z" fill="white" stroke="#B3904E" stroke-width="1.3"/>
<path d="M21.613 94.308L21.613 97.3047L23 97.8955L23 99.0428L17.0066 96.3458L17.0066 95.2499L23 92.5443L23 93.7087L21.613 94.308ZM20.7396 94.6762L18.1197 95.8064L20.7396 96.928L20.7396 94.6762ZM23.0599 89.8289C23.0599 90.3027 22.96 90.7279 22.7603 91.1046C22.5605 91.4814 22.2836 91.7753 21.9298 91.9865C21.5701 92.1977 21.1649 92.3033 20.714 92.3033C20.263 92.3033 19.8606 92.1977 19.5067 91.9865C19.1528 91.7753 18.876 91.4842 18.6762 91.1132C18.4764 90.7365 18.3765 90.3084 18.3765 89.8289C18.3765 89.378 18.4679 88.9841 18.6505 88.6474C18.8332 88.3049 19.0957 88.048 19.4382 87.8768L19.9177 88.6987C19.7065 88.83 19.5495 88.9955 19.4468 89.1953C19.3383 89.3894 19.2841 89.6034 19.2841 89.8375C19.2841 90.237 19.4154 90.5681 19.678 90.8307C19.9348 91.0932 20.2801 91.2245 20.714 91.2245C21.1478 91.2245 21.4959 91.0961 21.7585 90.8392C22.0154 90.5767 22.1438 90.2427 22.1438 89.8375C22.1438 89.6034 22.0924 89.3894 21.9897 89.1953C21.8812 88.9955 21.7214 88.83 21.5102 88.6987L21.9897 87.8768C22.3322 88.0537 22.5976 88.3134 22.7859 88.6559C22.9686 88.9927 23.0599 89.3837 23.0599 89.8289ZM22.7517 84.1447C22.8544 84.2703 22.9315 84.4244 22.9829 84.607C23.0342 84.784 23.0599 84.9723 23.0599 85.1721C23.0599 85.6744 22.9286 86.0626 22.6661 86.3366C22.4035 86.6105 22.0211 86.7475 21.5188 86.7475L19.3183 86.7475L19.3183 87.501L18.4621 87.501L18.4621 86.7475L17.4176 86.7475L17.4176 85.6773L18.4621 85.6773L18.4621 84.4529L19.3183 84.4529L19.3183 85.6773L21.4931 85.6773C21.7157 85.6773 21.8869 85.6231 22.0068 85.5146C22.121 85.4062 22.178 85.2492 22.178 85.0437C22.178 84.804 22.1153 84.6042 21.9897 84.4444L22.7517 84.1447ZM18.4279 83.2643L18.4279 82.194L23 82.194L23 83.2643L18.4279 83.2643ZM17.6744 82.7249C17.6744 82.9189 17.6145 83.0816 17.4946 83.2129C17.3691 83.3442 17.215 83.4098 17.0323 83.4098C16.8496 83.4098 16.6984 83.3442 16.5785 83.2129C16.4529 83.0816 16.3901 82.9189 16.3901 82.7249C16.3901 82.5308 16.4501 82.3681 16.5699 82.2368C16.6841 82.1056 16.8297 82.0399 17.0066 82.0399C17.195 82.0399 17.3548 82.1056 17.4861 82.2368C17.6117 82.3624 17.6744 82.5251 17.6744 82.7249ZM18.4279 76.5083L23 78.469L23 79.5735L18.4279 81.5342L18.4279 80.4212L21.8184 78.9999L18.4279 77.5358L18.4279 76.5083ZM18.3765 74.2349C18.3765 73.5614 18.5392 73.0477 18.8646 72.6938C19.1842 72.3342 19.6694 72.1544 20.3201 72.1544L23 72.1544L23 73.1647L22.4435 73.1647C22.6432 73.296 22.7974 73.4843 22.9058 73.7298C23.0086 73.9695 23.0599 74.2606 23.0599 74.6031C23.0599 74.9456 23.0029 75.2452 22.8887 75.5021C22.7688 75.759 22.6061 75.9587 22.4007 76.1014C22.1895 76.2384 21.9526 76.3069 21.69 76.3069C21.279 76.3069 20.9508 76.1557 20.7054 75.8531C20.4542 75.5449 20.3287 75.0626 20.3287 74.4062L20.3287 73.2246L20.2602 73.2246C19.9405 73.2246 19.6951 73.3217 19.5238 73.5157C19.3526 73.7041 19.267 73.9866 19.267 74.3634C19.267 74.6202 19.3069 74.8742 19.3868 75.1254C19.4668 75.3708 19.5781 75.5792 19.7208 75.7504L18.9416 76.1699C18.759 75.9302 18.6191 75.642 18.5221 75.3052C18.425 74.9684 18.3765 74.6117 18.3765 74.2349ZM22.2808 74.3805C22.2808 74.1122 22.2209 73.8753 22.101 73.6698C21.9754 73.4586 21.7985 73.3102 21.5701 73.2246L21.0393 73.2246L21.0393 74.3291C21.0393 74.9456 21.2419 75.2538 21.6472 75.2538C21.8413 75.2538 21.9954 75.1767 22.1096 75.0226C22.2237 74.8685 22.2808 74.6545 22.2808 74.3805ZM22.7517 68.0324C22.8544 68.158 22.9315 68.3121 22.9829 68.4948C23.0342 68.6717 23.0599 68.8601 23.0599 69.0599C23.0599 69.5622 22.9286 69.9503 22.6661 70.2243C22.4035 70.4983 22.0211 70.6353 21.5188 70.6353L19.3183 70.6353L19.3183 71.3887L18.4621 71.3887L18.4621 70.6353L17.4176 70.6353L17.4176 69.565L18.4621 69.565L18.4621 68.3407L19.3183 68.3407L19.3183 69.565L21.4931 69.565C21.7157 69.565 21.8869 69.5108 22.0068 69.4024C22.121 69.2939 22.178 69.1369 22.178 68.9315C22.178 68.6917 22.1153 68.4919 21.9897 68.3321L22.7517 68.0324ZM23.0599 65.2477C23.0599 65.71 22.96 66.1267 22.7603 66.4977C22.5605 66.8687 22.2836 67.1598 21.9298 67.371C21.5701 67.5765 21.1649 67.6793 20.7139 67.6793C20.263 67.6793 19.8606 67.5765 19.5067 67.371C19.1528 67.1598 18.876 66.8687 18.6762 66.4977C18.4764 66.1267 18.3765 65.71 18.3765 65.2477C18.3765 64.7796 18.4764 64.3601 18.6762 63.989C18.876 63.618 19.1528 63.3298 19.5067 63.1243C19.8606 62.9131 20.263 62.8075 20.7139 62.8075C21.1649 62.8075 21.5701 62.9131 21.9298 63.1243C22.2836 63.3298 22.5605 63.618 22.7603 63.989C22.96 64.3601 23.0599 64.7796 23.0599 65.2477ZM22.1438 65.2477C22.1438 64.8538 22.0125 64.5285 21.7499 64.2716C21.4874 64.0147 21.142 63.8863 20.7139 63.8863C20.2858 63.8863 19.9405 64.0147 19.6779 64.2716C19.4154 64.5285 19.2841 64.8538 19.2841 65.2477C19.2841 65.6415 19.4154 65.9669 19.6779 66.2237C19.9405 66.4749 20.2858 66.6005 20.7139 66.6005C21.142 66.6005 21.4874 66.4749 21.7499 66.2237C22.0125 65.9669 22.1438 65.6415 22.1438 65.2477ZM19.0957 60.7652C18.6163 60.457 18.3765 59.9147 18.3765 59.1384L19.3954 59.1384C19.3783 59.2297 19.3697 59.3125 19.3697 59.3867C19.3697 59.8034 19.4924 60.1288 19.7379 60.3628C19.9776 60.5968 20.3258 60.7138 20.7824 60.7138L23 60.7138L23 61.7841L18.4279 61.7841L18.4279 60.7652L19.0957 60.7652Z" fill="#B3904E"/>
<path d="M70.1736 84.0565C72.1254 82.8223 72.0083 81 70.1736 81H67.1157H66.5041H63.4463C61.6116 81 61.4944 82.8223 63.4463 84.0565V85.8904C62.1315 86.8175 61.5593 86.8467 61 88.3356V101.784C61.2411 102.656 61.4788 103.088 63.4463 103.007H66.5041H67.1157H70.1736C72.141 103.088 72.3788 102.656 72.6198 101.784V88.3356C72.0605 86.8467 71.4884 86.8175 70.1736 85.8904V84.0565Z" fill="white"/>
<path d="M66.5041 81H70.1736C72.0083 81 72.1254 82.8223 70.1736 84.0565V85.8904C71.4884 86.8175 72.0605 86.8467 72.6198 88.3356V101.784C72.3788 102.656 72.141 103.088 70.1736 103.007H66.5041M67.1157 81H63.4463C61.6116 81 61.4944 82.8223 63.4463 84.0565V85.8904C62.1315 86.8175 61.5593 86.8467 61 88.3356V101.784C61.2411 102.656 61.4788 103.088 63.4463 103.007H67.1157" stroke="#B3904E" stroke-width="1.3"/>
<path d="M62.0137 91.7885H62.5703V94.3142L64.1371 94.3142V94.7852H62.0137V91.7885ZM66.405 93.5009H65.6472V94.25H65.1892V93.5009H64.4314V93.0728H65.1892V92.3236H65.6472V93.0728H66.405V93.5009ZM69.2041 93.2269C69.3696 93.2811 69.5009 93.3724 69.5979 93.5009C69.695 93.6264 69.7435 93.7834 69.7435 93.9718C69.7435 94.2315 69.6436 94.4327 69.4438 94.5754C69.244 94.7152 68.9529 94.7852 68.5705 94.7852H67.0807L67.0807 91.7885H68.4849C68.8388 91.7885 69.1113 91.8584 69.3025 91.9982C69.4937 92.1352 69.5894 92.325 69.5894 92.5676C69.5894 92.716 69.5551 92.8473 69.4866 92.9615C69.4181 93.0756 69.3239 93.1641 69.2041 93.2269ZM67.6372 92.2251V93.0514H68.4249C68.619 93.0514 68.7674 93.0171 68.8702 92.9486C68.9757 92.8773 69.0285 92.7745 69.0285 92.6404C69.0285 92.5034 68.9757 92.4006 68.8702 92.3321C68.7674 92.2608 68.619 92.2251 68.4249 92.2251H67.6372ZM68.5362 94.3485C68.9672 94.3485 69.1827 94.2044 69.1827 93.9161C69.1827 93.6279 68.9672 93.4837 68.5362 93.4837H67.6372V94.3485H68.5362ZM71.5789 93.0813V93.3853H70.1234V93.1455L70.8897 92.4777C70.9781 92.3978 71.0381 92.3336 71.0695 92.2851C71.1037 92.2337 71.1208 92.1823 71.1208 92.1309C71.1208 92.0624 71.0895 92.0068 71.0267 91.964C70.9667 91.9212 70.8754 91.8998 70.7527 91.8998C70.6556 91.8998 70.5686 91.9155 70.4915 91.9469C70.4145 91.9783 70.3531 92.0253 70.3075 92.0881L70.0378 91.8955C70.112 91.7956 70.2119 91.7185 70.3374 91.6643C70.463 91.6072 70.6114 91.5787 70.7827 91.5787C71.0081 91.5787 71.1851 91.6272 71.3135 91.7242C71.4419 91.8213 71.5061 91.9483 71.5061 92.1053C71.5061 92.1966 71.4833 92.2822 71.4376 92.3621C71.3948 92.442 71.3078 92.5391 71.1765 92.6532L70.6885 93.0813H71.5789Z" fill="#B3904E"/>
</svg>
