<?xml version="1.0" encoding="utf-8"?>
<!-- Generator: Adobe Illustrator 27.2.0, SVG Export Plug-In . SVG Version: 6.00 Build 0)  -->
<svg version="1.1" id="Слой_1" xmlns="http://www.w3.org/2000/svg" xmlns:xlink="http://www.w3.org/1999/xlink" x="0px" y="0px"
	 viewBox="0 0 595.28 841.89" style="enable-background:new 0 0 595.28 841.89;" xml:space="preserve">
<g>
	<g>
		<g>
			<g>
				<path d="M54.26,489.01c0-0.35-0.35-0.7-0.7-0.7h-1.05c-0.35,0-0.7,0-0.7,0.7l-9.11,22.42c0,0.35,0,0.7,0.35,0.7h1.05
					c0.7,0,1.05,0,1.05-0.7l2.45-6.31h10.51l2.45,6.31c0,0.35,0.35,0.7,1.05,0.7h1.05c0.7,0,0.7-0.35,0.35-0.7L54.26,489.01z
					 M48.3,503.37l3.85-10.16c0.35-1.05,0.35-2.1,0.35-2.45l0,0c0,0,0,1.05,0.35,2.45l3.85,10.16H48.3z"/>
			</g>
		</g>
	</g>
	<g>
		<g>
			<g>
				<path d="M94.9,488.66h-1.05c-0.35,0-0.7,0-0.7,0.7v13.31c0,2.45,0.35,5.26,0.35,6.31l0,0c-0.7-0.7-1.75-3.15-2.8-4.91
					l-10.16-14.72c0-0.35-0.35-0.35-0.7-0.35h-1.05c-0.35,0-0.7,0-0.7,0.7v22.07c0,0.35,0,0.7,0.7,0.7h1.05c0.35,0,0.7,0,0.7-0.7
					v-13.66c0-2.45-0.35-4.91-0.35-5.96l0,0c0.35,0.7,1.4,2.8,2.8,4.91l10.51,15.07c0,0.35,0.35,0.35,0.7,0.35h1.05
					c0.35,0,0.7,0,0.7-0.7v-22.07C95.6,488.66,95.25,488.66,94.9,488.66"/>
			</g>
		</g>
	</g>
	<g>
		<g>
			<g>
				<path d="M126.44,488.66h-15.77c-0.35,0-0.7,0-0.7,0.7v1.05c0,0.35,0,0.7,0.7,0.7h6.66v20.67c0,0.35,0,0.7,0.7,0.7h1.05
					c0.35,0,0.7,0,0.7-0.7v-20.67h6.66c0.35,0,0.7,0,0.7-0.7v-1.05C127.14,488.66,127.14,488.66,126.44,488.66"/>
			</g>
		</g>
	</g>
	<g>
		<g>
			<g>
				<path d="M143.6,488.66h-1.05c-0.35,0-0.7,0-0.7,0.7v22.07c0,0.35,0,0.7,0.7,0.7h1.05c0.35,0,0.7,0,0.7-0.7v-22.07
					C144.3,488.66,143.95,488.66,143.6,488.66"/>
			</g>
		</g>
	</g>
	<g>
		<g>
			<g>
				<path d="M169.88,502.32h-8.41c-0.35,0-0.7,0-0.7,0.7v0.7c0,0.35,0,0.7,0.7,0.7h8.41c0.35,0,0.7,0,0.7-0.7v-0.7
					C170.23,502.32,170.23,502.32,169.88,502.32"/>
			</g>
		</g>
	</g>
	<g>
		<g>
			<g>
				<path d="M195.46,489.01c0-0.35-0.35-0.7-0.7-0.7h-1.05c-0.35,0-0.7,0-0.7,0.7l-8.76,22.42c0,0.35,0,0.7,0.35,0.7h1.05
					c0.7,0,1.05,0,1.05-0.7l2.45-6.31h10.51l2.45,6.31c0,0.35,0.35,0.7,1.05,0.7h0.7c0.7,0,0.7-0.35,0.35-0.7L195.46,489.01z
					 M189.5,503.37l3.85-10.16c0.35-1.05,0.35-2.1,0.35-2.45l0,0c0,0,0,1.05,0.35,2.45l3.85,10.16H189.5z"/>
			</g>
		</g>
	</g>
	<g>
		<g>
			<g>
				<path d="M235.4,499.87h-8.06c-0.35,0-0.7,0-0.7,0.7v1.05c0,0.35,0,0.7,0.7,0.7h6.31v2.45c0,3.5-2.45,5.61-6.66,5.61
					s-6.66-2.45-6.66-5.96v-7.71c0-3.85,2.45-5.96,6.66-5.96c3.85,0,5.61,1.4,6.66,4.2c0.35,0.35,0.35,0.7,0.7,0.35l1.05-0.7
					c0.35,0,0.7-0.35,0.35-0.7c-1.05-3.5-3.85-5.61-8.76-5.61c-5.96,0-9.11,3.15-9.11,8.41v7.71c0,5.26,3.15,8.41,9.11,8.41
					c5.96,0,9.11-3.15,9.11-8.06v-4.2C236.1,500.22,235.75,499.87,235.4,499.87"/>
			</g>
		</g>
	</g>
	<g>
		<g>
			<g>
				<path d="M253.62,488.66h-1.05c-0.35,0-0.7,0-0.7,0.7v22.07c0,0.35,0,0.7,0.7,0.7h1.05c0.35,0,0.7,0,0.7-0.7v-22.07
					C254.32,488.66,253.97,488.66,253.62,488.66"/>
			</g>
		</g>
	</g>
	<g>
		<g>
			<g>
				<path d="M287.96,488.66h-1.05c-0.35,0-0.7,0-0.7,0.7v13.31c0,2.45,0.35,5.26,0.35,6.31l0,0c-0.7-0.7-1.75-3.15-2.8-4.91
					l-10.16-14.72c0-0.35-0.35-0.35-0.7-0.35h-1.05c-0.35,0-0.7,0-0.7,0.7v22.07c0,0.35,0,0.7,0.7,0.7h1.05c0.35,0,0.7,0,0.7-0.7
					v-13.66c0-2.45-0.35-4.91-0.35-5.96l0,0c0.35,0.7,1.4,2.8,2.8,4.91l10.51,15.07c0,0.35,0.35,0.35,0.7,0.35h0.7
					c0.35,0,0.7,0,0.7-0.7v-22.07C288.66,488.66,288.66,488.66,287.96,488.66"/>
			</g>
		</g>
	</g>
	<g>
		<g>
			<g>
				<path d="M322.3,499.87h-8.06c-0.35,0-0.7,0-0.7,0.7v1.05c0,0.35,0,0.7,0.7,0.7h6.31v2.45c0,3.5-2.45,5.61-6.66,5.61
					c-4.2,0-6.66-2.45-6.66-5.96v-7.71c0-3.85,2.45-5.96,6.66-5.96c3.85,0,5.61,1.4,6.66,4.2c0.35,0.35,0.35,0.7,0.7,0.35l1.05-0.35
					c0.35,0,0.7-0.35,0.35-0.7c-1.05-3.5-3.85-5.61-8.76-5.61c-5.96,0-9.11,3.15-9.11,8.41v7.71c0,5.26,3.15,8.41,9.11,8.41
					s9.11-3.15,9.11-8.06v-4.2C323,500.22,323,499.87,322.3,499.87"/>
			</g>
		</g>
	</g>
	<g>
		<g>
			<g>
				<path d="M371.7,499.87L371.7,499.87c2.1-1.05,3.15-2.8,3.15-5.26c0-3.85-2.45-5.96-6.31-5.96h-9.46c-0.35,0-0.7,0-0.7,0.7v22.07
					c0,0.35,0,0.7,0.7,0.7h9.46c4.2,0,7.01-2.1,7.01-6.31C375.55,502.67,374.15,500.57,371.7,499.87 M360.84,490.76h7.36
					c2.8,0,4.2,1.4,4.2,4.2s-1.4,4.2-4.2,4.2h-7.36V490.76z M368.55,509.68h-7.71v-8.76h7.71c2.8,0,4.55,1.4,4.55,4.2
					C373.1,508.28,371.35,509.68,368.55,509.68"/>
			</g>
		</g>
	</g>
	<g>
		<g>
			<g>
				<path d="M405.69,509.68h-12.26v-8.41h10.16c0.35,0,0.7,0,0.7-0.7v-1.05c0-0.35,0-0.7-0.7-0.7h-10.16v-8.06h11.56
					c0.35,0,0.7,0,0.7-0.7v-1.05c0-0.35,0-0.7-0.7-0.7h-13.31c-0.35,0-0.7,0-0.7,0.7v22.07c0,0.35,0,0.7,0.7,0.7h13.66
					c0.35,0,0.7,0,0.7-0.7L405.69,509.68C406.39,510.03,406.04,509.68,405.69,509.68"/>
			</g>
		</g>
	</g>
	<g>
		<g>
			<g>
				<path d="M431.26,489.01c0-0.35-0.35-0.7-0.7-0.7h-1.05c-0.35,0-0.7,0-0.7,0.7l-8.76,22.42c0,0.35,0,0.7,0.35,0.7h1.05
					c0.7,0,1.05,0,1.05-0.7l2.1-6.31h10.51l2.45,6.31c0,0.35,0.35,0.7,1.05,0.7h1.05c0.7,0,0.7-0.35,0.35-0.7L431.26,489.01z
					 M425.31,503.37l3.85-10.16c0.35-1.05,0.35-2.1,0.35-2.45l0,0c0,0,0,1.05,0.35,2.45l3.85,10.16H425.31z"/>
			</g>
		</g>
	</g>
	<g>
		<g>
			<g>
				<path d="M471.21,488.66h-1.05c-0.35,0-0.7,0-0.7,0.7v14.72c0,3.85-2.1,6.31-6.66,6.31c-4.2,0-6.66-2.45-6.66-6.31v-14.72
					c0-0.35,0-0.7-0.7-0.7h-1.05c-0.35,0-0.7,0-0.7,0.7v14.72c0,5.26,2.8,8.41,8.76,8.41s8.76-3.5,8.76-8.41v-14.72
					C471.91,488.66,471.56,488.66,471.21,488.66"/>
			</g>
		</g>
	</g>
	<g>
		<g>
			<g>
				<path d="M502.74,488.66h-15.77c-0.35,0-0.7,0-0.7,0.7v1.05c0,0.35,0,0.7,0.7,0.7h6.66v20.67c0,0.35,0,0.7,0.7,0.7h1.05
					c0.35,0,0.7,0,0.7-0.7v-20.67h6.66c0.35,0,0.7,0,0.7-0.7v-1.05C503.44,488.66,503.09,488.66,502.74,488.66"/>
			</g>
		</g>
	</g>
	<g>
		<g>
			<g>
				<path d="M535.33,488.66h-1.4c-0.7,0-1.05,0-1.4,0.7l-7.01,10.86l-7.01-10.86c-0.35-0.7-0.35-0.7-1.4-0.7h-1.4
					c-0.35,0-0.7,0.35-0.35,0.7l8.76,13.31v8.76c0,0.35,0,0.7,0.7,0.7h1.05c0.35,0,0.7,0,0.7-0.7v-8.76l8.76-13.31
					C536.03,489.01,535.68,488.66,535.33,488.66"/>
			</g>
		</g>
	</g>
	<g>
		<g>
			<g>
				<path d="M403.23,342.84c0,0-15.77-9.81-30.13,13.31l-49.75,74.63c-10.86,16.47-9.11,25.58-2.1,34.69L403.23,342.84z"/>
			</g>
		</g>
	</g>
	<g>
		<g>
			<path d="M516.76,471.78h17.17V351.95c-6.31,9.11-17.17,25.23-17.17,36.44V471.78z"/>
		</g>
	</g>
	<g>
		<g>
			<g>
				<path d="M547.59,347.74c0.35-0.35,0.35-0.7,0.35-1.4s-0.35-1.4-1.05-1.75c-0.35,0-1.05-0.35-2.1-0.35h-2.45v8.06h1.4v-3.5h1.05
					l2.45,3.5h1.4l-2.8-3.85C546.89,348.44,547.24,348.09,547.59,347.74 M544.44,348.44h-0.7v-3.15h0.7c0.7,0,1.4,0,1.75,0.35
					c0.35,0,0.35,0.35,0.35,1.05c0,0.35-0.35,1.05-0.7,1.05C545.84,348.09,545.14,348.44,544.44,348.44"/>
			</g>
		</g>
	</g>
	<g>
		<g>
			<g>
				<path d="M545.49,341.44c-3.85,0-7.36,3.15-7.36,7.36c0,3.85,3.15,7.36,7.36,7.36c3.85,0,7.36-3.15,7.36-7.36
					C552.49,344.59,549.34,341.44,545.49,341.44 M545.49,354.75c-3.5,0-6.31-2.8-6.31-6.31c0-3.5,2.8-6.31,6.31-6.31
					c3.5,0,6.31,2.8,6.31,6.31C551.44,351.95,548.64,354.75,545.49,354.75"/>
			</g>
		</g>
	</g>
	<g>
		<g>
			<g>
				<path d="M523.76,341.44c-10.16,0-15.77,8.06-18.57,11.91c-1.75,2.45-17.87,27.33-17.87,27.33s15.77,5.96,25.58-8.06
					c8.41-11.91,16.47-24.18,20.67-30.83C533.22,341.44,527.62,341.44,523.76,341.44"/>
			</g>
		</g>
	</g>
	<g>
		<g>
			<g>
				<path d="M61.62,401.35v-23.12v-40.64H44.45v82.69C44.45,420.27,48.3,411.51,61.62,401.35"/>
			</g>
		</g>
	</g>
	<g>
		<g>
			<g>
				<path d="M317.39,471.43c-18.57-28.03-68.67-105.46-76.73-117.38c-15.77-23.83-28.73-10.86-28.73-10.86
					c24.18,36.09,59.91,90.75,71.48,108.27C302.68,480.18,317.39,471.43,317.39,471.43"/>
			</g>
		</g>
	</g>
	<g>
		<g>
			<g>
				<path d="M163.93,456.01c22.77,25.93,36.79,15.42,36.79,15.42c-14.72-16.82-50.8-57.46-73.23-83.39
					c32.23-19.62,72.88-44.85,72.88-44.85s-10.16-14.02-39.59,3.85c-8.06,5.26-24.88,15.77-44.5,27.68
					c-4.55,2.8-9.81,5.96-15.77,9.81c-4.2,2.45-8.41,5.26-12.61,7.71c-0.35,0.35-0.7,0.7-1.05,0.7
					c-44.5,27.68-42.4,35.39-42.4,78.83h17.17c0.35-34.34-4.2-40.99,44.15-70.08c0,0,0.7-0.7,2.45-1.75c1.4-0.7,2.8-1.75,4.2-2.45
					C133.79,422.02,155.17,445.85,163.93,456.01"/>
			</g>
		</g>
	</g>
	<g>
		<g>
			<g>
				<path d="M469.45,406.61H416.9l-2.8,0.35c-11.56,0.7-21.72,16.12-21.72,16.12l0,0l0,0h52.56l0,0h1.4l2.8-0.35l0,0
					C461.75,421.32,469.45,406.61,469.45,406.61"/>
			</g>
		</g>
	</g>
</g>
</svg>
