<?xml version="1.0" encoding="utf-8"?>
<!-- Generator: Adobe Illustrator 27.2.0, SVG Export Plug-In . SVG Version: 6.00 Build 0)  -->
<svg version="1.1" id="Слой_1" xmlns="http://www.w3.org/2000/svg" xmlns:xlink="http://www.w3.org/1999/xlink" x="0px" y="0px"
	 viewBox="0 0 595.28 841.89" style="enable-background:new 0 0 595.28 841.89;" xml:space="preserve">
<g>
	<g>
		<g>
			<g>
				<path d="M403.23,342.84c0,0-15.77-9.81-30.13,13.31l-49.75,74.63c-10.86,16.47-9.11,25.58-2.1,34.69L403.23,342.84z"/>
			</g>
		</g>
	</g>
	<g>
		<g>
			<path d="M516.76,471.78h17.17V351.95c-6.31,9.11-17.17,25.23-17.17,36.44V471.78z"/>
		</g>
	</g>
	<g>
		<g>
			<g>
				<path d="M523.76,341.44c-10.16,0-15.77,8.06-18.57,11.91c-1.75,2.45-17.87,27.33-17.87,27.33s15.77,5.96,25.58-8.06
					c8.41-11.91,16.47-24.18,20.67-30.83C533.22,341.44,527.62,341.44,523.76,341.44"/>
			</g>
		</g>
	</g>
	<g>
		<g>
			<g>
				<path d="M61.62,401.35v-23.12v-40.64H44.45v82.69C44.45,420.27,48.3,411.51,61.62,401.35"/>
			</g>
		</g>
	</g>
	<g>
		<g>
			<g>
				<path d="M317.39,471.43c-18.57-28.03-68.67-105.46-76.73-117.38c-15.77-23.83-28.73-10.86-28.73-10.86
					c24.18,36.09,59.91,90.75,71.48,108.27C302.68,480.18,317.39,471.43,317.39,471.43"/>
			</g>
		</g>
	</g>
	<g>
		<g>
			<g>
				<path d="M163.93,456.01c22.77,25.93,36.79,15.42,36.79,15.42c-14.72-16.82-50.8-57.46-73.23-83.39
					c32.23-19.62,72.88-44.85,72.88-44.85s-10.16-14.02-39.59,3.85c-8.06,5.26-24.88,15.77-44.5,27.68
					c-4.55,2.8-9.81,5.96-15.77,9.81c-4.2,2.45-8.41,5.26-12.61,7.71c-0.35,0.35-0.7,0.7-1.05,0.7
					c-44.5,27.68-42.4,35.39-42.4,78.83h17.17c0.35-34.34-4.2-40.99,44.15-70.08c0,0,0.7-0.7,2.45-1.75c1.4-0.7,2.8-1.75,4.2-2.45
					C133.79,422.02,155.17,445.85,163.93,456.01"/>
			</g>
		</g>
	</g>
	<g>
		<g>
			<g>
				<path d="M469.45,406.61H416.9l-2.8,0.35c-11.56,0.7-21.72,16.12-21.72,16.12l0,0l0,0h52.56l0,0h1.4l2.8-0.35l0,0
					C461.75,421.32,469.45,406.61,469.45,406.61"/>
			</g>
		</g>
	</g>
</g>
</svg>
