<svg width="337" height="116" viewBox="0 0 337 116" fill="none" xmlns="http://www.w3.org/2000/svg">
<path d="M7.63648 100.041C7.63648 99.8094 7.40527 99.5781 7.17406 99.5781H6.48043C6.24923 99.5781 6.01802 99.5781 6.01802 100.041L0 114.853C0 115.084 -1.00405e-06 115.316 0.231207 115.316H0.924831C1.38725 115.316 1.61846 115.316 1.61846 114.853L3.23691 110.684H10.1798L11.7982 114.853C11.7982 115.084 12.0294 115.316 12.4918 115.316H13.1855C13.6479 115.316 13.6479 115.084 13.4167 114.853L7.63648 100.041ZM3.69933 109.528L6.24262 102.815C6.47383 102.122 6.47383 101.428 6.47383 101.197C6.47383 101.197 6.47383 101.891 6.70504 102.815L9.24833 109.528H3.69933Z" fill="white"/>
<path d="M34.4825 99.8076H33.7889C33.5577 99.8076 33.3265 99.8076 33.3265 100.27V109.064C33.3265 110.682 33.5577 112.539 33.5577 113.233C33.0953 112.77 32.4017 111.152 31.708 109.989L24.9964 100.263C24.9964 100.032 24.7652 100.032 24.534 100.032H23.8403C23.6091 100.032 23.3779 100.032 23.3779 100.495V115.076C23.3779 115.307 23.3779 115.538 23.8403 115.538H24.534C24.7652 115.538 24.9964 115.539 24.9964 115.076V106.051C24.9964 104.432 24.7652 102.807 24.7652 102.113C24.9964 102.576 25.69 103.963 26.6148 105.357L33.5577 115.314C33.5577 115.545 33.7889 115.545 34.0201 115.545H34.7137C34.9449 115.545 35.1762 115.545 35.1762 115.083V100.501C34.9449 99.8076 34.7137 99.8076 34.4825 99.8076Z" fill="white"/>
<path d="M55.3165 99.8076H44.8989C44.6677 99.8076 44.4365 99.8076 44.4365 100.27V100.964C44.4365 101.195 44.4365 101.426 44.8989 101.426H49.2985V115.083C49.2985 115.314 49.2985 115.545 49.7609 115.545H50.4545C50.6858 115.545 50.917 115.545 50.917 115.083V101.426H55.3165C55.5477 101.426 55.7789 101.426 55.7789 100.964V100.27C55.7789 99.8076 55.7789 99.8076 55.3165 99.8076Z" fill="white"/>
<path d="M66.6552 99.8096H65.9615C65.7303 99.8096 65.499 99.8096 65.499 100.272V114.853C65.499 115.085 65.499 115.316 65.9615 115.316H66.6552C66.8865 115.316 67.1177 115.316 67.1177 114.853V100.272C67.1177 99.8096 66.8865 99.8096 66.6552 99.8096Z" fill="white"/>
<path d="M84.013 108.839H78.4566C78.2254 108.839 77.9941 108.839 77.9941 109.301V109.764C77.9941 109.995 77.9941 110.226 78.4566 110.226H84.013C84.2442 110.226 84.4755 110.226 84.4755 109.764V109.301C84.2442 108.839 84.2442 108.839 84.013 108.839Z" fill="white"/>
<path d="M100.913 100.041C100.913 99.8094 100.682 99.5781 100.451 99.5781H99.757C99.5258 99.5781 99.2946 99.5781 99.2946 100.041L93.5078 114.853C93.5078 115.084 93.5078 115.316 93.739 115.316H94.4326C94.8951 115.316 95.1263 115.316 95.1263 114.853L96.7447 110.684H103.688L105.306 114.853C105.306 115.084 105.537 115.316 106 115.316H106.462C106.924 115.316 106.924 115.084 106.693 114.853L100.913 100.041ZM96.9759 109.528L99.5192 102.815C99.7504 102.122 99.7504 101.428 99.7504 101.197C99.7504 101.197 99.7504 101.891 99.9816 102.815L102.525 109.528H96.9759Z" fill="white"/>
<path d="M127.291 107.213H121.967C121.736 107.213 121.505 107.213 121.505 107.676V108.369C121.505 108.601 121.505 108.832 121.967 108.832H126.135V110.451C126.135 112.763 124.517 114.157 121.736 114.157C118.955 114.157 117.336 112.538 117.336 110.219V105.125C117.336 102.582 118.955 101.188 121.736 101.188C124.279 101.188 125.442 102.113 126.135 103.963C126.367 104.194 126.367 104.425 126.598 104.194L127.291 103.731C127.523 103.731 127.754 103.5 127.523 103.269C126.829 100.957 124.979 99.5625 121.736 99.5625C117.799 99.5625 115.718 101.644 115.718 105.119V110.213C115.718 113.688 117.799 115.769 121.736 115.769C125.673 115.769 127.754 113.688 127.754 110.444V107.669C127.754 107.444 127.523 107.213 127.291 107.213Z" fill="white"/>
<path d="M139.327 99.8076H138.633C138.402 99.8076 138.171 99.8076 138.171 100.27V114.851C138.171 115.083 138.171 115.314 138.633 115.314H139.327C139.558 115.314 139.79 115.314 139.79 114.851V100.27C139.79 99.8076 139.558 99.8076 139.327 99.8076Z" fill="white"/>
<path d="M162.021 99.8076H161.327C161.096 99.8076 160.865 99.8076 160.865 100.27V109.064C160.865 110.682 161.096 112.539 161.096 113.233C160.633 112.77 159.94 111.152 159.246 109.989L152.534 100.263C152.534 100.032 152.303 100.032 152.072 100.032H151.378C151.147 100.032 150.916 100.032 150.916 100.495V115.076C150.916 115.307 150.916 115.538 151.378 115.538H152.072C152.303 115.538 152.534 115.539 152.534 115.076V106.051C152.534 104.432 152.303 102.807 152.303 102.113C152.534 102.576 153.228 103.963 154.153 105.357L161.096 115.314C161.096 115.545 161.327 115.545 161.558 115.545H162.021C162.252 115.545 162.483 115.545 162.483 115.083V100.501C162.483 99.8076 162.483 99.8076 162.021 99.8076Z" fill="white"/>
<path d="M184.704 107.213H179.38C179.149 107.213 178.918 107.213 178.918 107.676V108.37C178.918 108.601 178.918 108.832 179.38 108.832H183.548V110.451C183.548 112.763 181.93 114.157 179.149 114.157C176.374 114.157 174.749 112.539 174.749 110.22V105.126C174.749 102.582 176.368 101.188 179.149 101.188C181.692 101.188 182.855 102.113 183.548 103.963C183.78 104.194 183.78 104.425 184.011 104.194L184.704 103.963C184.936 103.963 185.167 103.732 184.936 103.5C184.242 101.188 182.392 99.7939 179.149 99.7939C175.212 99.7939 173.131 101.875 173.131 105.35V110.444C173.131 113.919 175.212 116.001 179.149 116.001C183.086 116.001 185.167 113.919 185.167 110.675V107.901C185.167 107.445 185.167 107.213 184.704 107.213Z" fill="white"/>
<path d="M217.33 107.213C218.718 106.519 219.411 105.363 219.411 103.737C219.411 101.194 217.793 99.7998 215.243 99.7998H208.994C208.762 99.7998 208.531 99.7998 208.531 100.262V114.844C208.531 115.075 208.531 115.306 208.994 115.306H215.243C218.017 115.306 219.874 113.919 219.874 111.137C219.874 109.063 218.949 107.675 217.33 107.213ZM210.156 101.194H215.018C216.868 101.194 217.793 102.119 217.793 103.969C217.793 105.819 216.868 106.744 215.018 106.744H210.156V101.194ZM215.249 113.694H210.156V107.906H215.249C217.099 107.906 218.255 108.831 218.255 110.681C218.255 112.769 217.099 113.694 215.249 113.694Z" fill="white"/>
<path d="M239.788 113.696H231.689V108.14H238.4C238.632 108.14 238.863 108.14 238.863 107.677V106.983C238.863 106.752 238.863 106.521 238.4 106.521H231.689V101.196H239.325C239.556 101.196 239.788 101.196 239.788 100.733V100.04C239.788 99.8084 239.788 99.5771 239.325 99.5771H230.533C230.302 99.5771 230.07 99.5772 230.07 100.04V114.621C230.07 114.852 230.07 115.083 230.533 115.083H239.556C239.788 115.083 240.019 115.083 240.019 114.621L239.788 113.696C240.25 113.927 240.019 113.696 239.788 113.696Z" fill="white"/>
<path d="M256.683 100.041C256.683 99.8094 256.451 99.5781 256.22 99.5781H255.527C255.295 99.5781 255.064 99.5781 255.064 100.041L249.277 114.853C249.277 115.084 249.277 115.316 249.509 115.316H250.202C250.665 115.316 250.896 115.316 250.896 114.853L252.283 110.684H259.226L260.844 114.853C260.844 115.084 261.076 115.316 261.538 115.316H262.232C262.694 115.316 262.694 115.084 262.463 114.853L256.683 100.041ZM252.752 109.528L255.295 102.815C255.527 102.122 255.527 101.428 255.527 101.197C255.527 101.197 255.527 101.891 255.758 102.815L258.301 109.528H252.752Z" fill="white"/>
<path d="M283.073 99.8096H282.379C282.148 99.8096 281.917 99.8096 281.917 100.272V109.997C281.917 112.541 280.529 114.166 277.517 114.166C274.743 114.166 273.117 112.548 273.117 109.997V100.272C273.117 100.041 273.117 99.8096 272.655 99.8096H271.961C271.73 99.8096 271.499 99.8096 271.499 100.272V109.997C271.499 113.473 273.349 115.554 277.286 115.554C281.223 115.554 283.073 113.241 283.073 109.997V100.272C283.535 99.8096 283.304 99.8096 283.073 99.8096Z" fill="white"/>
<path d="M303.901 99.8096H293.483C293.252 99.8096 293.021 99.8096 293.021 100.272V100.966C293.021 101.197 293.021 101.428 293.483 101.428H297.882V115.085C297.882 115.316 297.882 115.547 298.345 115.547H299.039C299.27 115.547 299.501 115.547 299.501 115.085V101.428H303.901C304.132 101.428 304.363 101.428 304.363 100.966V100.272C304.363 99.8096 304.132 99.8096 303.901 99.8096Z" fill="white"/>
<path d="M325.428 99.8096H324.504C324.041 99.8096 323.81 99.8096 323.579 100.272L318.948 107.447L314.317 100.272C314.086 99.8096 314.086 99.8096 313.392 99.8096H312.468C312.236 99.8096 312.005 100.041 312.236 100.272L318.023 109.066V114.853C318.023 115.085 318.023 115.316 318.486 115.316H319.179C319.41 115.316 319.642 115.316 319.642 114.853V109.066L325.428 100.272C325.891 100.041 325.66 99.8096 325.428 99.8096Z" fill="white"/>
<path d="M238.17 3.47031C238.17 3.47031 227.753 -3.01101 218.267 12.264L185.402 61.5709C178.228 72.4524 179.384 78.4712 184.015 84.49L238.17 3.47031Z" fill="white"/>
<path d="M313.163 88.6591H324.505V9.48926C320.337 15.5081 313.163 26.1583 313.163 33.5646V88.6591Z" fill="white"/>
<path d="M333.531 6.7079C333.762 6.47666 333.762 6.24543 333.762 5.78295C333.762 5.32047 333.531 4.85799 333.069 4.62675C332.837 4.62675 332.375 4.39551 331.681 4.39551H330.062V9.72062H330.987V7.40823H331.681L333.3 9.72062H334.225L332.375 7.177C333.069 7.1704 333.3 6.93914 333.531 6.7079ZM331.45 7.17039H330.987V5.08924H331.45C331.912 5.08924 332.375 5.08924 332.606 5.32048C332.837 5.32048 332.837 5.55171 332.837 6.01419C332.837 6.24543 332.606 6.7079 332.375 6.7079C332.375 6.93914 331.912 7.17039 331.45 7.17039Z" fill="white"/>
<path d="M332.136 2.54688C329.593 2.54688 327.274 4.62802 327.274 7.4095C327.274 9.95314 329.355 12.2722 332.136 12.2722C334.68 12.2722 336.998 10.191 336.998 7.4095C336.761 4.62802 334.68 2.54688 332.136 2.54688ZM332.136 11.3406C329.824 11.3406 327.968 9.49067 327.968 7.17167C327.968 4.85927 329.818 3.00275 332.136 3.00275C334.448 3.00275 336.305 4.85266 336.305 7.17167C336.067 9.49067 334.217 11.3406 332.136 11.3406Z" fill="white"/>
<path d="M317.785 2.54688C311.073 2.54688 307.367 7.87199 305.518 10.4156C304.362 12.0343 293.713 28.4721 293.713 28.4721C293.713 28.4721 304.13 32.4098 310.611 23.147C316.167 15.2783 321.491 7.17167 324.265 2.77812C324.034 2.54688 320.335 2.54688 317.785 2.54688Z" fill="white"/>
<path d="M12.4987 42.1252V26.8502V0H1.15625V54.632C1.15625 54.6254 3.69954 48.8378 12.4987 42.1252Z" fill="white"/>
<path d="M181.455 88.426C169.188 69.907 136.092 18.7502 130.768 10.8749C120.35 -4.86925 111.789 3.69984 111.789 3.69984C127.762 27.5439 151.365 63.6569 159.008 75.2321C171.738 94.207 181.455 88.426 181.455 88.426Z" fill="white"/>
<path d="M80.0788 78.2388C95.1206 95.3704 104.382 88.4266 104.382 88.4266C94.6581 77.3139 70.8239 50.4636 56.0067 33.3321C77.2977 20.3695 104.151 3.7004 104.151 3.7004C104.151 3.7004 97.4393 -5.5624 77.9979 6.24404C72.6736 9.71924 61.5623 16.663 48.6015 24.5318C45.5958 26.3817 42.121 28.4695 38.1839 31.0131C35.4094 32.6318 32.6283 34.4883 29.8538 36.107C29.6226 36.3382 29.3914 36.5695 29.1602 36.5695C-0.236306 54.8572 1.15094 59.9511 1.15094 88.6512H12.4934C12.7246 65.9633 9.71886 61.5698 41.6586 42.3504C41.6586 42.3504 42.121 41.888 43.2771 41.1942C44.2019 40.7318 45.1267 40.038 46.0516 39.5756C60.1685 55.7821 74.292 71.5263 80.0788 78.2388Z" fill="white"/>
<path d="M281.913 45.5938H247.199L245.349 45.825C237.713 46.2875 231.001 56.4752 231.001 56.4752H265.722H266.647L268.496 56.244C276.826 55.3124 281.913 45.5938 281.913 45.5938Z" fill="white"/>
</svg>
